<svg width="837" height="585" viewBox="0 0 837 585" fill="none" xmlns="http://www.w3.org/2000/svg">
<rect width="837" height="585" rx="16" fill="black"/>
<g opacity="0.3">
<g clip-path="url(#clip0_6352_75679)">
<g opacity="0.6">
<g filter="url(#filter0_f_6352_75679)">
<path d="M1767.94 130.952C1836.09 35.7616 1814.18 -96.6567 1718.99 -164.812L1319.84 -450.593C1224.65 -518.749 1092.24 -496.833 1024.08 -401.642L739.407 -4.04749C671.251 91.1431 693.167 223.561 788.358 291.717L1187.5 577.498C1282.69 645.654 1415.11 623.737 1483.26 528.547L1767.94 130.952Z" fill="url(#paint0_radial_6352_75679)"/>
</g>
<g style="mix-blend-mode:overlay" filter="url(#filter1_f_6352_75679)">
<path d="M902.148 352.474C982.227 518.732 1181.92 588.594 1348.18 508.515L1401.08 483.037C1567.34 402.957 1637.2 203.261 1557.12 37.0031L1532.3 -14.5318C1452.22 -180.79 1252.52 -250.652 1086.26 -170.572L1033.37 -145.094C867.108 -65.0148 797.246 134.681 877.326 300.939L902.148 352.474Z" fill="url(#paint1_radial_6352_75679)"/>
</g>
</g>
<g filter="url(#filter2_f_6352_75679)">
<path d="M-259.326 -619.399C-230.682 -778.835 -105.507 -835.467 -86.0854 -996.287C-46.8713 -1320.99 -723.215 -728.049 -678.287 -404.085C-644.303 -159.033 -396.396 227.249 -230.335 43.8668C-108.468 -90.7116 -273.065 -237.747 -270.64 -419.288C-269.595 -497.554 -273.168 -542.36 -259.326 -619.399Z" fill="#00DD81"/>
</g>
<g filter="url(#filter3_f_6352_75679)">
<path d="M624.27 395.21C734.79 358.197 825.6 465.382 922.669 400.867C1089.84 289.758 750.528 98.1788 559.217 37.4139C189.807 -79.9193 -479.814 548.146 -142.587 739.217C-0.175107 819.907 135.94 866.493 274.606 779.522C375.273 716.384 348.636 602.971 434.059 520.368C497.981 458.555 539.953 423.447 624.27 395.21Z" fill="#0038FF"/>
</g>
<g filter="url(#filter4_f_6352_75679)">
<ellipse rx="492" ry="326.5" transform="matrix(-0.707107 -0.707107 -0.707107 0.707107 -229.458 -34.4431)" fill="#FF4545"/>
</g>
<g opacity="0.1" filter="url(#filter5_f_6352_75679)">
<ellipse rx="378" ry="251" transform="matrix(-0.707107 -0.707107 -0.707107 0.707107 -160.516 35.2068)" fill="#FF50D4"/>
</g>
<g opacity="0.1" filter="url(#filter6_f_6352_75679)">
<circle r="176.5" transform="matrix(-0.707107 -0.707107 -0.707107 0.707107 -423.56 -371.379)" fill="#FFF181"/>
</g>
<path opacity="0.45" d="M2171.98 659.239C2282.5 696.252 2373.31 589.068 2470.38 653.582C2637.55 764.691 2298.23 956.27 2106.92 1017.04C1737.51 1134.37 1067.89 506.303 1405.12 315.232C1547.53 234.542 1683.65 187.956 1822.31 274.927C1922.98 338.065 1896.34 451.478 1981.77 534.081C2045.69 595.894 2087.66 631.002 2171.98 659.239Z" fill="#FF00F5"/>
</g>
</g>
<defs>
<filter id="filter0_f_6352_75679" x="591.476" y="-598.523" width="1324.39" height="1323.95" filterUnits="userSpaceOnUse" color-interpolation-filters="sRGB">
<feFlood flood-opacity="0" result="BackgroundImageFix"/>
<feBlend mode="normal" in="SourceGraphic" in2="BackgroundImageFix" result="shape"/>
<feGaussianBlur stdDeviation="54.1446" result="effect1_foregroundBlur_6352_75679"/>
</filter>
<filter id="filter1_f_6352_75679" x="738.157" y="-309.74" width="958.129" height="957.421" filterUnits="userSpaceOnUse" color-interpolation-filters="sRGB">
<feFlood flood-opacity="0" result="BackgroundImageFix"/>
<feBlend mode="normal" in="SourceGraphic" in2="BackgroundImageFix" result="shape"/>
<feGaussianBlur stdDeviation="52.9955" result="effect1_foregroundBlur_6352_75679"/>
</filter>
<filter id="filter2_f_6352_75679" x="-1030.43" y="-1440.51" width="1295.99" height="1882.19" filterUnits="userSpaceOnUse" color-interpolation-filters="sRGB">
<feFlood flood-opacity="0" result="BackgroundImageFix"/>
<feBlend mode="normal" in="SourceGraphic" in2="BackgroundImageFix" result="shape"/>
<feGaussianBlur stdDeviation="175" result="effect1_foregroundBlur_6352_75679"/>
</filter>
<filter id="filter3_f_6352_75679" x="-584.732" y="-327.077" width="1902.33" height="1503.35" filterUnits="userSpaceOnUse" color-interpolation-filters="sRGB">
<feFlood flood-opacity="0" result="BackgroundImageFix"/>
<feBlend mode="normal" in="SourceGraphic" in2="BackgroundImageFix" result="shape"/>
<feGaussianBlur stdDeviation="175" result="effect1_foregroundBlur_6352_75679"/>
</filter>
<filter id="filter4_f_6352_75679" x="-997.035" y="-802.021" width="1535.15" height="1535.15" filterUnits="userSpaceOnUse" color-interpolation-filters="sRGB">
<feFlood flood-opacity="0" result="BackgroundImageFix"/>
<feBlend mode="normal" in="SourceGraphic" in2="BackgroundImageFix" result="shape"/>
<feGaussianBlur stdDeviation="175" result="effect1_foregroundBlur_6352_75679"/>
</filter>
<filter id="filter5_f_6352_75679" x="-631.396" y="-435.674" width="941.762" height="941.762" filterUnits="userSpaceOnUse" color-interpolation-filters="sRGB">
<feFlood flood-opacity="0" result="BackgroundImageFix"/>
<feBlend mode="normal" in="SourceGraphic" in2="BackgroundImageFix" result="shape"/>
<feGaussianBlur stdDeviation="75" result="effect1_foregroundBlur_6352_75679"/>
</filter>
<filter id="filter6_f_6352_75679" x="-850.061" y="-797.879" width="853" height="853" filterUnits="userSpaceOnUse" color-interpolation-filters="sRGB">
<feFlood flood-opacity="0" result="BackgroundImageFix"/>
<feBlend mode="normal" in="SourceGraphic" in2="BackgroundImageFix" result="shape"/>
<feGaussianBlur stdDeviation="125" result="effect1_foregroundBlur_6352_75679"/>
</filter>
<radialGradient id="paint0_radial_6352_75679" cx="0" cy="0" r="1" gradientUnits="userSpaceOnUse" gradientTransform="translate(1402.46 -6.00854) rotate(133.253) scale(604.959 606.219)">
<stop stop-color="#FFD84B"/>
<stop offset="1" stop-color="#FFD84B" stop-opacity="0"/>
</radialGradient>
<radialGradient id="paint1_radial_6352_75679" cx="0" cy="0" r="1" gradientUnits="userSpaceOnUse" gradientTransform="translate(1065.36 185.667) rotate(-90.9248) scale(343.545 344.26)">
<stop stop-color="#9207FF"/>
<stop offset="1" stop-color="#FF9898"/>
</radialGradient>
<clipPath id="clip0_6352_75679">
<path d="M0 16C0 7.16344 7.16344 0 16 0H821C829.837 0 837 7.16344 837 16V569C837 577.837 829.837 585 821 585H16C7.16342 585 0 577.837 0 569V16Z" fill="white"/>
</clipPath>
</defs>
</svg>
