<svg width="24" height="24" viewBox="0 0 24 24" fill="none" xmlns="http://www.w3.org/2000/svg">
<rect y="3.42773" width="24" height="17.1429" rx="1.71429" fill="white"/>
<mask id="mask0_6301_75369" style="mask-type:alpha" maskUnits="userSpaceOnUse" x="0" y="3" width="24" height="18">
<rect y="3.42773" width="24" height="17.1429" rx="1.71429" fill="white"/>
</mask>
<g mask="url(#mask0_6301_75369)">
<rect y="3.42773" width="24" height="17.1429" fill="#F1361D"/>
<path fill-rule="evenodd" clip-rule="evenodd" d="M8.63379 6.08744L9.46388 6.22895L10.0865 6.79595L10.228 5.96586L10.795 5.34328L9.96488 5.20176L9.3423 4.63477L9.20079 5.46486L8.63379 6.08744ZM10.8577 8.99006L11.577 8.55227L12.4189 8.57174L11.9811 7.85242L12.0006 7.01057L11.2812 7.44836L10.4394 7.42889L10.8772 8.14821L10.8577 8.99006ZM9.88164 13.6905L9.17803 14.1531L9.16811 13.3111L8.70549 12.6075L9.5475 12.5976L10.2511 12.135L10.261 12.977L10.7237 13.6806L9.88164 13.6905ZM10.4924 11.5137L11.3293 11.421L12.0841 11.7944L11.9913 10.9574L12.3647 10.2027L11.5278 10.2955L10.773 9.92204L10.8658 10.759L10.4924 11.5137Z" fill="#FFDC42"/>
<path fill-rule="evenodd" clip-rule="evenodd" d="M5.7147 10.4786L3.69944 11.9152L4.44301 9.55466L2.45394 8.08198L4.92875 8.05969L5.7147 5.71289L6.50066 8.05969L8.97547 8.08198L6.9864 9.55466L7.72997 11.9152L5.7147 10.4786Z" fill="#FFDC42"/>
</g>
</svg>
