<svg width="24" height="24" viewBox="0 0 24 24" fill="none" xmlns="http://www.w3.org/2000/svg">
<path d="M12 15V15.01M12 9V11V9Z" stroke="white" stroke-width="1.5" stroke-linecap="round" stroke-linejoin="round"/>
<path d="M5.00007 19H19.0001C19.3264 18.9977 19.6472 18.9156 19.9345 18.7609C20.2217 18.6061 20.4668 18.3835 20.6483 18.1123C20.8297 17.841 20.9421 17.5296 20.9755 17.205C21.0089 16.8804 20.9624 16.5525 20.8401 16.25L13.7401 4.00002C13.5671 3.68741 13.3136 3.42685 13.0058 3.2454C12.6981 3.06396 12.3473 2.96826 11.9901 2.96826C11.6328 2.96826 11.2821 3.06396 10.9743 3.2454C10.6666 3.42685 10.413 3.68741 10.2401 4.00002L3.14007 16.25C3.02001 16.5456 2.9724 16.8656 3.00122 17.1833C3.03004 17.501 3.13444 17.8073 3.30572 18.0764C3.477 18.3456 3.71018 18.5698 3.98579 18.7305C4.26141 18.8912 4.57146 18.9836 4.89007 19" stroke="white" stroke-width="1.5" stroke-linecap="round" stroke-linejoin="round"/>
</svg>
