<svg width="32" height="32" viewBox="0 0 32 32" fill="none" xmlns="http://www.w3.org/2000/svg">
<path fill-rule="evenodd" clip-rule="evenodd" d="M28 18.2147V20.1921C28 25.7288 20.1032 28.8927 17.7032 29.6836L16.8516 30V26.5989L17.3161 26.4407C21.1097 25.0169 24.9032 22.565 24.9032 20.1921V18.2147H28ZM16 2L19.2516 3.02825V6.50847L16 5.48023L15.7677 5.55932V13.3898H19.1742V16.6328H15.7677V29.9209L14.8387 29.6045C14.4516 29.4463 13.7548 29.209 12.9032 28.8136L12.5161 28.6554V3.02825L16 2ZM11.5871 3.42373V6.90395L7.17419 8.24859V13.3898H11.5871V28.339L10.5806 27.8644C7.56129 26.2825 4 23.6723 4 19.9548V18.2147H7.17419V19.9548C7.17419 20.7458 7.56129 21.5367 8.33548 22.3277V16.6328H4V5.71751L11.5871 3.42373ZM20.1806 3.34463L27.9226 5.79661V16.7119H23.3548V21.4576C23.3548 21.4576 22.3484 22.8023 20.1806 23.9096C20.1806 23.2768 20.1806 13.7062 20.1806 7.85311V3.34463ZM23.4323 7.77401V13.3898H24.8258V8.24859L23.4323 7.77401Z" fill="white"/>
</svg>
