<svg width="32" height="32" viewBox="0 0 32 32" fill="none" xmlns="http://www.w3.org/2000/svg">
<path d="M16.0067 2.52763L16.6796 1.65809C16.4869 1.50907 16.2503 1.42822 16.0067 1.42822C15.7631 1.42822 15.5265 1.50907 15.3338 1.65809L16.0067 2.52763ZM27.5379 5.91529L28.6385 5.93323C28.6408 5.78726 28.614 5.6423 28.5597 5.50679C28.5054 5.37127 28.4247 5.24791 28.3223 5.14388C28.2199 5.03986 28.0978 4.95725 27.9631 4.90087C27.8284 4.84449 27.6839 4.81546 27.5379 4.81548V5.91529ZM16.0067 29.4719L15.3974 30.3878C15.5778 30.5081 15.7898 30.5723 16.0067 30.5723C16.2236 30.5723 16.4356 30.5081 16.616 30.3878L16.0067 29.4719ZM4.49268 5.91529V4.81548C4.34676 4.81556 4.20231 4.84466 4.06774 4.90108C3.93316 4.95751 3.81115 5.04013 3.70881 5.14415C3.60646 5.24816 3.52583 5.37149 3.47159 5.50696C3.41735 5.64243 3.39059 5.78733 3.39287 5.93323L4.49268 5.91529ZM15.3338 3.39716C20.326 7.26482 26.0381 7.01585 27.5387 7.01585V4.81548C25.9865 4.81548 21.0093 5.01136 16.6811 1.65809L15.3338 3.39716ZM26.4389 5.89735C26.3566 11.0069 26.1398 14.6114 25.7263 17.2813C25.3174 19.9235 24.7334 21.5063 23.9813 22.6188C23.2194 23.774 22.2617 24.4596 20.8478 25.3059C19.419 26.1613 17.6149 27.0831 15.3981 28.556L16.6168 30.3878C18.726 28.9822 20.4845 28.0865 21.9775 27.1938C23.4826 26.2914 24.806 25.2985 25.8041 23.851C26.8119 22.3601 27.4669 20.4177 27.8975 17.6177C28.3252 14.8454 28.5525 11.0914 28.637 5.93323L26.4389 5.89735ZM16.616 28.556C14.3992 27.0831 12.5959 26.1635 11.1693 25.3059C9.75474 24.4603 8.80072 23.7747 8.04109 22.6196C7.29343 21.5078 6.70876 19.928 6.30128 17.282C5.88857 14.6114 5.67324 11.0069 5.59025 5.89735L3.39062 5.93323C3.47511 11.0921 3.70091 14.8454 4.12707 17.617C4.55848 20.417 5.21193 22.3594 6.22053 23.8502C7.21567 25.2977 8.53829 26.2914 10.0418 27.1938C11.5327 28.0858 13.2904 28.9822 15.4003 30.3878L16.616 28.556ZM4.49044 7.01585C5.97605 7.01585 11.6882 7.26482 16.6774 3.39716L15.3316 1.65809C11.0026 5.01136 6.02539 4.81548 4.49044 4.81548V7.01585Z" fill="#3375BB"/>
</svg>
