<svg width="763" height="489" viewBox="0 0 763 489" fill="none" xmlns="http://www.w3.org/2000/svg">
<path d="M118.165 89.1177H762.782" stroke="url(#paint0_linear_25_2042)" stroke-width="1.11147"/>
<path d="M118.165 14.6489H762.782" stroke="url(#paint1_linear_25_2042)" stroke-width="1.11147"/>
<path d="M118.165 164.621H762.782" stroke="url(#paint2_linear_25_2042)" stroke-width="1.11147"/>
<path d="M118.165 239.089H762.782" stroke="url(#paint3_linear_25_2042)" stroke-width="1.11147"/>
<path d="M118.165 389.061H762.782" stroke="url(#paint4_linear_25_2042)" stroke-width="1.11147"/>
<path d="M118.165 314.592H762.782" stroke="url(#paint5_linear_25_2042)" stroke-width="1.11147"/>
<path d="M118.165 464.563H762.782" stroke="url(#paint6_linear_25_2042)" stroke-width="1.11147"/>
<path opacity="0.8" d="M181.021 0L181.022 488.486" stroke="url(#paint7_linear_25_2042)" stroke-width="1.18359" stroke-dasharray="5.78 5.78"/>
<path opacity="0.8" d="M266.614 0L266.614 488.486" stroke="url(#paint8_linear_25_2042)" stroke-width="1.18359" stroke-dasharray="5.78 5.78"/>
<path opacity="0.8" d="M352.207 0L352.207 488.486" stroke="url(#paint9_linear_25_2042)" stroke-width="1.18359" stroke-dasharray="5.78 5.78"/>
<path opacity="0.8" d="M437.798 0L437.798 488.486" stroke="url(#paint10_linear_25_2042)" stroke-width="1.18359" stroke-dasharray="5.78 5.78"/>
<path opacity="0.8" d="M523.391 0L523.391 488.486" stroke="url(#paint11_linear_25_2042)" stroke-width="1.18359" stroke-dasharray="5.78 5.78"/>
<path opacity="0.8" d="M608.982 0L608.982 488.486" stroke="url(#paint12_linear_25_2042)" stroke-width="1.18359" stroke-dasharray="5.78 5.78"/>
<path opacity="0.8" d="M694.575 0L694.575 488.486" stroke="url(#paint13_linear_25_2042)" stroke-width="1.18359" stroke-dasharray="5.78 5.78"/>
<path d="M5.708 8.48183V9.42983C6.348 9.52583 6.856 9.76583 7.232 10.1498C7.608 10.5258 7.844 11.0058 7.94 11.5898L6.98 11.8538C6.94 11.4938 6.808 11.1858 6.584 10.9298C6.368 10.6658 6.076 10.4858 5.708 10.3898V12.8018C6.556 13.0098 7.16 13.2978 7.52 13.6658C7.888 14.0338 8.072 14.4978 8.072 15.0578C8.072 15.7138 7.856 16.2218 7.424 16.5818C7 16.9418 6.428 17.1498 5.708 17.2058V18.1178H4.868V17.1938C4.156 17.1298 3.584 16.9018 3.152 16.5098C2.728 16.1098 2.464 15.5738 2.36 14.9018L3.284 14.6378C3.396 15.1178 3.568 15.4938 3.8 15.7658C4.04 16.0298 4.396 16.1938 4.868 16.2578V13.6658C4.1 13.4738 3.548 13.2018 3.212 12.8498C2.884 12.4898 2.72 12.0298 2.72 11.4698C2.72 10.8458 2.912 10.3578 3.296 10.0058C3.688 9.64583 4.212 9.44583 4.868 9.40583V8.48183H5.708ZM3.764 11.5058C3.764 11.7698 3.844 11.9858 4.004 12.1538C4.172 12.3138 4.46 12.4578 4.868 12.5858V10.3298C4.54 10.3778 4.272 10.5058 4.064 10.7138C3.864 10.9138 3.764 11.1778 3.764 11.5058ZM5.708 16.2578C6.14 16.2098 6.468 16.0818 6.692 15.8738C6.916 15.6658 7.028 15.3978 7.028 15.0698C7.028 14.8058 6.924 14.5778 6.716 14.3858C6.508 14.1858 6.172 14.0178 5.708 13.8818V16.2578ZM10.0508 13.2338L10.0148 10.5458C9.79878 10.8498 9.37078 11.0018 8.73078 11.0018V10.0178C9.13878 9.99383 9.49478 9.89383 9.79878 9.71783C10.1108 9.54183 10.2788 9.28983 10.3028 8.96183H11.1428L11.1068 13.2338L11.1428 17.2778H10.0148L10.0508 13.2338ZM15.7164 17.4578C14.6764 17.4578 13.8724 17.0818 13.3044 16.3298C12.7444 15.5778 12.4644 14.5018 12.4644 13.1018C12.4644 11.7258 12.7444 10.6698 13.3044 9.93383C13.8724 9.18983 14.6764 8.81783 15.7164 8.81783C16.7564 8.81783 17.5524 9.18983 18.1044 9.93383C18.6644 10.6698 18.9444 11.7258 18.9444 13.1018C18.9444 14.5018 18.6644 15.5778 18.1044 16.3298C17.5524 17.0818 16.7564 17.4578 15.7164 17.4578ZM13.5924 13.1018C13.5924 14.1818 13.7764 15.0138 14.1444 15.5978C14.5124 16.1818 15.0364 16.4738 15.7164 16.4738C16.3884 16.4738 16.9044 16.1818 17.2644 15.5978C17.6324 15.0058 17.8164 14.1738 17.8164 13.1018C17.8164 12.0698 17.6364 11.2618 17.2764 10.6778C16.9164 10.0938 16.4044 9.80183 15.7404 9.80183C15.0524 9.80183 14.5204 10.0898 14.1444 10.6658C13.7764 11.2338 13.5924 12.0458 13.5924 13.1018ZM23.1578 17.4578C22.1178 17.4578 21.3138 17.0818 20.7458 16.3298C20.1858 15.5778 19.9058 14.5018 19.9058 13.1018C19.9058 11.7258 20.1858 10.6698 20.7458 9.93383C21.3138 9.18983 22.1178 8.81783 23.1578 8.81783C24.1978 8.81783 24.9938 9.18983 25.5458 9.93383C26.1058 10.6698 26.3858 11.7258 26.3858 13.1018C26.3858 14.5018 26.1058 15.5778 25.5458 16.3298C24.9938 17.0818 24.1978 17.4578 23.1578 17.4578ZM21.0338 13.1018C21.0338 14.1818 21.2178 15.0138 21.5858 15.5978C21.9538 16.1818 22.4778 16.4738 23.1578 16.4738C23.8298 16.4738 24.3458 16.1818 24.7058 15.5978C25.0738 15.0058 25.2578 14.1738 25.2578 13.1018C25.2578 12.0698 25.0778 11.2618 24.7178 10.6778C24.3578 10.0938 23.8458 9.80183 23.1818 9.80183C22.4938 9.80183 21.9618 10.0898 21.5858 10.6658C21.2178 11.2338 21.0338 12.0458 21.0338 13.1018ZM26.8728 18.2738C27.1608 18.1858 27.3728 18.0618 27.5088 17.9018C27.6528 17.7418 27.7128 17.5858 27.6888 17.4338C27.2728 17.3538 27.0648 17.1178 27.0648 16.7258C27.0648 16.5018 27.1248 16.3258 27.2448 16.1978C27.3728 16.0698 27.5488 16.0058 27.7728 16.0058C28.0048 16.0058 28.1848 16.0778 28.3128 16.2218C28.4408 16.3578 28.5048 16.5658 28.5048 16.8458C28.5048 17.2858 28.3968 17.6818 28.1808 18.0338C27.9648 18.3858 27.5768 18.6178 27.0168 18.7298L26.8728 18.2738ZM32.357 17.4578C31.317 17.4578 30.513 17.0818 29.945 16.3298C29.385 15.5778 29.105 14.5018 29.105 13.1018C29.105 11.7258 29.385 10.6698 29.945 9.93383C30.513 9.18983 31.317 8.81783 32.357 8.81783C33.397 8.81783 34.193 9.18983 34.745 9.93383C35.305 10.6698 35.585 11.7258 35.585 13.1018C35.585 14.5018 35.305 15.5778 34.745 16.3298C34.193 17.0818 33.397 17.4578 32.357 17.4578ZM30.233 13.1018C30.233 14.1818 30.417 15.0138 30.785 15.5978C31.153 16.1818 31.677 16.4738 32.357 16.4738C33.029 16.4738 33.545 16.1818 33.905 15.5978C34.273 15.0058 34.457 14.1738 34.457 13.1018C34.457 12.0698 34.277 11.2618 33.917 10.6778C33.557 10.0938 33.045 9.80183 32.381 9.80183C31.693 9.80183 31.161 10.0898 30.785 10.6658C30.417 11.2338 30.233 12.0458 30.233 13.1018ZM39.7984 17.4578C38.7584 17.4578 37.9544 17.0818 37.3864 16.3298C36.8264 15.5778 36.5464 14.5018 36.5464 13.1018C36.5464 11.7258 36.8264 10.6698 37.3864 9.93383C37.9544 9.18983 38.7584 8.81783 39.7984 8.81783C40.8384 8.81783 41.6344 9.18983 42.1864 9.93383C42.7464 10.6698 43.0264 11.7258 43.0264 13.1018C43.0264 14.5018 42.7464 15.5778 42.1864 16.3298C41.6344 17.0818 40.8384 17.4578 39.7984 17.4578ZM37.6744 13.1018C37.6744 14.1818 37.8584 15.0138 38.2264 15.5978C38.5944 16.1818 39.1184 16.4738 39.7984 16.4738C40.4704 16.4738 40.9864 16.1818 41.3464 15.5978C41.7144 15.0058 41.8984 14.1738 41.8984 13.1018C41.8984 12.0698 41.7184 11.2618 41.3584 10.6778C40.9984 10.0938 40.4864 9.80183 39.8224 9.80183C39.1344 9.80183 38.6024 10.0898 38.2264 10.6658C37.8584 11.2338 37.6744 12.0458 37.6744 13.1018ZM47.2398 17.4578C46.1998 17.4578 45.3958 17.0818 44.8278 16.3298C44.2678 15.5778 43.9878 14.5018 43.9878 13.1018C43.9878 11.7258 44.2678 10.6698 44.8278 9.93383C45.3958 9.18983 46.1998 8.81783 47.2398 8.81783C48.2798 8.81783 49.0758 9.18983 49.6278 9.93383C50.1878 10.6698 50.4678 11.7258 50.4678 13.1018C50.4678 14.5018 50.1878 15.5778 49.6278 16.3298C49.0758 17.0818 48.2798 17.4578 47.2398 17.4578ZM45.1158 13.1018C45.1158 14.1818 45.2998 15.0138 45.6678 15.5978C46.0358 16.1818 46.5598 16.4738 47.2398 16.4738C47.9118 16.4738 48.4278 16.1818 48.7878 15.5978C49.1558 15.0058 49.3398 14.1738 49.3398 13.1018C49.3398 12.0698 49.1598 11.2618 48.7998 10.6778C48.4398 10.0938 47.9278 9.80183 47.2638 9.80183C46.5758 9.80183 46.0438 10.0898 45.6678 10.6658C45.2998 11.2338 45.1158 12.0458 45.1158 13.1018ZM50.9548 18.2738C51.2428 18.1858 51.4548 18.0618 51.5908 17.9018C51.7348 17.7418 51.7948 17.5858 51.7708 17.4338C51.3548 17.3538 51.1468 17.1178 51.1468 16.7258C51.1468 16.5018 51.2068 16.3258 51.3268 16.1978C51.4548 16.0698 51.6308 16.0058 51.8548 16.0058C52.0868 16.0058 52.2668 16.0778 52.3948 16.2218C52.5228 16.3578 52.5868 16.5658 52.5868 16.8458C52.5868 17.2858 52.4788 17.6818 52.2628 18.0338C52.0468 18.3858 51.6588 18.6178 51.0988 18.7298L50.9548 18.2738ZM56.439 17.4578C55.399 17.4578 54.595 17.0818 54.027 16.3298C53.467 15.5778 53.187 14.5018 53.187 13.1018C53.187 11.7258 53.467 10.6698 54.027 9.93383C54.595 9.18983 55.399 8.81783 56.439 8.81783C57.479 8.81783 58.275 9.18983 58.827 9.93383C59.387 10.6698 59.667 11.7258 59.667 13.1018C59.667 14.5018 59.387 15.5778 58.827 16.3298C58.275 17.0818 57.479 17.4578 56.439 17.4578ZM54.315 13.1018C54.315 14.1818 54.499 15.0138 54.867 15.5978C55.235 16.1818 55.759 16.4738 56.439 16.4738C57.111 16.4738 57.627 16.1818 57.987 15.5978C58.355 15.0058 58.539 14.1738 58.539 13.1018C58.539 12.0698 58.359 11.2618 57.999 10.6778C57.639 10.0938 57.127 9.80183 56.463 9.80183C55.775 9.80183 55.243 10.0898 54.867 10.6658C54.499 11.2338 54.315 12.0458 54.315 13.1018ZM63.8804 17.4578C62.8404 17.4578 62.0364 17.0818 61.4684 16.3298C60.9084 15.5778 60.6284 14.5018 60.6284 13.1018C60.6284 11.7258 60.9084 10.6698 61.4684 9.93383C62.0364 9.18983 62.8404 8.81783 63.8804 8.81783C64.9204 8.81783 65.7164 9.18983 66.2684 9.93383C66.8284 10.6698 67.1084 11.7258 67.1084 13.1018C67.1084 14.5018 66.8284 15.5778 66.2684 16.3298C65.7164 17.0818 64.9204 17.4578 63.8804 17.4578ZM61.7564 13.1018C61.7564 14.1818 61.9404 15.0138 62.3084 15.5978C62.6764 16.1818 63.2004 16.4738 63.8804 16.4738C64.5524 16.4738 65.0684 16.1818 65.4284 15.5978C65.7964 15.0058 65.9804 14.1738 65.9804 13.1018C65.9804 12.0698 65.8004 11.2618 65.4404 10.6778C65.0804 10.0938 64.5684 9.80183 63.9044 9.80183C63.2164 9.80183 62.6844 10.0898 62.3084 10.6658C61.9404 11.2338 61.7564 12.0458 61.7564 13.1018ZM71.3218 17.4578C70.2818 17.4578 69.4778 17.0818 68.9098 16.3298C68.3498 15.5778 68.0698 14.5018 68.0698 13.1018C68.0698 11.7258 68.3498 10.6698 68.9098 9.93383C69.4778 9.18983 70.2818 8.81783 71.3218 8.81783C72.3618 8.81783 73.1578 9.18983 73.7098 9.93383C74.2698 10.6698 74.5498 11.7258 74.5498 13.1018C74.5498 14.5018 74.2698 15.5778 73.7098 16.3298C73.1578 17.0818 72.3618 17.4578 71.3218 17.4578ZM69.1978 13.1018C69.1978 14.1818 69.3818 15.0138 69.7498 15.5978C70.1178 16.1818 70.6418 16.4738 71.3218 16.4738C71.9938 16.4738 72.5098 16.1818 72.8698 15.5978C73.2378 15.0058 73.4218 14.1738 73.4218 13.1018C73.4218 12.0698 73.2418 11.2618 72.8818 10.6778C72.5218 10.0938 72.0098 9.80183 71.3458 9.80183C70.6578 9.80183 70.1258 10.0898 69.7498 10.6658C69.3818 11.2338 69.1978 12.0458 69.1978 13.1018ZM75.0369 18.2738C75.3249 18.1858 75.5369 18.0618 75.6729 17.9018C75.8169 17.7418 75.8769 17.5858 75.8529 17.4338C75.4369 17.3538 75.2289 17.1178 75.2289 16.7258C75.2289 16.5018 75.2889 16.3258 75.4089 16.1978C75.5369 16.0698 75.7129 16.0058 75.9369 16.0058C76.1689 16.0058 76.3489 16.0778 76.4769 16.2218C76.6049 16.3578 76.6689 16.5658 76.6689 16.8458C76.6689 17.2858 76.5609 17.6818 76.3449 18.0338C76.1289 18.3858 75.7409 18.6178 75.1809 18.7298L75.0369 18.2738ZM80.5211 17.4578C79.4811 17.4578 78.6771 17.0818 78.1091 16.3298C77.5491 15.5778 77.2691 14.5018 77.2691 13.1018C77.2691 11.7258 77.5491 10.6698 78.1091 9.93383C78.6771 9.18983 79.4811 8.81783 80.5211 8.81783C81.5611 8.81783 82.3571 9.18983 82.9091 9.93383C83.4691 10.6698 83.7491 11.7258 83.7491 13.1018C83.7491 14.5018 83.4691 15.5778 82.9091 16.3298C82.3571 17.0818 81.5611 17.4578 80.5211 17.4578ZM78.3971 13.1018C78.3971 14.1818 78.5811 15.0138 78.9491 15.5978C79.3171 16.1818 79.8411 16.4738 80.5211 16.4738C81.1931 16.4738 81.7091 16.1818 82.0691 15.5978C82.4371 15.0058 82.6211 14.1738 82.6211 13.1018C82.6211 12.0698 82.4411 11.2618 82.0811 10.6778C81.7211 10.0938 81.2091 9.80183 80.5451 9.80183C79.8571 9.80183 79.3251 10.0898 78.9491 10.6658C78.5811 11.2338 78.3971 12.0458 78.3971 13.1018ZM87.9625 17.4578C86.9225 17.4578 86.1185 17.0818 85.5505 16.3298C84.9905 15.5778 84.7105 14.5018 84.7105 13.1018C84.7105 11.7258 84.9905 10.6698 85.5505 9.93383C86.1185 9.18983 86.9225 8.81783 87.9625 8.81783C89.0025 8.81783 89.7985 9.18983 90.3505 9.93383C90.9105 10.6698 91.1905 11.7258 91.1905 13.1018C91.1905 14.5018 90.9105 15.5778 90.3505 16.3298C89.7985 17.0818 89.0025 17.4578 87.9625 17.4578ZM85.8385 13.1018C85.8385 14.1818 86.0225 15.0138 86.3905 15.5978C86.7585 16.1818 87.2825 16.4738 87.9625 16.4738C88.6345 16.4738 89.1505 16.1818 89.5105 15.5978C89.8785 15.0058 90.0625 14.1738 90.0625 13.1018C90.0625 12.0698 89.8825 11.2618 89.5225 10.6778C89.1625 10.0938 88.6505 9.80183 87.9865 9.80183C87.2985 9.80183 86.7665 10.0898 86.3905 10.6658C86.0225 11.2338 85.8385 12.0458 85.8385 13.1018ZM95.4039 17.4578C94.3639 17.4578 93.5599 17.0818 92.9919 16.3298C92.4319 15.5778 92.1519 14.5018 92.1519 13.1018C92.1519 11.7258 92.4319 10.6698 92.9919 9.93383C93.5599 9.18983 94.3639 8.81783 95.4039 8.81783C96.4439 8.81783 97.2399 9.18983 97.7919 9.93383C98.3519 10.6698 98.6319 11.7258 98.6319 13.1018C98.6319 14.5018 98.3519 15.5778 97.7919 16.3298C97.2399 17.0818 96.4439 17.4578 95.4039 17.4578ZM93.2799 13.1018C93.2799 14.1818 93.4639 15.0138 93.8319 15.5978C94.1999 16.1818 94.7239 16.4738 95.4039 16.4738C96.0759 16.4738 96.5919 16.1818 96.9519 15.5978C97.3199 15.0058 97.5039 14.1738 97.5039 13.1018C97.5039 12.0698 97.3239 11.2618 96.9639 10.6778C96.6039 10.0938 96.0919 9.80183 95.4279 9.80183C94.7399 9.80183 94.2079 10.0898 93.8319 10.6658C93.4639 11.2338 93.2799 12.0458 93.2799 13.1018Z" fill="#3D3D3D"/>
<path d="M5.708 80.4818V81.4298C6.348 81.5258 6.856 81.7658 7.232 82.1498C7.608 82.5258 7.844 83.0058 7.94 83.5898L6.98 83.8538C6.94 83.4938 6.808 83.1858 6.584 82.9298C6.368 82.6658 6.076 82.4858 5.708 82.3898V84.8018C6.556 85.0098 7.16 85.2978 7.52 85.6658C7.888 86.0338 8.072 86.4978 8.072 87.0578C8.072 87.7138 7.856 88.2218 7.424 88.5818C7 88.9418 6.428 89.1498 5.708 89.2058V90.1178H4.868V89.1938C4.156 89.1298 3.584 88.9018 3.152 88.5098C2.728 88.1098 2.464 87.5738 2.36 86.9018L3.284 86.6378C3.396 87.1178 3.568 87.4938 3.8 87.7658C4.04 88.0298 4.396 88.1938 4.868 88.2578V85.6658C4.1 85.4738 3.548 85.2018 3.212 84.8498C2.884 84.4898 2.72 84.0298 2.72 83.4698C2.72 82.8458 2.912 82.3578 3.296 82.0058C3.688 81.6458 4.212 81.4458 4.868 81.4058V80.4818H5.708ZM3.764 83.5058C3.764 83.7698 3.844 83.9858 4.004 84.1538C4.172 84.3138 4.46 84.4578 4.868 84.5858V82.3298C4.54 82.3778 4.272 82.5058 4.064 82.7138C3.864 82.9138 3.764 83.1778 3.764 83.5058ZM5.708 88.2578C6.14 88.2098 6.468 88.0818 6.692 87.8738C6.916 87.6658 7.028 87.3978 7.028 87.0698C7.028 86.8058 6.924 86.5778 6.716 86.3858C6.508 86.1858 6.172 86.0178 5.708 85.8818V88.2578ZM10.0508 85.2338L10.0148 82.5458C9.79878 82.8498 9.37078 83.0018 8.73078 83.0018V82.0178C9.13878 81.9938 9.49478 81.8938 9.79878 81.7178C10.1108 81.5418 10.2788 81.2898 10.3028 80.9618H11.1428L11.1068 85.2338L11.1428 89.2778H10.0148L10.0508 85.2338ZM15.7164 89.4578C14.6764 89.4578 13.8724 89.0818 13.3044 88.3298C12.7444 87.5778 12.4644 86.5018 12.4644 85.1018C12.4644 83.7258 12.7444 82.6698 13.3044 81.9338C13.8724 81.1898 14.6764 80.8178 15.7164 80.8178C16.7564 80.8178 17.5524 81.1898 18.1044 81.9338C18.6644 82.6698 18.9444 83.7258 18.9444 85.1018C18.9444 86.5018 18.6644 87.5778 18.1044 88.3298C17.5524 89.0818 16.7564 89.4578 15.7164 89.4578ZM13.5924 85.1018C13.5924 86.1818 13.7764 87.0138 14.1444 87.5978C14.5124 88.1818 15.0364 88.4738 15.7164 88.4738C16.3884 88.4738 16.9044 88.1818 17.2644 87.5978C17.6324 87.0058 17.8164 86.1738 17.8164 85.1018C17.8164 84.0698 17.6364 83.2618 17.2764 82.6778C16.9164 82.0938 16.4044 81.8018 15.7404 81.8018C15.0524 81.8018 14.5204 82.0898 14.1444 82.6658C13.7764 83.2338 13.5924 84.0458 13.5924 85.1018ZM19.4314 90.2738C19.7194 90.1858 19.9314 90.0618 20.0674 89.9018C20.2114 89.7418 20.2714 89.5858 20.2474 89.4338C19.8314 89.3538 19.6234 89.1178 19.6234 88.7258C19.6234 88.5018 19.6834 88.3258 19.8034 88.1978C19.9314 88.0698 20.1074 88.0058 20.3314 88.0058C20.5634 88.0058 20.7434 88.0778 20.8714 88.2218C20.9994 88.3578 21.0634 88.5658 21.0634 88.8458C21.0634 89.2858 20.9554 89.6818 20.7394 90.0338C20.5234 90.3858 20.1354 90.6178 19.5754 90.7298L19.4314 90.2738ZM24.9156 89.4578C23.8756 89.4578 23.0716 89.0818 22.5036 88.3298C21.9436 87.5778 21.6636 86.5018 21.6636 85.1018C21.6636 83.7258 21.9436 82.6698 22.5036 81.9338C23.0716 81.1898 23.8756 80.8178 24.9156 80.8178C25.9556 80.8178 26.7516 81.1898 27.3036 81.9338C27.8636 82.6698 28.1436 83.7258 28.1436 85.1018C28.1436 86.5018 27.8636 87.5778 27.3036 88.3298C26.7516 89.0818 25.9556 89.4578 24.9156 89.4578ZM22.7916 85.1018C22.7916 86.1818 22.9756 87.0138 23.3436 87.5978C23.7116 88.1818 24.2356 88.4738 24.9156 88.4738C25.5876 88.4738 26.1036 88.1818 26.4636 87.5978C26.8316 87.0058 27.0156 86.1738 27.0156 85.1018C27.0156 84.0698 26.8356 83.2618 26.4756 82.6778C26.1156 82.0938 25.6036 81.8018 24.9396 81.8018C24.2516 81.8018 23.7196 82.0898 23.3436 82.6658C22.9756 83.2338 22.7916 84.0458 22.7916 85.1018ZM32.357 89.4578C31.317 89.4578 30.513 89.0818 29.945 88.3298C29.385 87.5778 29.105 86.5018 29.105 85.1018C29.105 83.7258 29.385 82.6698 29.945 81.9338C30.513 81.1898 31.317 80.8178 32.357 80.8178C33.397 80.8178 34.193 81.1898 34.745 81.9338C35.305 82.6698 35.585 83.7258 35.585 85.1018C35.585 86.5018 35.305 87.5778 34.745 88.3298C34.193 89.0818 33.397 89.4578 32.357 89.4578ZM30.233 85.1018C30.233 86.1818 30.417 87.0138 30.785 87.5978C31.153 88.1818 31.677 88.4738 32.357 88.4738C33.029 88.4738 33.545 88.1818 33.905 87.5978C34.273 87.0058 34.457 86.1738 34.457 85.1018C34.457 84.0698 34.277 83.2618 33.917 82.6778C33.557 82.0938 33.045 81.8018 32.381 81.8018C31.693 81.8018 31.161 82.0898 30.785 82.6658C30.417 83.2338 30.233 84.0458 30.233 85.1018ZM39.7984 89.4578C38.7584 89.4578 37.9544 89.0818 37.3864 88.3298C36.8264 87.5778 36.5464 86.5018 36.5464 85.1018C36.5464 83.7258 36.8264 82.6698 37.3864 81.9338C37.9544 81.1898 38.7584 80.8178 39.7984 80.8178C40.8384 80.8178 41.6344 81.1898 42.1864 81.9338C42.7464 82.6698 43.0264 83.7258 43.0264 85.1018C43.0264 86.5018 42.7464 87.5778 42.1864 88.3298C41.6344 89.0818 40.8384 89.4578 39.7984 89.4578ZM37.6744 85.1018C37.6744 86.1818 37.8584 87.0138 38.2264 87.5978C38.5944 88.1818 39.1184 88.4738 39.7984 88.4738C40.4704 88.4738 40.9864 88.1818 41.3464 87.5978C41.7144 87.0058 41.8984 86.1738 41.8984 85.1018C41.8984 84.0698 41.7184 83.2618 41.3584 82.6778C40.9984 82.0938 40.4864 81.8018 39.8224 81.8018C39.1344 81.8018 38.6024 82.0898 38.2264 82.6658C37.8584 83.2338 37.6744 84.0458 37.6744 85.1018ZM43.5134 90.2738C43.8014 90.1858 44.0134 90.0618 44.1494 89.9018C44.2934 89.7418 44.3534 89.5858 44.3294 89.4338C43.9134 89.3538 43.7054 89.1178 43.7054 88.7258C43.7054 88.5018 43.7654 88.3258 43.8854 88.1978C44.0134 88.0698 44.1894 88.0058 44.4134 88.0058C44.6454 88.0058 44.8254 88.0778 44.9534 88.2218C45.0814 88.3578 45.1454 88.5658 45.1454 88.8458C45.1454 89.2858 45.0374 89.6818 44.8214 90.0338C44.6054 90.3858 44.2174 90.6178 43.6574 90.7298L43.5134 90.2738ZM48.9976 89.4578C47.9576 89.4578 47.1536 89.0818 46.5856 88.3298C46.0256 87.5778 45.7456 86.5018 45.7456 85.1018C45.7456 83.7258 46.0256 82.6698 46.5856 81.9338C47.1536 81.1898 47.9576 80.8178 48.9976 80.8178C50.0376 80.8178 50.8336 81.1898 51.3856 81.9338C51.9456 82.6698 52.2256 83.7258 52.2256 85.1018C52.2256 86.5018 51.9456 87.5778 51.3856 88.3298C50.8336 89.0818 50.0376 89.4578 48.9976 89.4578ZM46.8736 85.1018C46.8736 86.1818 47.0576 87.0138 47.4256 87.5978C47.7936 88.1818 48.3176 88.4738 48.9976 88.4738C49.6696 88.4738 50.1856 88.1818 50.5456 87.5978C50.9136 87.0058 51.0976 86.1738 51.0976 85.1018C51.0976 84.0698 50.9176 83.2618 50.5576 82.6778C50.1976 82.0938 49.6856 81.8018 49.0216 81.8018C48.3336 81.8018 47.8016 82.0898 47.4256 82.6658C47.0576 83.2338 46.8736 84.0458 46.8736 85.1018ZM56.439 89.4578C55.399 89.4578 54.595 89.0818 54.027 88.3298C53.467 87.5778 53.187 86.5018 53.187 85.1018C53.187 83.7258 53.467 82.6698 54.027 81.9338C54.595 81.1898 55.399 80.8178 56.439 80.8178C57.479 80.8178 58.275 81.1898 58.827 81.9338C59.387 82.6698 59.667 83.7258 59.667 85.1018C59.667 86.5018 59.387 87.5778 58.827 88.3298C58.275 89.0818 57.479 89.4578 56.439 89.4578ZM54.315 85.1018C54.315 86.1818 54.499 87.0138 54.867 87.5978C55.235 88.1818 55.759 88.4738 56.439 88.4738C57.111 88.4738 57.627 88.1818 57.987 87.5978C58.355 87.0058 58.539 86.1738 58.539 85.1018C58.539 84.0698 58.359 83.2618 57.999 82.6778C57.639 82.0938 57.127 81.8018 56.463 81.8018C55.775 81.8018 55.243 82.0898 54.867 82.6658C54.499 83.2338 54.315 84.0458 54.315 85.1018ZM63.8804 89.4578C62.8404 89.4578 62.0364 89.0818 61.4684 88.3298C60.9084 87.5778 60.6284 86.5018 60.6284 85.1018C60.6284 83.7258 60.9084 82.6698 61.4684 81.9338C62.0364 81.1898 62.8404 80.8178 63.8804 80.8178C64.9204 80.8178 65.7164 81.1898 66.2684 81.9338C66.8284 82.6698 67.1084 83.7258 67.1084 85.1018C67.1084 86.5018 66.8284 87.5778 66.2684 88.3298C65.7164 89.0818 64.9204 89.4578 63.8804 89.4578ZM61.7564 85.1018C61.7564 86.1818 61.9404 87.0138 62.3084 87.5978C62.6764 88.1818 63.2004 88.4738 63.8804 88.4738C64.5524 88.4738 65.0684 88.1818 65.4284 87.5978C65.7964 87.0058 65.9804 86.1738 65.9804 85.1018C65.9804 84.0698 65.8004 83.2618 65.4404 82.6778C65.0804 82.0938 64.5684 81.8018 63.9044 81.8018C63.2164 81.8018 62.6844 82.0898 62.3084 82.6658C61.9404 83.2338 61.7564 84.0458 61.7564 85.1018ZM67.5955 90.2738C67.8835 90.1858 68.0955 90.0618 68.2315 89.9018C68.3755 89.7418 68.4355 89.5858 68.4115 89.4338C67.9955 89.3538 67.7875 89.1178 67.7875 88.7258C67.7875 88.5018 67.8475 88.3258 67.9675 88.1978C68.0955 88.0698 68.2715 88.0058 68.4955 88.0058C68.7275 88.0058 68.9075 88.0778 69.0355 88.2218C69.1635 88.3578 69.2275 88.5658 69.2275 88.8458C69.2275 89.2858 69.1195 89.6818 68.9035 90.0338C68.6875 90.3858 68.2995 90.6178 67.7395 90.7298L67.5955 90.2738ZM73.0797 89.4578C72.0397 89.4578 71.2357 89.0818 70.6677 88.3298C70.1077 87.5778 69.8277 86.5018 69.8277 85.1018C69.8277 83.7258 70.1077 82.6698 70.6677 81.9338C71.2357 81.1898 72.0397 80.8178 73.0797 80.8178C74.1197 80.8178 74.9157 81.1898 75.4677 81.9338C76.0277 82.6698 76.3077 83.7258 76.3077 85.1018C76.3077 86.5018 76.0277 87.5778 75.4677 88.3298C74.9157 89.0818 74.1197 89.4578 73.0797 89.4578ZM70.9557 85.1018C70.9557 86.1818 71.1397 87.0138 71.5077 87.5978C71.8757 88.1818 72.3997 88.4738 73.0797 88.4738C73.7517 88.4738 74.2677 88.1818 74.6277 87.5978C74.9957 87.0058 75.1797 86.1738 75.1797 85.1018C75.1797 84.0698 74.9997 83.2618 74.6397 82.6778C74.2797 82.0938 73.7677 81.8018 73.1037 81.8018C72.4157 81.8018 71.8837 82.0898 71.5077 82.6658C71.1397 83.2338 70.9557 84.0458 70.9557 85.1018ZM80.5211 89.4578C79.4811 89.4578 78.6771 89.0818 78.1091 88.3298C77.5491 87.5778 77.2691 86.5018 77.2691 85.1018C77.2691 83.7258 77.5491 82.6698 78.1091 81.9338C78.6771 81.1898 79.4811 80.8178 80.5211 80.8178C81.5611 80.8178 82.3571 81.1898 82.9091 81.9338C83.4691 82.6698 83.7491 83.7258 83.7491 85.1018C83.7491 86.5018 83.4691 87.5778 82.9091 88.3298C82.3571 89.0818 81.5611 89.4578 80.5211 89.4578ZM78.3971 85.1018C78.3971 86.1818 78.5811 87.0138 78.9491 87.5978C79.3171 88.1818 79.8411 88.4738 80.5211 88.4738C81.1931 88.4738 81.7091 88.1818 82.0691 87.5978C82.4371 87.0058 82.6211 86.1738 82.6211 85.1018C82.6211 84.0698 82.4411 83.2618 82.0811 82.6778C81.7211 82.0938 81.2091 81.8018 80.5451 81.8018C79.8571 81.8018 79.3251 82.0898 78.9491 82.6658C78.5811 83.2338 78.3971 84.0458 78.3971 85.1018ZM87.9625 89.4578C86.9225 89.4578 86.1185 89.0818 85.5505 88.3298C84.9905 87.5778 84.7105 86.5018 84.7105 85.1018C84.7105 83.7258 84.9905 82.6698 85.5505 81.9338C86.1185 81.1898 86.9225 80.8178 87.9625 80.8178C89.0025 80.8178 89.7985 81.1898 90.3505 81.9338C90.9105 82.6698 91.1905 83.7258 91.1905 85.1018C91.1905 86.5018 90.9105 87.5778 90.3505 88.3298C89.7985 89.0818 89.0025 89.4578 87.9625 89.4578ZM85.8385 85.1018C85.8385 86.1818 86.0225 87.0138 86.3905 87.5978C86.7585 88.1818 87.2825 88.4738 87.9625 88.4738C88.6345 88.4738 89.1505 88.1818 89.5105 87.5978C89.8785 87.0058 90.0625 86.1738 90.0625 85.1018C90.0625 84.0698 89.8825 83.2618 89.5225 82.6778C89.1625 82.0938 88.6505 81.8018 87.9865 81.8018C87.2985 81.8018 86.7665 82.0898 86.3905 82.6658C86.0225 83.2338 85.8385 84.0458 85.8385 85.1018Z" fill="#3D3D3D"/>
<path d="M5.708 152.482V153.43C6.348 153.526 6.856 153.766 7.232 154.15C7.608 154.526 7.844 155.006 7.94 155.59L6.98 155.854C6.94 155.494 6.808 155.186 6.584 154.93C6.368 154.666 6.076 154.486 5.708 154.39V156.802C6.556 157.01 7.16 157.298 7.52 157.666C7.888 158.034 8.072 158.498 8.072 159.058C8.072 159.714 7.856 160.222 7.424 160.582C7 160.942 6.428 161.15 5.708 161.206V162.118H4.868V161.194C4.156 161.13 3.584 160.902 3.152 160.51C2.728 160.11 2.464 159.574 2.36 158.902L3.284 158.638C3.396 159.118 3.568 159.494 3.8 159.766C4.04 160.03 4.396 160.194 4.868 160.258V157.666C4.1 157.474 3.548 157.202 3.212 156.85C2.884 156.49 2.72 156.03 2.72 155.47C2.72 154.846 2.912 154.358 3.296 154.006C3.688 153.646 4.212 153.446 4.868 153.406V152.482H5.708ZM3.764 155.506C3.764 155.77 3.844 155.986 4.004 156.154C4.172 156.314 4.46 156.458 4.868 156.586V154.33C4.54 154.378 4.272 154.506 4.064 154.714C3.864 154.914 3.764 155.178 3.764 155.506ZM5.708 160.258C6.14 160.21 6.468 160.082 6.692 159.874C6.916 159.666 7.028 159.398 7.028 159.07C7.028 158.806 6.924 158.578 6.716 158.386C6.508 158.186 6.172 158.018 5.708 157.882V160.258ZM10.0508 157.234L10.0148 154.546C9.79878 154.85 9.37078 155.002 8.73078 155.002V154.018C9.13878 153.994 9.49478 153.894 9.79878 153.718C10.1108 153.542 10.2788 153.29 10.3028 152.962H11.1428L11.1068 157.234L11.1428 161.278H10.0148L10.0508 157.234ZM12.2244 162.274C12.5124 162.186 12.7244 162.062 12.8604 161.902C13.0044 161.742 13.0644 161.586 13.0404 161.434C12.6244 161.354 12.4164 161.118 12.4164 160.726C12.4164 160.502 12.4764 160.326 12.5964 160.198C12.7244 160.07 12.9004 160.006 13.1244 160.006C13.3564 160.006 13.5364 160.078 13.6644 160.222C13.7924 160.358 13.8564 160.566 13.8564 160.846C13.8564 161.286 13.7484 161.682 13.5324 162.034C13.3164 162.386 12.9284 162.618 12.3684 162.73L12.2244 162.274ZM17.7086 161.458C16.6686 161.458 15.8646 161.082 15.2966 160.33C14.7366 159.578 14.4566 158.502 14.4566 157.102C14.4566 155.726 14.7366 154.67 15.2966 153.934C15.8646 153.19 16.6686 152.818 17.7086 152.818C18.7486 152.818 19.5446 153.19 20.0966 153.934C20.6566 154.67 20.9366 155.726 20.9366 157.102C20.9366 158.502 20.6566 159.578 20.0966 160.33C19.5446 161.082 18.7486 161.458 17.7086 161.458ZM15.5846 157.102C15.5846 158.182 15.7686 159.014 16.1366 159.598C16.5046 160.182 17.0286 160.474 17.7086 160.474C18.3806 160.474 18.8966 160.182 19.2566 159.598C19.6246 159.006 19.8086 158.174 19.8086 157.102C19.8086 156.07 19.6286 155.262 19.2686 154.678C18.9086 154.094 18.3966 153.802 17.7326 153.802C17.0446 153.802 16.5126 154.09 16.1366 154.666C15.7686 155.234 15.5846 156.046 15.5846 157.102ZM25.15 161.458C24.11 161.458 23.306 161.082 22.738 160.33C22.178 159.578 21.898 158.502 21.898 157.102C21.898 155.726 22.178 154.67 22.738 153.934C23.306 153.19 24.11 152.818 25.15 152.818C26.19 152.818 26.986 153.19 27.538 153.934C28.098 154.67 28.378 155.726 28.378 157.102C28.378 158.502 28.098 159.578 27.538 160.33C26.986 161.082 26.19 161.458 25.15 161.458ZM23.026 157.102C23.026 158.182 23.21 159.014 23.578 159.598C23.946 160.182 24.47 160.474 25.15 160.474C25.822 160.474 26.338 160.182 26.698 159.598C27.066 159.006 27.25 158.174 27.25 157.102C27.25 156.07 27.07 155.262 26.71 154.678C26.35 154.094 25.838 153.802 25.174 153.802C24.486 153.802 23.954 154.09 23.578 154.666C23.21 155.234 23.026 156.046 23.026 157.102ZM32.5914 161.458C31.5514 161.458 30.7474 161.082 30.1794 160.33C29.6194 159.578 29.3394 158.502 29.3394 157.102C29.3394 155.726 29.6194 154.67 30.1794 153.934C30.7474 153.19 31.5514 152.818 32.5914 152.818C33.6314 152.818 34.4274 153.19 34.9794 153.934C35.5394 154.67 35.8194 155.726 35.8194 157.102C35.8194 158.502 35.5394 159.578 34.9794 160.33C34.4274 161.082 33.6314 161.458 32.5914 161.458ZM30.4674 157.102C30.4674 158.182 30.6514 159.014 31.0194 159.598C31.3874 160.182 31.9114 160.474 32.5914 160.474C33.2634 160.474 33.7794 160.182 34.1394 159.598C34.5074 159.006 34.6914 158.174 34.6914 157.102C34.6914 156.07 34.5114 155.262 34.1514 154.678C33.7914 154.094 33.2794 153.802 32.6154 153.802C31.9274 153.802 31.3954 154.09 31.0194 154.666C30.6514 155.234 30.4674 156.046 30.4674 157.102ZM36.3064 162.274C36.5944 162.186 36.8064 162.062 36.9424 161.902C37.0864 161.742 37.1464 161.586 37.1224 161.434C36.7064 161.354 36.4984 161.118 36.4984 160.726C36.4984 160.502 36.5584 160.326 36.6784 160.198C36.8064 160.07 36.9824 160.006 37.2064 160.006C37.4384 160.006 37.6184 160.078 37.7464 160.222C37.8744 160.358 37.9384 160.566 37.9384 160.846C37.9384 161.286 37.8304 161.682 37.6144 162.034C37.3984 162.386 37.0104 162.618 36.4504 162.73L36.3064 162.274ZM41.7906 161.458C40.7506 161.458 39.9466 161.082 39.3786 160.33C38.8186 159.578 38.5386 158.502 38.5386 157.102C38.5386 155.726 38.8186 154.67 39.3786 153.934C39.9466 153.19 40.7506 152.818 41.7906 152.818C42.8306 152.818 43.6266 153.19 44.1786 153.934C44.7386 154.67 45.0186 155.726 45.0186 157.102C45.0186 158.502 44.7386 159.578 44.1786 160.33C43.6266 161.082 42.8306 161.458 41.7906 161.458ZM39.6666 157.102C39.6666 158.182 39.8506 159.014 40.2186 159.598C40.5866 160.182 41.1106 160.474 41.7906 160.474C42.4626 160.474 42.9786 160.182 43.3386 159.598C43.7066 159.006 43.8906 158.174 43.8906 157.102C43.8906 156.07 43.7106 155.262 43.3506 154.678C42.9906 154.094 42.4786 153.802 41.8146 153.802C41.1266 153.802 40.5946 154.09 40.2186 154.666C39.8506 155.234 39.6666 156.046 39.6666 157.102ZM49.232 161.458C48.192 161.458 47.388 161.082 46.82 160.33C46.26 159.578 45.98 158.502 45.98 157.102C45.98 155.726 46.26 154.67 46.82 153.934C47.388 153.19 48.192 152.818 49.232 152.818C50.272 152.818 51.068 153.19 51.62 153.934C52.18 154.67 52.46 155.726 52.46 157.102C52.46 158.502 52.18 159.578 51.62 160.33C51.068 161.082 50.272 161.458 49.232 161.458ZM47.108 157.102C47.108 158.182 47.292 159.014 47.66 159.598C48.028 160.182 48.552 160.474 49.232 160.474C49.904 160.474 50.42 160.182 50.78 159.598C51.148 159.006 51.332 158.174 51.332 157.102C51.332 156.07 51.152 155.262 50.792 154.678C50.432 154.094 49.92 153.802 49.256 153.802C48.568 153.802 48.036 154.09 47.66 154.666C47.292 155.234 47.108 156.046 47.108 157.102ZM56.6734 161.458C55.6334 161.458 54.8294 161.082 54.2614 160.33C53.7014 159.578 53.4214 158.502 53.4214 157.102C53.4214 155.726 53.7014 154.67 54.2614 153.934C54.8294 153.19 55.6334 152.818 56.6734 152.818C57.7134 152.818 58.5094 153.19 59.0614 153.934C59.6214 154.67 59.9014 155.726 59.9014 157.102C59.9014 158.502 59.6214 159.578 59.0614 160.33C58.5094 161.082 57.7134 161.458 56.6734 161.458ZM54.5494 157.102C54.5494 158.182 54.7334 159.014 55.1014 159.598C55.4694 160.182 55.9934 160.474 56.6734 160.474C57.3454 160.474 57.8614 160.182 58.2214 159.598C58.5894 159.006 58.7734 158.174 58.7734 157.102C58.7734 156.07 58.5934 155.262 58.2334 154.678C57.8734 154.094 57.3614 153.802 56.6974 153.802C56.0094 153.802 55.4774 154.09 55.1014 154.666C54.7334 155.234 54.5494 156.046 54.5494 157.102ZM60.3884 162.274C60.6764 162.186 60.8884 162.062 61.0244 161.902C61.1684 161.742 61.2284 161.586 61.2044 161.434C60.7884 161.354 60.5804 161.118 60.5804 160.726C60.5804 160.502 60.6404 160.326 60.7604 160.198C60.8884 160.07 61.0644 160.006 61.2884 160.006C61.5204 160.006 61.7004 160.078 61.8284 160.222C61.9564 160.358 62.0204 160.566 62.0204 160.846C62.0204 161.286 61.9124 161.682 61.6964 162.034C61.4804 162.386 61.0924 162.618 60.5324 162.73L60.3884 162.274ZM65.8726 161.458C64.8326 161.458 64.0286 161.082 63.4606 160.33C62.9006 159.578 62.6206 158.502 62.6206 157.102C62.6206 155.726 62.9006 154.67 63.4606 153.934C64.0286 153.19 64.8326 152.818 65.8726 152.818C66.9126 152.818 67.7086 153.19 68.2606 153.934C68.8206 154.67 69.1006 155.726 69.1006 157.102C69.1006 158.502 68.8206 159.578 68.2606 160.33C67.7086 161.082 66.9126 161.458 65.8726 161.458ZM63.7486 157.102C63.7486 158.182 63.9326 159.014 64.3006 159.598C64.6686 160.182 65.1926 160.474 65.8726 160.474C66.5446 160.474 67.0606 160.182 67.4206 159.598C67.7886 159.006 67.9726 158.174 67.9726 157.102C67.9726 156.07 67.7926 155.262 67.4326 154.678C67.0726 154.094 66.5606 153.802 65.8966 153.802C65.2086 153.802 64.6766 154.09 64.3006 154.666C63.9326 155.234 63.7486 156.046 63.7486 157.102ZM73.314 161.458C72.274 161.458 71.47 161.082 70.902 160.33C70.342 159.578 70.062 158.502 70.062 157.102C70.062 155.726 70.342 154.67 70.902 153.934C71.47 153.19 72.274 152.818 73.314 152.818C74.354 152.818 75.15 153.19 75.702 153.934C76.262 154.67 76.542 155.726 76.542 157.102C76.542 158.502 76.262 159.578 75.702 160.33C75.15 161.082 74.354 161.458 73.314 161.458ZM71.19 157.102C71.19 158.182 71.374 159.014 71.742 159.598C72.11 160.182 72.634 160.474 73.314 160.474C73.986 160.474 74.502 160.182 74.862 159.598C75.23 159.006 75.414 158.174 75.414 157.102C75.414 156.07 75.234 155.262 74.874 154.678C74.514 154.094 74.002 153.802 73.338 153.802C72.65 153.802 72.118 154.09 71.742 154.666C71.374 155.234 71.19 156.046 71.19 157.102ZM80.7554 161.458C79.7154 161.458 78.9114 161.082 78.3434 160.33C77.7834 159.578 77.5034 158.502 77.5034 157.102C77.5034 155.726 77.7834 154.67 78.3434 153.934C78.9114 153.19 79.7154 152.818 80.7554 152.818C81.7954 152.818 82.5914 153.19 83.1434 153.934C83.7034 154.67 83.9834 155.726 83.9834 157.102C83.9834 158.502 83.7034 159.578 83.1434 160.33C82.5914 161.082 81.7954 161.458 80.7554 161.458ZM78.6314 157.102C78.6314 158.182 78.8154 159.014 79.1834 159.598C79.5514 160.182 80.0754 160.474 80.7554 160.474C81.4274 160.474 81.9434 160.182 82.3034 159.598C82.6714 159.006 82.8554 158.174 82.8554 157.102C82.8554 156.07 82.6754 155.262 82.3154 154.678C81.9554 154.094 81.4434 153.802 80.7794 153.802C80.0914 153.802 79.5594 154.09 79.1834 154.666C78.8154 155.234 78.6314 156.046 78.6314 157.102Z" fill="#3D3D3D"/>
<path d="M5.708 227.482V228.43C6.348 228.526 6.856 228.766 7.232 229.15C7.608 229.526 7.844 230.006 7.94 230.59L6.98 230.854C6.94 230.494 6.808 230.186 6.584 229.93C6.368 229.666 6.076 229.486 5.708 229.39V231.802C6.556 232.01 7.16 232.298 7.52 232.666C7.888 233.034 8.072 233.498 8.072 234.058C8.072 234.714 7.856 235.222 7.424 235.582C7 235.942 6.428 236.15 5.708 236.206V237.118H4.868V236.194C4.156 236.13 3.584 235.902 3.152 235.51C2.728 235.11 2.464 234.574 2.36 233.902L3.284 233.638C3.396 234.118 3.568 234.494 3.8 234.766C4.04 235.03 4.396 235.194 4.868 235.258V232.666C4.1 232.474 3.548 232.202 3.212 231.85C2.884 231.49 2.72 231.03 2.72 230.47C2.72 229.846 2.912 229.358 3.296 229.006C3.688 228.646 4.212 228.446 4.868 228.406V227.482H5.708ZM3.764 230.506C3.764 230.77 3.844 230.986 4.004 231.154C4.172 231.314 4.46 231.458 4.868 231.586V229.33C4.54 229.378 4.272 229.506 4.064 229.714C3.864 229.914 3.764 230.178 3.764 230.506ZM5.708 235.258C6.14 235.21 6.468 235.082 6.692 234.874C6.916 234.666 7.028 234.398 7.028 234.07C7.028 233.806 6.924 233.578 6.716 233.386C6.508 233.186 6.172 233.018 5.708 232.882V235.258ZM10.0508 232.234L10.0148 229.546C9.79878 229.85 9.37078 230.002 8.73078 230.002V229.018C9.13878 228.994 9.49478 228.894 9.79878 228.718C10.1108 228.542 10.2788 228.29 10.3028 227.962H11.1428L11.1068 232.234L11.1428 236.278H10.0148L10.0508 232.234ZM15.7164 236.458C14.6764 236.458 13.8724 236.082 13.3044 235.33C12.7444 234.578 12.4644 233.502 12.4644 232.102C12.4644 230.726 12.7444 229.67 13.3044 228.934C13.8724 228.19 14.6764 227.818 15.7164 227.818C16.7564 227.818 17.5524 228.19 18.1044 228.934C18.6644 229.67 18.9444 230.726 18.9444 232.102C18.9444 233.502 18.6644 234.578 18.1044 235.33C17.5524 236.082 16.7564 236.458 15.7164 236.458ZM13.5924 232.102C13.5924 233.182 13.7764 234.014 14.1444 234.598C14.5124 235.182 15.0364 235.474 15.7164 235.474C16.3884 235.474 16.9044 235.182 17.2644 234.598C17.6324 234.006 17.8164 233.174 17.8164 232.102C17.8164 231.07 17.6364 230.262 17.2764 229.678C16.9164 229.094 16.4044 228.802 15.7404 228.802C15.0524 228.802 14.5204 229.09 14.1444 229.666C13.7764 230.234 13.5924 231.046 13.5924 232.102ZM23.1578 236.458C22.1178 236.458 21.3138 236.082 20.7458 235.33C20.1858 234.578 19.9058 233.502 19.9058 232.102C19.9058 230.726 20.1858 229.67 20.7458 228.934C21.3138 228.19 22.1178 227.818 23.1578 227.818C24.1978 227.818 24.9938 228.19 25.5458 228.934C26.1058 229.67 26.3858 230.726 26.3858 232.102C26.3858 233.502 26.1058 234.578 25.5458 235.33C24.9938 236.082 24.1978 236.458 23.1578 236.458ZM21.0338 232.102C21.0338 233.182 21.2178 234.014 21.5858 234.598C21.9538 235.182 22.4778 235.474 23.1578 235.474C23.8298 235.474 24.3458 235.182 24.7058 234.598C25.0738 234.006 25.2578 233.174 25.2578 232.102C25.2578 231.07 25.0778 230.262 24.7178 229.678C24.3578 229.094 23.8458 228.802 23.1818 228.802C22.4938 228.802 21.9618 229.09 21.5858 229.666C21.2178 230.234 21.0338 231.046 21.0338 232.102ZM26.8728 237.274C27.1608 237.186 27.3728 237.062 27.5088 236.902C27.6528 236.742 27.7128 236.586 27.6888 236.434C27.2728 236.354 27.0648 236.118 27.0648 235.726C27.0648 235.502 27.1248 235.326 27.2448 235.198C27.3728 235.07 27.5488 235.006 27.7728 235.006C28.0048 235.006 28.1848 235.078 28.3128 235.222C28.4408 235.358 28.5048 235.566 28.5048 235.846C28.5048 236.286 28.3968 236.682 28.1808 237.034C27.9648 237.386 27.5768 237.618 27.0168 237.73L26.8728 237.274ZM32.357 236.458C31.317 236.458 30.513 236.082 29.945 235.33C29.385 234.578 29.105 233.502 29.105 232.102C29.105 230.726 29.385 229.67 29.945 228.934C30.513 228.19 31.317 227.818 32.357 227.818C33.397 227.818 34.193 228.19 34.745 228.934C35.305 229.67 35.585 230.726 35.585 232.102C35.585 233.502 35.305 234.578 34.745 235.33C34.193 236.082 33.397 236.458 32.357 236.458ZM30.233 232.102C30.233 233.182 30.417 234.014 30.785 234.598C31.153 235.182 31.677 235.474 32.357 235.474C33.029 235.474 33.545 235.182 33.905 234.598C34.273 234.006 34.457 233.174 34.457 232.102C34.457 231.07 34.277 230.262 33.917 229.678C33.557 229.094 33.045 228.802 32.381 228.802C31.693 228.802 31.161 229.09 30.785 229.666C30.417 230.234 30.233 231.046 30.233 232.102ZM39.7984 236.458C38.7584 236.458 37.9544 236.082 37.3864 235.33C36.8264 234.578 36.5464 233.502 36.5464 232.102C36.5464 230.726 36.8264 229.67 37.3864 228.934C37.9544 228.19 38.7584 227.818 39.7984 227.818C40.8384 227.818 41.6344 228.19 42.1864 228.934C42.7464 229.67 43.0264 230.726 43.0264 232.102C43.0264 233.502 42.7464 234.578 42.1864 235.33C41.6344 236.082 40.8384 236.458 39.7984 236.458ZM37.6744 232.102C37.6744 233.182 37.8584 234.014 38.2264 234.598C38.5944 235.182 39.1184 235.474 39.7984 235.474C40.4704 235.474 40.9864 235.182 41.3464 234.598C41.7144 234.006 41.8984 233.174 41.8984 232.102C41.8984 231.07 41.7184 230.262 41.3584 229.678C40.9984 229.094 40.4864 228.802 39.8224 228.802C39.1344 228.802 38.6024 229.09 38.2264 229.666C37.8584 230.234 37.6744 231.046 37.6744 232.102ZM47.2398 236.458C46.1998 236.458 45.3958 236.082 44.8278 235.33C44.2678 234.578 43.9878 233.502 43.9878 232.102C43.9878 230.726 44.2678 229.67 44.8278 228.934C45.3958 228.19 46.1998 227.818 47.2398 227.818C48.2798 227.818 49.0758 228.19 49.6278 228.934C50.1878 229.67 50.4678 230.726 50.4678 232.102C50.4678 233.502 50.1878 234.578 49.6278 235.33C49.0758 236.082 48.2798 236.458 47.2398 236.458ZM45.1158 232.102C45.1158 233.182 45.2998 234.014 45.6678 234.598C46.0358 235.182 46.5598 235.474 47.2398 235.474C47.9118 235.474 48.4278 235.182 48.7878 234.598C49.1558 234.006 49.3398 233.174 49.3398 232.102C49.3398 231.07 49.1598 230.262 48.7998 229.678C48.4398 229.094 47.9278 228.802 47.2638 228.802C46.5758 228.802 46.0438 229.09 45.6678 229.666C45.2998 230.234 45.1158 231.046 45.1158 232.102ZM50.9548 237.274C51.2428 237.186 51.4548 237.062 51.5908 236.902C51.7348 236.742 51.7948 236.586 51.7708 236.434C51.3548 236.354 51.1468 236.118 51.1468 235.726C51.1468 235.502 51.2068 235.326 51.3268 235.198C51.4548 235.07 51.6308 235.006 51.8548 235.006C52.0868 235.006 52.2668 235.078 52.3948 235.222C52.5228 235.358 52.5868 235.566 52.5868 235.846C52.5868 236.286 52.4788 236.682 52.2628 237.034C52.0468 237.386 51.6588 237.618 51.0988 237.73L50.9548 237.274ZM56.439 236.458C55.399 236.458 54.595 236.082 54.027 235.33C53.467 234.578 53.187 233.502 53.187 232.102C53.187 230.726 53.467 229.67 54.027 228.934C54.595 228.19 55.399 227.818 56.439 227.818C57.479 227.818 58.275 228.19 58.827 228.934C59.387 229.67 59.667 230.726 59.667 232.102C59.667 233.502 59.387 234.578 58.827 235.33C58.275 236.082 57.479 236.458 56.439 236.458ZM54.315 232.102C54.315 233.182 54.499 234.014 54.867 234.598C55.235 235.182 55.759 235.474 56.439 235.474C57.111 235.474 57.627 235.182 57.987 234.598C58.355 234.006 58.539 233.174 58.539 232.102C58.539 231.07 58.359 230.262 57.999 229.678C57.639 229.094 57.127 228.802 56.463 228.802C55.775 228.802 55.243 229.09 54.867 229.666C54.499 230.234 54.315 231.046 54.315 232.102ZM63.8804 236.458C62.8404 236.458 62.0364 236.082 61.4684 235.33C60.9084 234.578 60.6284 233.502 60.6284 232.102C60.6284 230.726 60.9084 229.67 61.4684 228.934C62.0364 228.19 62.8404 227.818 63.8804 227.818C64.9204 227.818 65.7164 228.19 66.2684 228.934C66.8284 229.67 67.1084 230.726 67.1084 232.102C67.1084 233.502 66.8284 234.578 66.2684 235.33C65.7164 236.082 64.9204 236.458 63.8804 236.458ZM61.7564 232.102C61.7564 233.182 61.9404 234.014 62.3084 234.598C62.6764 235.182 63.2004 235.474 63.8804 235.474C64.5524 235.474 65.0684 235.182 65.4284 234.598C65.7964 234.006 65.9804 233.174 65.9804 232.102C65.9804 231.07 65.8004 230.262 65.4404 229.678C65.0804 229.094 64.5684 228.802 63.9044 228.802C63.2164 228.802 62.6844 229.09 62.3084 229.666C61.9404 230.234 61.7564 231.046 61.7564 232.102ZM71.3218 236.458C70.2818 236.458 69.4778 236.082 68.9098 235.33C68.3498 234.578 68.0698 233.502 68.0698 232.102C68.0698 230.726 68.3498 229.67 68.9098 228.934C69.4778 228.19 70.2818 227.818 71.3218 227.818C72.3618 227.818 73.1578 228.19 73.7098 228.934C74.2698 229.67 74.5498 230.726 74.5498 232.102C74.5498 233.502 74.2698 234.578 73.7098 235.33C73.1578 236.082 72.3618 236.458 71.3218 236.458ZM69.1978 232.102C69.1978 233.182 69.3818 234.014 69.7498 234.598C70.1178 235.182 70.6418 235.474 71.3218 235.474C71.9938 235.474 72.5098 235.182 72.8698 234.598C73.2378 234.006 73.4218 233.174 73.4218 232.102C73.4218 231.07 73.2418 230.262 72.8818 229.678C72.5218 229.094 72.0098 228.802 71.3458 228.802C70.6578 228.802 70.1258 229.09 69.7498 229.666C69.3818 230.234 69.1978 231.046 69.1978 232.102Z" fill="#3D3D3D"/>
<path d="M5.708 305.482V306.43C6.348 306.526 6.856 306.766 7.232 307.15C7.608 307.526 7.844 308.006 7.94 308.59L6.98 308.854C6.94 308.494 6.808 308.186 6.584 307.93C6.368 307.666 6.076 307.486 5.708 307.39V309.802C6.556 310.01 7.16 310.298 7.52 310.666C7.888 311.034 8.072 311.498 8.072 312.058C8.072 312.714 7.856 313.222 7.424 313.582C7 313.942 6.428 314.15 5.708 314.206V315.118H4.868V314.194C4.156 314.13 3.584 313.902 3.152 313.51C2.728 313.11 2.464 312.574 2.36 311.902L3.284 311.638C3.396 312.118 3.568 312.494 3.8 312.766C4.04 313.03 4.396 313.194 4.868 313.258V310.666C4.1 310.474 3.548 310.202 3.212 309.85C2.884 309.49 2.72 309.03 2.72 308.47C2.72 307.846 2.912 307.358 3.296 307.006C3.688 306.646 4.212 306.446 4.868 306.406V305.482H5.708ZM3.764 308.506C3.764 308.77 3.844 308.986 4.004 309.154C4.172 309.314 4.46 309.458 4.868 309.586V307.33C4.54 307.378 4.272 307.506 4.064 307.714C3.864 307.914 3.764 308.178 3.764 308.506ZM5.708 313.258C6.14 313.21 6.468 313.082 6.692 312.874C6.916 312.666 7.028 312.398 7.028 312.07C7.028 311.806 6.924 311.578 6.716 311.386C6.508 311.186 6.172 311.018 5.708 310.882V313.258ZM10.0508 310.234L10.0148 307.546C9.79878 307.85 9.37078 308.002 8.73078 308.002V307.018C9.13878 306.994 9.49478 306.894 9.79878 306.718C10.1108 306.542 10.2788 306.29 10.3028 305.962H11.1428L11.1068 310.234L11.1428 314.278H10.0148L10.0508 310.234ZM15.7164 314.458C14.6764 314.458 13.8724 314.082 13.3044 313.33C12.7444 312.578 12.4644 311.502 12.4644 310.102C12.4644 308.726 12.7444 307.67 13.3044 306.934C13.8724 306.19 14.6764 305.818 15.7164 305.818C16.7564 305.818 17.5524 306.19 18.1044 306.934C18.6644 307.67 18.9444 308.726 18.9444 310.102C18.9444 311.502 18.6644 312.578 18.1044 313.33C17.5524 314.082 16.7564 314.458 15.7164 314.458ZM13.5924 310.102C13.5924 311.182 13.7764 312.014 14.1444 312.598C14.5124 313.182 15.0364 313.474 15.7164 313.474C16.3884 313.474 16.9044 313.182 17.2644 312.598C17.6324 312.006 17.8164 311.174 17.8164 310.102C17.8164 309.07 17.6364 308.262 17.2764 307.678C16.9164 307.094 16.4044 306.802 15.7404 306.802C15.0524 306.802 14.5204 307.09 14.1444 307.666C13.7764 308.234 13.5924 309.046 13.5924 310.102ZM19.4314 315.274C19.7194 315.186 19.9314 315.062 20.0674 314.902C20.2114 314.742 20.2714 314.586 20.2474 314.434C19.8314 314.354 19.6234 314.118 19.6234 313.726C19.6234 313.502 19.6834 313.326 19.8034 313.198C19.9314 313.07 20.1074 313.006 20.3314 313.006C20.5634 313.006 20.7434 313.078 20.8714 313.222C20.9994 313.358 21.0634 313.566 21.0634 313.846C21.0634 314.286 20.9554 314.682 20.7394 315.034C20.5234 315.386 20.1354 315.618 19.5754 315.73L19.4314 315.274ZM24.9156 314.458C23.8756 314.458 23.0716 314.082 22.5036 313.33C21.9436 312.578 21.6636 311.502 21.6636 310.102C21.6636 308.726 21.9436 307.67 22.5036 306.934C23.0716 306.19 23.8756 305.818 24.9156 305.818C25.9556 305.818 26.7516 306.19 27.3036 306.934C27.8636 307.67 28.1436 308.726 28.1436 310.102C28.1436 311.502 27.8636 312.578 27.3036 313.33C26.7516 314.082 25.9556 314.458 24.9156 314.458ZM22.7916 310.102C22.7916 311.182 22.9756 312.014 23.3436 312.598C23.7116 313.182 24.2356 313.474 24.9156 313.474C25.5876 313.474 26.1036 313.182 26.4636 312.598C26.8316 312.006 27.0156 311.174 27.0156 310.102C27.0156 309.07 26.8356 308.262 26.4756 307.678C26.1156 307.094 25.6036 306.802 24.9396 306.802C24.2516 306.802 23.7196 307.09 23.3436 307.666C22.9756 308.234 22.7916 309.046 22.7916 310.102ZM32.357 314.458C31.317 314.458 30.513 314.082 29.945 313.33C29.385 312.578 29.105 311.502 29.105 310.102C29.105 308.726 29.385 307.67 29.945 306.934C30.513 306.19 31.317 305.818 32.357 305.818C33.397 305.818 34.193 306.19 34.745 306.934C35.305 307.67 35.585 308.726 35.585 310.102C35.585 311.502 35.305 312.578 34.745 313.33C34.193 314.082 33.397 314.458 32.357 314.458ZM30.233 310.102C30.233 311.182 30.417 312.014 30.785 312.598C31.153 313.182 31.677 313.474 32.357 313.474C33.029 313.474 33.545 313.182 33.905 312.598C34.273 312.006 34.457 311.174 34.457 310.102C34.457 309.07 34.277 308.262 33.917 307.678C33.557 307.094 33.045 306.802 32.381 306.802C31.693 306.802 31.161 307.09 30.785 307.666C30.417 308.234 30.233 309.046 30.233 310.102ZM39.7984 314.458C38.7584 314.458 37.9544 314.082 37.3864 313.33C36.8264 312.578 36.5464 311.502 36.5464 310.102C36.5464 308.726 36.8264 307.67 37.3864 306.934C37.9544 306.19 38.7584 305.818 39.7984 305.818C40.8384 305.818 41.6344 306.19 42.1864 306.934C42.7464 307.67 43.0264 308.726 43.0264 310.102C43.0264 311.502 42.7464 312.578 42.1864 313.33C41.6344 314.082 40.8384 314.458 39.7984 314.458ZM37.6744 310.102C37.6744 311.182 37.8584 312.014 38.2264 312.598C38.5944 313.182 39.1184 313.474 39.7984 313.474C40.4704 313.474 40.9864 313.182 41.3464 312.598C41.7144 312.006 41.8984 311.174 41.8984 310.102C41.8984 309.07 41.7184 308.262 41.3584 307.678C40.9984 307.094 40.4864 306.802 39.8224 306.802C39.1344 306.802 38.6024 307.09 38.2264 307.666C37.8584 308.234 37.6744 309.046 37.6744 310.102ZM43.5134 315.274C43.8014 315.186 44.0134 315.062 44.1494 314.902C44.2934 314.742 44.3534 314.586 44.3294 314.434C43.9134 314.354 43.7054 314.118 43.7054 313.726C43.7054 313.502 43.7654 313.326 43.8854 313.198C44.0134 313.07 44.1894 313.006 44.4134 313.006C44.6454 313.006 44.8254 313.078 44.9534 313.222C45.0814 313.358 45.1454 313.566 45.1454 313.846C45.1454 314.286 45.0374 314.682 44.8214 315.034C44.6054 315.386 44.2174 315.618 43.6574 315.73L43.5134 315.274ZM48.9976 314.458C47.9576 314.458 47.1536 314.082 46.5856 313.33C46.0256 312.578 45.7456 311.502 45.7456 310.102C45.7456 308.726 46.0256 307.67 46.5856 306.934C47.1536 306.19 47.9576 305.818 48.9976 305.818C50.0376 305.818 50.8336 306.19 51.3856 306.934C51.9456 307.67 52.2256 308.726 52.2256 310.102C52.2256 311.502 51.9456 312.578 51.3856 313.33C50.8336 314.082 50.0376 314.458 48.9976 314.458ZM46.8736 310.102C46.8736 311.182 47.0576 312.014 47.4256 312.598C47.7936 313.182 48.3176 313.474 48.9976 313.474C49.6696 313.474 50.1856 313.182 50.5456 312.598C50.9136 312.006 51.0976 311.174 51.0976 310.102C51.0976 309.07 50.9176 308.262 50.5576 307.678C50.1976 307.094 49.6856 306.802 49.0216 306.802C48.3336 306.802 47.8016 307.09 47.4256 307.666C47.0576 308.234 46.8736 309.046 46.8736 310.102ZM56.439 314.458C55.399 314.458 54.595 314.082 54.027 313.33C53.467 312.578 53.187 311.502 53.187 310.102C53.187 308.726 53.467 307.67 54.027 306.934C54.595 306.19 55.399 305.818 56.439 305.818C57.479 305.818 58.275 306.19 58.827 306.934C59.387 307.67 59.667 308.726 59.667 310.102C59.667 311.502 59.387 312.578 58.827 313.33C58.275 314.082 57.479 314.458 56.439 314.458ZM54.315 310.102C54.315 311.182 54.499 312.014 54.867 312.598C55.235 313.182 55.759 313.474 56.439 313.474C57.111 313.474 57.627 313.182 57.987 312.598C58.355 312.006 58.539 311.174 58.539 310.102C58.539 309.07 58.359 308.262 57.999 307.678C57.639 307.094 57.127 306.802 56.463 306.802C55.775 306.802 55.243 307.09 54.867 307.666C54.499 308.234 54.315 309.046 54.315 310.102ZM63.8804 314.458C62.8404 314.458 62.0364 314.082 61.4684 313.33C60.9084 312.578 60.6284 311.502 60.6284 310.102C60.6284 308.726 60.9084 307.67 61.4684 306.934C62.0364 306.19 62.8404 305.818 63.8804 305.818C64.9204 305.818 65.7164 306.19 66.2684 306.934C66.8284 307.67 67.1084 308.726 67.1084 310.102C67.1084 311.502 66.8284 312.578 66.2684 313.33C65.7164 314.082 64.9204 314.458 63.8804 314.458ZM61.7564 310.102C61.7564 311.182 61.9404 312.014 62.3084 312.598C62.6764 313.182 63.2004 313.474 63.8804 313.474C64.5524 313.474 65.0684 313.182 65.4284 312.598C65.7964 312.006 65.9804 311.174 65.9804 310.102C65.9804 309.07 65.8004 308.262 65.4404 307.678C65.0804 307.094 64.5684 306.802 63.9044 306.802C63.2164 306.802 62.6844 307.09 62.3084 307.666C61.9404 308.234 61.7564 309.046 61.7564 310.102Z" fill="#3D3D3D"/>
<path d="M3.708 377.482V378.43C4.348 378.526 4.856 378.766 5.232 379.15C5.608 379.526 5.844 380.006 5.94 380.59L4.98 380.854C4.94 380.494 4.808 380.186 4.584 379.93C4.368 379.666 4.076 379.486 3.708 379.39V381.802C4.556 382.01 5.16 382.298 5.52 382.666C5.888 383.034 6.072 383.498 6.072 384.058C6.072 384.714 5.856 385.222 5.424 385.582C5 385.942 4.428 386.15 3.708 386.206V387.118H2.868V386.194C2.156 386.13 1.584 385.902 1.152 385.51C0.728 385.11 0.464 384.574 0.36 383.902L1.284 383.638C1.396 384.118 1.568 384.494 1.8 384.766C2.04 385.03 2.396 385.194 2.868 385.258V382.666C2.1 382.474 1.548 382.202 1.212 381.85C0.884 381.49 0.72 381.03 0.72 380.47C0.72 379.846 0.912 379.358 1.296 379.006C1.688 378.646 2.212 378.446 2.868 378.406V377.482H3.708ZM1.764 380.506C1.764 380.77 1.844 380.986 2.004 381.154C2.172 381.314 2.46 381.458 2.868 381.586V379.33C2.54 379.378 2.272 379.506 2.064 379.714C1.864 379.914 1.764 380.178 1.764 380.506ZM3.708 385.258C4.14 385.21 4.468 385.082 4.692 384.874C4.916 384.666 5.028 384.398 5.028 384.07C5.028 383.806 4.924 383.578 4.716 383.386C4.508 383.186 4.172 383.018 3.708 382.882V385.258ZM8.05078 382.234L8.01478 379.546C7.79878 379.85 7.37078 380.002 6.73078 380.002V379.018C7.13878 378.994 7.49478 378.894 7.79878 378.718C8.11078 378.542 8.27878 378.29 8.30278 377.962H9.14278L9.10678 382.234L9.14278 386.278H8.01478L8.05078 382.234ZM10.2244 387.274C10.5124 387.186 10.7244 387.062 10.8604 386.902C11.0044 386.742 11.0644 386.586 11.0404 386.434C10.6244 386.354 10.4164 386.118 10.4164 385.726C10.4164 385.502 10.4764 385.326 10.5964 385.198C10.7244 385.07 10.9004 385.006 11.1244 385.006C11.3564 385.006 11.5364 385.078 11.6644 385.222C11.7924 385.358 11.8564 385.566 11.8564 385.846C11.8564 386.286 11.7484 386.682 11.5324 387.034C11.3164 387.386 10.9284 387.618 10.3684 387.73L10.2244 387.274ZM15.7086 386.458C14.6686 386.458 13.8646 386.082 13.2966 385.33C12.7366 384.578 12.4566 383.502 12.4566 382.102C12.4566 380.726 12.7366 379.67 13.2966 378.934C13.8646 378.19 14.6686 377.818 15.7086 377.818C16.7486 377.818 17.5446 378.19 18.0966 378.934C18.6566 379.67 18.9366 380.726 18.9366 382.102C18.9366 383.502 18.6566 384.578 18.0966 385.33C17.5446 386.082 16.7486 386.458 15.7086 386.458ZM13.5846 382.102C13.5846 383.182 13.7686 384.014 14.1366 384.598C14.5046 385.182 15.0286 385.474 15.7086 385.474C16.3806 385.474 16.8966 385.182 17.2566 384.598C17.6246 384.006 17.8086 383.174 17.8086 382.102C17.8086 381.07 17.6286 380.262 17.2686 379.678C16.9086 379.094 16.3966 378.802 15.7326 378.802C15.0446 378.802 14.5126 379.09 14.1366 379.666C13.7686 380.234 13.5846 381.046 13.5846 382.102ZM23.15 386.458C22.11 386.458 21.306 386.082 20.738 385.33C20.178 384.578 19.898 383.502 19.898 382.102C19.898 380.726 20.178 379.67 20.738 378.934C21.306 378.19 22.11 377.818 23.15 377.818C24.19 377.818 24.986 378.19 25.538 378.934C26.098 379.67 26.378 380.726 26.378 382.102C26.378 383.502 26.098 384.578 25.538 385.33C24.986 386.082 24.19 386.458 23.15 386.458ZM21.026 382.102C21.026 383.182 21.21 384.014 21.578 384.598C21.946 385.182 22.47 385.474 23.15 385.474C23.822 385.474 24.338 385.182 24.698 384.598C25.066 384.006 25.25 383.174 25.25 382.102C25.25 381.07 25.07 380.262 24.71 379.678C24.35 379.094 23.838 378.802 23.174 378.802C22.486 378.802 21.954 379.09 21.578 379.666C21.21 380.234 21.026 381.046 21.026 382.102ZM30.5914 386.458C29.5514 386.458 28.7474 386.082 28.1794 385.33C27.6194 384.578 27.3394 383.502 27.3394 382.102C27.3394 380.726 27.6194 379.67 28.1794 378.934C28.7474 378.19 29.5514 377.818 30.5914 377.818C31.6314 377.818 32.4274 378.19 32.9794 378.934C33.5394 379.67 33.8194 380.726 33.8194 382.102C33.8194 383.502 33.5394 384.578 32.9794 385.33C32.4274 386.082 31.6314 386.458 30.5914 386.458ZM28.4674 382.102C28.4674 383.182 28.6514 384.014 29.0194 384.598C29.3874 385.182 29.9114 385.474 30.5914 385.474C31.2634 385.474 31.7794 385.182 32.1394 384.598C32.5074 384.006 32.6914 383.174 32.6914 382.102C32.6914 381.07 32.5114 380.262 32.1514 379.678C31.7914 379.094 31.2794 378.802 30.6154 378.802C29.9274 378.802 29.3954 379.09 29.0194 379.666C28.6514 380.234 28.4674 381.046 28.4674 382.102ZM34.3064 387.274C34.5944 387.186 34.8064 387.062 34.9424 386.902C35.0864 386.742 35.1464 386.586 35.1224 386.434C34.7064 386.354 34.4984 386.118 34.4984 385.726C34.4984 385.502 34.5584 385.326 34.6784 385.198C34.8064 385.07 34.9824 385.006 35.2064 385.006C35.4384 385.006 35.6184 385.078 35.7464 385.222C35.8744 385.358 35.9384 385.566 35.9384 385.846C35.9384 386.286 35.8304 386.682 35.6144 387.034C35.3984 387.386 35.0104 387.618 34.4504 387.73L34.3064 387.274ZM39.7906 386.458C38.7506 386.458 37.9466 386.082 37.3786 385.33C36.8186 384.578 36.5386 383.502 36.5386 382.102C36.5386 380.726 36.8186 379.67 37.3786 378.934C37.9466 378.19 38.7506 377.818 39.7906 377.818C40.8306 377.818 41.6266 378.19 42.1786 378.934C42.7386 379.67 43.0186 380.726 43.0186 382.102C43.0186 383.502 42.7386 384.578 42.1786 385.33C41.6266 386.082 40.8306 386.458 39.7906 386.458ZM37.6666 382.102C37.6666 383.182 37.8506 384.014 38.2186 384.598C38.5866 385.182 39.1106 385.474 39.7906 385.474C40.4626 385.474 40.9786 385.182 41.3386 384.598C41.7066 384.006 41.8906 383.174 41.8906 382.102C41.8906 381.07 41.7106 380.262 41.3506 379.678C40.9906 379.094 40.4786 378.802 39.8146 378.802C39.1266 378.802 38.5946 379.09 38.2186 379.666C37.8506 380.234 37.6666 381.046 37.6666 382.102ZM47.232 386.458C46.192 386.458 45.388 386.082 44.82 385.33C44.26 384.578 43.98 383.502 43.98 382.102C43.98 380.726 44.26 379.67 44.82 378.934C45.388 378.19 46.192 377.818 47.232 377.818C48.272 377.818 49.068 378.19 49.62 378.934C50.18 379.67 50.46 380.726 50.46 382.102C50.46 383.502 50.18 384.578 49.62 385.33C49.068 386.082 48.272 386.458 47.232 386.458ZM45.108 382.102C45.108 383.182 45.292 384.014 45.66 384.598C46.028 385.182 46.552 385.474 47.232 385.474C47.904 385.474 48.42 385.182 48.78 384.598C49.148 384.006 49.332 383.174 49.332 382.102C49.332 381.07 49.152 380.262 48.792 379.678C48.432 379.094 47.92 378.802 47.256 378.802C46.568 378.802 46.036 379.09 45.66 379.666C45.292 380.234 45.108 381.046 45.108 382.102ZM54.6734 386.458C53.6334 386.458 52.8294 386.082 52.2614 385.33C51.7014 384.578 51.4214 383.502 51.4214 382.102C51.4214 380.726 51.7014 379.67 52.2614 378.934C52.8294 378.19 53.6334 377.818 54.6734 377.818C55.7134 377.818 56.5094 378.19 57.0614 378.934C57.6214 379.67 57.9014 380.726 57.9014 382.102C57.9014 383.502 57.6214 384.578 57.0614 385.33C56.5094 386.082 55.7134 386.458 54.6734 386.458ZM52.5494 382.102C52.5494 383.182 52.7334 384.014 53.1014 384.598C53.4694 385.182 53.9934 385.474 54.6734 385.474C55.3454 385.474 55.8614 385.182 56.2214 384.598C56.5894 384.006 56.7734 383.174 56.7734 382.102C56.7734 381.07 56.5934 380.262 56.2334 379.678C55.8734 379.094 55.3614 378.802 54.6974 378.802C54.0094 378.802 53.4774 379.09 53.1014 379.666C52.7334 380.234 52.5494 381.046 52.5494 382.102Z" fill="#3D3D3D"/>
<path d="M5.708 455.482V456.43C6.348 456.526 6.856 456.766 7.232 457.15C7.608 457.526 7.844 458.006 7.94 458.59L6.98 458.854C6.94 458.494 6.808 458.186 6.584 457.93C6.368 457.666 6.076 457.486 5.708 457.39V459.802C6.556 460.01 7.16 460.298 7.52 460.666C7.888 461.034 8.072 461.498 8.072 462.058C8.072 462.714 7.856 463.222 7.424 463.582C7 463.942 6.428 464.15 5.708 464.206V465.118H4.868V464.194C4.156 464.13 3.584 463.902 3.152 463.51C2.728 463.11 2.464 462.574 2.36 461.902L3.284 461.638C3.396 462.118 3.568 462.494 3.8 462.766C4.04 463.03 4.396 463.194 4.868 463.258V460.666C4.1 460.474 3.548 460.202 3.212 459.85C2.884 459.49 2.72 459.03 2.72 458.47C2.72 457.846 2.912 457.358 3.296 457.006C3.688 456.646 4.212 456.446 4.868 456.406V455.482H5.708ZM3.764 458.506C3.764 458.77 3.844 458.986 4.004 459.154C4.172 459.314 4.46 459.458 4.868 459.586V457.33C4.54 457.378 4.272 457.506 4.064 457.714C3.864 457.914 3.764 458.178 3.764 458.506ZM5.708 463.258C6.14 463.21 6.468 463.082 6.692 462.874C6.916 462.666 7.028 462.398 7.028 462.07C7.028 461.806 6.924 461.578 6.716 461.386C6.508 461.186 6.172 461.018 5.708 460.882V463.258ZM10.0508 460.234L10.0148 457.546C9.79878 457.85 9.37078 458.002 8.73078 458.002V457.018C9.13878 456.994 9.49478 456.894 9.79878 456.718C10.1108 456.542 10.2788 456.29 10.3028 455.962H11.1428L11.1068 460.234L11.1428 464.278H10.0148L10.0508 460.234ZM15.7164 464.458C14.6764 464.458 13.8724 464.082 13.3044 463.33C12.7444 462.578 12.4644 461.502 12.4644 460.102C12.4644 458.726 12.7444 457.67 13.3044 456.934C13.8724 456.19 14.6764 455.818 15.7164 455.818C16.7564 455.818 17.5524 456.19 18.1044 456.934C18.6644 457.67 18.9444 458.726 18.9444 460.102C18.9444 461.502 18.6644 462.578 18.1044 463.33C17.5524 464.082 16.7564 464.458 15.7164 464.458ZM13.5924 460.102C13.5924 461.182 13.7764 462.014 14.1444 462.598C14.5124 463.182 15.0364 463.474 15.7164 463.474C16.3884 463.474 16.9044 463.182 17.2644 462.598C17.6324 462.006 17.8164 461.174 17.8164 460.102C17.8164 459.07 17.6364 458.262 17.2764 457.678C16.9164 457.094 16.4044 456.802 15.7404 456.802C15.0524 456.802 14.5204 457.09 14.1444 457.666C13.7764 458.234 13.5924 459.046 13.5924 460.102ZM23.1578 464.458C22.1178 464.458 21.3138 464.082 20.7458 463.33C20.1858 462.578 19.9058 461.502 19.9058 460.102C19.9058 458.726 20.1858 457.67 20.7458 456.934C21.3138 456.19 22.1178 455.818 23.1578 455.818C24.1978 455.818 24.9938 456.19 25.5458 456.934C26.1058 457.67 26.3858 458.726 26.3858 460.102C26.3858 461.502 26.1058 462.578 25.5458 463.33C24.9938 464.082 24.1978 464.458 23.1578 464.458ZM21.0338 460.102C21.0338 461.182 21.2178 462.014 21.5858 462.598C21.9538 463.182 22.4778 463.474 23.1578 463.474C23.8298 463.474 24.3458 463.182 24.7058 462.598C25.0738 462.006 25.2578 461.174 25.2578 460.102C25.2578 459.07 25.0778 458.262 24.7178 457.678C24.3578 457.094 23.8458 456.802 23.1818 456.802C22.4938 456.802 21.9618 457.09 21.5858 457.666C21.2178 458.234 21.0338 459.046 21.0338 460.102ZM26.8728 465.274C27.1608 465.186 27.3728 465.062 27.5088 464.902C27.6528 464.742 27.7128 464.586 27.6888 464.434C27.2728 464.354 27.0648 464.118 27.0648 463.726C27.0648 463.502 27.1248 463.326 27.2448 463.198C27.3728 463.07 27.5488 463.006 27.7728 463.006C28.0048 463.006 28.1848 463.078 28.3128 463.222C28.4408 463.358 28.5048 463.566 28.5048 463.846C28.5048 464.286 28.3968 464.682 28.1808 465.034C27.9648 465.386 27.5768 465.618 27.0168 465.73L26.8728 465.274ZM32.357 464.458C31.317 464.458 30.513 464.082 29.945 463.33C29.385 462.578 29.105 461.502 29.105 460.102C29.105 458.726 29.385 457.67 29.945 456.934C30.513 456.19 31.317 455.818 32.357 455.818C33.397 455.818 34.193 456.19 34.745 456.934C35.305 457.67 35.585 458.726 35.585 460.102C35.585 461.502 35.305 462.578 34.745 463.33C34.193 464.082 33.397 464.458 32.357 464.458ZM30.233 460.102C30.233 461.182 30.417 462.014 30.785 462.598C31.153 463.182 31.677 463.474 32.357 463.474C33.029 463.474 33.545 463.182 33.905 462.598C34.273 462.006 34.457 461.174 34.457 460.102C34.457 459.07 34.277 458.262 33.917 457.678C33.557 457.094 33.045 456.802 32.381 456.802C31.693 456.802 31.161 457.09 30.785 457.666C30.417 458.234 30.233 459.046 30.233 460.102ZM39.7984 464.458C38.7584 464.458 37.9544 464.082 37.3864 463.33C36.8264 462.578 36.5464 461.502 36.5464 460.102C36.5464 458.726 36.8264 457.67 37.3864 456.934C37.9544 456.19 38.7584 455.818 39.7984 455.818C40.8384 455.818 41.6344 456.19 42.1864 456.934C42.7464 457.67 43.0264 458.726 43.0264 460.102C43.0264 461.502 42.7464 462.578 42.1864 463.33C41.6344 464.082 40.8384 464.458 39.7984 464.458ZM37.6744 460.102C37.6744 461.182 37.8584 462.014 38.2264 462.598C38.5944 463.182 39.1184 463.474 39.7984 463.474C40.4704 463.474 40.9864 463.182 41.3464 462.598C41.7144 462.006 41.8984 461.174 41.8984 460.102C41.8984 459.07 41.7184 458.262 41.3584 457.678C40.9984 457.094 40.4864 456.802 39.8224 456.802C39.1344 456.802 38.6024 457.09 38.2264 457.666C37.8584 458.234 37.6744 459.046 37.6744 460.102ZM47.2398 464.458C46.1998 464.458 45.3958 464.082 44.8278 463.33C44.2678 462.578 43.9878 461.502 43.9878 460.102C43.9878 458.726 44.2678 457.67 44.8278 456.934C45.3958 456.19 46.1998 455.818 47.2398 455.818C48.2798 455.818 49.0758 456.19 49.6278 456.934C50.1878 457.67 50.4678 458.726 50.4678 460.102C50.4678 461.502 50.1878 462.578 49.6278 463.33C49.0758 464.082 48.2798 464.458 47.2398 464.458ZM45.1158 460.102C45.1158 461.182 45.2998 462.014 45.6678 462.598C46.0358 463.182 46.5598 463.474 47.2398 463.474C47.9118 463.474 48.4278 463.182 48.7878 462.598C49.1558 462.006 49.3398 461.174 49.3398 460.102C49.3398 459.07 49.1598 458.262 48.7998 457.678C48.4398 457.094 47.9278 456.802 47.2638 456.802C46.5758 456.802 46.0438 457.09 45.6678 457.666C45.2998 458.234 45.1158 459.046 45.1158 460.102Z" fill="#3D3D3D"/>
<path d="M118 444.961C119.275 444.312 123.49 439.01 125.438 436.44L126.5 451.047L134.469 444.961L142.438 455.511L148.281 451.047L150.938 467.278L155.188 460.38L157.313 455.511L159.969 460.38L167.427 463.064L174.244 455.511L179.357 460.38L186.175 451.047L195.264 453.667L210.604 451.047L228.784 455.511L232.192 431.741L235.033 441.53L241.85 436.44L255.485 441.53L265.711 422.345L271.961 428.609H276.506L284.459 436.44L293.549 428.609L312.297 436.44L317.41 415.297L333.886 427.043L342.408 422.345L352.066 424.694L360.588 401.202L370.246 411.382L377.063 407.075L379.336 409.033L382.744 382.8L387.858 389.456V340.124L393.539 369.097L396.947 364.007L408.878 376.927L412.855 369.097L418.536 376.927L428.194 362.049L433.875 341.69L437.284 360.092H444.101L450.919 344.822L462.849 369.097L468.531 362.049L472.508 369.097L479.893 364.007L486.711 365.573L489.551 346.388L499.209 350.304L502.618 344.822L506.595 314.283L513.98 324.071L519.093 319.373L525.343 267.3L529.888 292.749L533.297 288.442L537.273 306.061L544.091 284.135L550.34 292.749V275.913L557.158 294.707L563.975 290.008L568.52 307.627L576.474 301.754L581.019 335.426L595.222 326.029V314.283L599.199 319.373V301.754L604.312 307.627L609.993 299.797L613.402 322.114L616.81 314.283L624.764 317.415L629.877 164.328L633.854 213.269L641.24 207.004L643.512 195.65L645.784 198.782L648.625 176.857L652.602 179.598V146.709L655.443 151.799V44.5205L662.828 106.382L667.941 79.758L674.759 93.0699L679.872 0.277832L688.962 115.778L693.507 109.123L696.915 187.037L707.71 136.529L713.959 151.799L721.345 121.26L729.298 164.328L736.995 142.402M737.82 140.053L736.995 142.402M736.995 142.402L742.933 113.038L750.887 121.26V90.7207L756 113.038" stroke="#0FFBE4" stroke-width="2"/>
<defs>
<linearGradient id="paint0_linear_25_2042" x1="362.652" y1="206.118" x2="714.807" y2="206.118" gradientUnits="userSpaceOnUse">
<stop stop-color="white" stop-opacity="0.09"/>
<stop offset="0.21875" stop-color="white" stop-opacity="0.05"/>
<stop offset="1" stop-color="white" stop-opacity="0.03"/>
</linearGradient>
<linearGradient id="paint1_linear_25_2042" x1="362.652" y1="131.649" x2="714.807" y2="131.649" gradientUnits="userSpaceOnUse">
<stop stop-color="white" stop-opacity="0.09"/>
<stop offset="0.21875" stop-color="white" stop-opacity="0.05"/>
<stop offset="1" stop-color="white" stop-opacity="0.03"/>
</linearGradient>
<linearGradient id="paint2_linear_25_2042" x1="362.652" y1="281.621" x2="714.807" y2="281.621" gradientUnits="userSpaceOnUse">
<stop stop-color="white" stop-opacity="0.09"/>
<stop offset="0.21875" stop-color="white" stop-opacity="0.05"/>
<stop offset="1" stop-color="white" stop-opacity="0.03"/>
</linearGradient>
<linearGradient id="paint3_linear_25_2042" x1="362.652" y1="356.089" x2="714.807" y2="356.089" gradientUnits="userSpaceOnUse">
<stop stop-color="white" stop-opacity="0.09"/>
<stop offset="0.21875" stop-color="white" stop-opacity="0.05"/>
<stop offset="1" stop-color="white" stop-opacity="0.03"/>
</linearGradient>
<linearGradient id="paint4_linear_25_2042" x1="362.652" y1="506.061" x2="714.807" y2="506.061" gradientUnits="userSpaceOnUse">
<stop stop-color="white" stop-opacity="0.09"/>
<stop offset="0.21875" stop-color="white" stop-opacity="0.05"/>
<stop offset="1" stop-color="white" stop-opacity="0.03"/>
</linearGradient>
<linearGradient id="paint5_linear_25_2042" x1="362.652" y1="431.592" x2="714.807" y2="431.592" gradientUnits="userSpaceOnUse">
<stop stop-color="white" stop-opacity="0.09"/>
<stop offset="0.21875" stop-color="white" stop-opacity="0.05"/>
<stop offset="1" stop-color="white" stop-opacity="0.03"/>
</linearGradient>
<linearGradient id="paint6_linear_25_2042" x1="362.652" y1="581.563" x2="714.807" y2="581.563" gradientUnits="userSpaceOnUse">
<stop stop-color="white" stop-opacity="0.09"/>
<stop offset="0.21875" stop-color="white" stop-opacity="0.05"/>
<stop offset="1" stop-color="white" stop-opacity="0.03"/>
</linearGradient>
<linearGradient id="paint7_linear_25_2042" x1="64.0215" y1="185.271" x2="64.0215" y2="452.131" gradientUnits="userSpaceOnUse">
<stop stop-color="white" stop-opacity="0.09"/>
<stop offset="0.21875" stop-color="white" stop-opacity="0.05"/>
<stop offset="1" stop-color="white" stop-opacity="0.03"/>
</linearGradient>
<linearGradient id="paint8_linear_25_2042" x1="149.614" y1="185.271" x2="149.614" y2="452.131" gradientUnits="userSpaceOnUse">
<stop stop-color="white" stop-opacity="0.09"/>
<stop offset="0.21875" stop-color="white" stop-opacity="0.05"/>
<stop offset="1" stop-color="white" stop-opacity="0.03"/>
</linearGradient>
<linearGradient id="paint9_linear_25_2042" x1="235.207" y1="185.271" x2="235.207" y2="452.131" gradientUnits="userSpaceOnUse">
<stop stop-color="white" stop-opacity="0.09"/>
<stop offset="0.21875" stop-color="white" stop-opacity="0.05"/>
<stop offset="1" stop-color="white" stop-opacity="0.03"/>
</linearGradient>
<linearGradient id="paint10_linear_25_2042" x1="320.798" y1="185.271" x2="320.798" y2="452.131" gradientUnits="userSpaceOnUse">
<stop stop-color="white" stop-opacity="0.09"/>
<stop offset="0.21875" stop-color="white" stop-opacity="0.05"/>
<stop offset="1" stop-color="white" stop-opacity="0.03"/>
</linearGradient>
<linearGradient id="paint11_linear_25_2042" x1="406.391" y1="185.271" x2="406.391" y2="452.131" gradientUnits="userSpaceOnUse">
<stop stop-color="white" stop-opacity="0.09"/>
<stop offset="0.21875" stop-color="white" stop-opacity="0.05"/>
<stop offset="1" stop-color="white" stop-opacity="0.03"/>
</linearGradient>
<linearGradient id="paint12_linear_25_2042" x1="491.982" y1="185.271" x2="491.982" y2="452.131" gradientUnits="userSpaceOnUse">
<stop stop-color="white" stop-opacity="0.09"/>
<stop offset="0.21875" stop-color="white" stop-opacity="0.05"/>
<stop offset="1" stop-color="white" stop-opacity="0.03"/>
</linearGradient>
<linearGradient id="paint13_linear_25_2042" x1="577.575" y1="185.271" x2="577.575" y2="452.131" gradientUnits="userSpaceOnUse">
<stop stop-color="white" stop-opacity="0.09"/>
<stop offset="0.21875" stop-color="white" stop-opacity="0.05"/>
<stop offset="1" stop-color="white" stop-opacity="0.03"/>
</linearGradient>
</defs>
</svg>
