<svg width="32" height="32" viewBox="0 0 32 32" fill="none" xmlns="http://www.w3.org/2000/svg">
<path d="M26.1818 0H5.81818C2.59459 0 0 2.64 0 5.84V26.16C0 29.36 2.59459 32 5.81818 32H26.1818C29.4054 32 32 29.36 32 26.16V5.84C32 2.64 29.4054 0 26.1818 0ZM21.2285 8C23.5872 8 25.5528 9.92 25.5528 12.32C25.5528 13.04 25.3956 13.76 25.0811 14.4C24.5307 14 23.9017 13.6 23.2727 13.36C23.43 13.04 23.5086 12.64 23.5086 12.32C23.5086 11.12 22.4865 10.08 21.3071 10.08C20.0491 10.08 19.1056 11.12 19.1056 12.32C19.1056 12.72 19.1843 13.04 19.3415 13.36C18.7125 13.6 18.0835 13.92 17.5332 14.4C17.14 13.76 17.0614 13.04 17.0614 12.32C16.9828 9.92 18.8698 8 21.2285 8ZM10.7715 24C8.41278 24 6.44717 22.08 6.44717 19.68H8.4914C8.4914 20.88 9.51351 21.92 10.6929 21.92C11.8722 21.92 12.8943 20.88 12.8943 19.68H14.9386C15.0958 22.08 13.1302 24 10.7715 24ZM10.7715 18C8.01966 18 5.81818 15.76 5.81818 13.04C5.81818 10.32 8.01966 8 10.7715 8C13.5233 8 15.8034 10.24 15.8034 13.04C15.8034 15.76 13.5233 18 10.7715 18ZM21.2285 24C18.4767 24 16.1966 21.76 16.1966 19.04C16.1966 16.24 18.398 14 21.2285 14C23.9803 14 26.1818 16.24 26.1818 19.04C26.2604 21.76 23.9803 24 21.2285 24ZM24.2162 18.96C24.2162 20.64 22.8796 21.92 21.2285 21.92C19.5774 21.92 18.2408 20.56 18.2408 18.96C18.2408 17.28 19.5774 16 21.2285 16C22.8796 16.08 24.2162 17.36 24.2162 18.96ZM13.6806 13.04C13.6806 14.72 12.344 16 10.6929 16C9.04177 16 7.70516 14.64 7.70516 13.04C7.70516 11.36 9.04177 10.08 10.6929 10.08C12.4226 10.08 13.6806 11.36 13.6806 13.04Z" fill="#D9B432"/>
</svg>
