<svg width="43" height="39" viewBox="0 0 43 39" fill="none" xmlns="http://www.w3.org/2000/svg">
<path d="M14.8291 21.6997C16.044 21.6997 17.0288 20.7149 17.0288 19.5C17.0288 18.2851 16.044 17.3003 14.8291 17.3003C13.6142 17.3003 12.6294 18.2851 12.6294 19.5C12.6294 20.7149 13.6142 21.6997 14.8291 21.6997Z" stroke="white" stroke-width="2" stroke-linecap="round" stroke-linejoin="round"/>
<path d="M28.0274 21.6997C29.2422 21.6997 30.2271 20.7149 30.2271 19.5C30.2271 18.2851 29.2422 17.3003 28.0274 17.3003C26.8125 17.3003 25.8276 18.2851 25.8276 19.5C25.8276 20.7149 26.8125 21.6997 28.0274 21.6997Z" stroke="white" stroke-width="2" stroke-linecap="round" stroke-linejoin="round"/>
<path d="M11.5293 9.60145C19.2283 7.40173 23.6277 7.40173 31.3267 9.60145" stroke="white" stroke-width="2" stroke-linecap="round" stroke-linejoin="round"/>
<path d="M10.4294 29.3989C18.1284 31.5986 24.7276 31.5986 32.4266 29.3989" stroke="white" stroke-width="2" stroke-linecap="round" stroke-linejoin="round"/>
<path d="M29.1272 30.4986C29.1272 32.6984 32.4268 37.0978 33.5266 37.0978C36.8262 37.0978 39.7584 33.4309 41.2256 30.4986C42.6929 26.8317 42.3255 17.6677 37.9261 5.20192C34.7211 2.96921 31.3269 2.2543 28.0274 1.90234L25.8276 7.40163" stroke="white" stroke-width="2" stroke-linecap="round" stroke-linejoin="round"/>
<path d="M13.7291 30.4986C13.7291 32.6984 10.7462 37.0978 9.69917 37.0978C6.55578 37.0978 3.76434 33.4309 2.36752 30.4986C0.970701 26.8317 1.32046 17.6677 5.50871 5.20192C8.56192 2.96921 11.6283 2.2543 14.8289 1.90234L17.0286 7.40163" stroke="white" stroke-width="2" stroke-linecap="round" stroke-linejoin="round"/>
</svg>
