<svg width="271" height="368" viewBox="0 0 271 368" fill="none" xmlns="http://www.w3.org/2000/svg">
<mask id="mask0_49_566" style="mask-type:alpha" maskUnits="userSpaceOnUse" x="0" y="55" width="271" height="313">
<path d="M252.181 55H18.8194C8.42575 55 0 63.9543 0 75V348C0 359.046 8.42575 368 18.8194 368H252.181C262.574 368 271 359.046 271 348V75C271 63.9543 262.574 55 252.181 55Z" fill="#141414"/>
</mask>
<g mask="url(#mask0_49_566)">
<path d="M1 83.3391H272" stroke="url(#paint0_linear_49_566)" stroke-width="1.10177"/>
<path d="M1 140.163H272" stroke="url(#paint1_linear_49_566)" stroke-width="1.10177"/>
<path d="M1 253.812H272" stroke="url(#paint2_linear_49_566)" stroke-width="1.10177"/>
<path d="M1 196.987H272" stroke="url(#paint3_linear_49_566)" stroke-width="1.10177"/>
<path d="M1 310.635H272" stroke="url(#paint4_linear_49_566)" stroke-width="1.10177"/>
<path opacity="0.8" d="M27.4846 16.5459V320.605" stroke="url(#paint5_linear_49_566)" stroke-width="1.17327" stroke-dasharray="5.73 5.73"/>
<path opacity="0.8" d="M65.7937 16.5459V320.605" stroke="url(#paint6_linear_49_566)" stroke-width="1.17327" stroke-dasharray="5.73 5.73"/>
<path opacity="0.8" d="M104.102 16.5459V320.605" stroke="url(#paint7_linear_49_566)" stroke-width="1.17327" stroke-dasharray="5.73 5.73"/>
<path opacity="0.8" d="M142.412 16.5459V320.605" stroke="url(#paint8_linear_49_566)" stroke-width="1.17327" stroke-dasharray="5.73 5.73"/>
<path opacity="0.8" d="M180.722 16.5459V320.605" stroke="url(#paint9_linear_49_566)" stroke-width="1.17327" stroke-dasharray="5.73 5.73"/>
<path opacity="0.8" d="M219.029 16.5459V320.605" stroke="url(#paint10_linear_49_566)" stroke-width="1.17327" stroke-dasharray="5.73 5.73"/>
<path opacity="0.8" d="M257.339 16.5459V320.605" stroke="url(#paint11_linear_49_566)" stroke-width="1.17327" stroke-dasharray="5.73 5.73"/>
<path d="M263 94.0156L260.575 129.966H258.958L257.948 122.317H255.927L254.512 154.826H251.683L250.471 123.847H248.652L247.035 81.7771H245.217L242.589 22.4968L240.569 44.2967H238.144L235.314 61.8895L230.06 36.2651L227.635 50.0335H225.816V46.2089H223.796L220.764 57.6825L218.339 50.0335V72.9807L214.5 64.5667L209.447 77.9525H206.416L204.395 74.8929L202.375 90.191H200.758L198.131 71.0684L195.099 96.6928L191.866 98.2226L189.845 117.728H188.633V72.9807H185.197L182.772 90.191V50.0335H181.762L178.528 96.6928H176.71V81.7771H174.285L171.455 98.2226H169.435L160.139 166.371L158.522 148.778H157.31L156.299 157.192L151.449 144.571L148.62 171.875L146.397 165.373H143.77L141.143 171.875L137.505 144.571L136.697 148.778H134.07L128.007 130.421H125.178L121.945 154.133H120.126V144.571H117.499L115.882 112.373L112.851 99.3699H110.426L107.597 110.844H105.98V98.2226L102.747 96.6928L100.322 86.3665H97.492L96.078 90.191H94.259L86.7819 72.9807H85.3673V108.166H81.7298L79.911 113.903H77.486L75.4651 151.001L73.4443 153.296V172.418L72.0297 177.39L69.8067 217.93L68.3921 198.425L66.9776 201.102L65.765 216.401H64.3504L62.5317 233.229L59.0962 205.309L56.8733 201.102L56.065 183.892L53.4379 177.39L49.5982 198.425H47.7795V172.418L44.9503 167.064L43.1315 172.418L39.494 185.422L37.069 183.892L33.2294 145.647H31.2085L30.1981 156.355L27.3689 154.826L25.348 174.331L23.5293 177.39L21.1043 223.285L19.2855 219.46V205.309L16.0521 198.425V185.422L13.2229 188.099H11V264.59" stroke="url(#paint12_linear_49_566)" stroke-width="2.22294" stroke-linecap="round"/>
</g>
<path d="M242 295V78" stroke="white"/>
<path d="M242 291C239.791 291 238 292.791 238 295C238 297.209 239.791 299 242 299C244.209 299 246 297.209 246 295C246 292.791 244.209 291 242 291Z" fill="white"/>
<path d="M240 305H125C119.477 305 115 309.477 115 315V347C115 352.523 119.477 357 125 357H240C245.523 357 250 352.523 250 347V315C250 309.477 245.523 305 240 305Z" fill="white"/>
<path d="M161.864 321.836L161.84 317.684H164.816C165.8 317.684 166.552 317.892 167.072 318.308C167.6 318.716 167.864 319.336 167.864 320.168C167.864 321.04 167.6 321.688 167.072 322.112C166.552 322.536 165.76 322.748 164.696 322.748H162.944L162.968 326H161.84L161.864 321.836ZM164.816 321.788C166.096 321.788 166.736 321.248 166.736 320.168C166.736 319.672 166.568 319.296 166.232 319.04C165.896 318.776 165.424 318.644 164.816 318.644H162.956L162.944 321.788H164.816ZM168.847 322.964L168.823 319.688H169.879L169.843 320.684H169.867C169.987 320.364 170.207 320.092 170.527 319.868C170.855 319.644 171.251 319.532 171.715 319.532C171.891 319.532 172.047 319.548 172.183 319.58L172.171 320.576C171.979 320.52 171.807 320.492 171.655 320.492C171.079 320.492 170.635 320.684 170.323 321.068C170.011 321.452 169.855 322.02 169.855 322.772V322.952L169.879 326H168.823L168.847 322.964ZM175.491 326.18C174.891 326.18 174.367 326.044 173.919 325.772C173.479 325.5 173.139 325.116 172.899 324.62C172.667 324.116 172.551 323.524 172.551 322.844C172.551 322.172 172.667 321.588 172.899 321.092C173.139 320.588 173.479 320.204 173.919 319.94C174.367 319.668 174.891 319.532 175.491 319.532C176.091 319.532 176.615 319.668 177.063 319.94C177.511 320.204 177.855 320.588 178.095 321.092C178.335 321.588 178.455 322.172 178.455 322.844C178.455 323.524 178.335 324.116 178.095 324.62C177.855 325.116 177.511 325.5 177.063 325.772C176.615 326.044 176.091 326.18 175.491 326.18ZM173.607 322.844C173.607 323.62 173.775 324.224 174.111 324.656C174.447 325.088 174.907 325.304 175.491 325.304C176.083 325.304 176.547 325.088 176.883 324.656C177.227 324.224 177.399 323.62 177.399 322.844C177.399 322.084 177.227 321.488 176.883 321.056C176.547 320.624 176.083 320.408 175.491 320.408C174.907 320.408 174.447 320.624 174.111 321.056C173.775 321.48 173.607 322.076 173.607 322.844ZM180.002 320.504L178.778 320.528V319.688H179.942C179.926 319.536 179.918 319.396 179.918 319.268C179.918 318.66 180.086 318.188 180.422 317.852C180.758 317.516 181.202 317.348 181.754 317.348C182.178 317.348 182.598 317.44 183.014 317.624L182.81 318.392C182.45 318.288 182.138 318.236 181.874 318.236C181.538 318.236 181.294 318.324 181.142 318.5C180.998 318.668 180.926 318.924 180.926 319.268C180.926 319.396 180.934 319.536 180.95 319.688H182.81V320.528L181.01 320.504L181.034 326H179.978L180.002 320.504ZM183.636 322.844L183.612 319.688H184.668L184.644 322.844L184.668 326H183.612L183.636 322.844ZM183.492 318.284C183.492 317.852 183.708 317.636 184.14 317.636C184.572 317.636 184.788 317.852 184.788 318.284C184.788 318.724 184.572 318.944 184.14 318.944C183.708 318.944 183.492 318.724 183.492 318.284ZM188.277 326.18C187.701 326.18 187.277 326.072 187.005 325.856C186.733 325.632 186.565 325.36 186.501 325.04C186.437 324.712 186.405 324.284 186.405 323.756V320.504L185.445 320.528V319.688H186.405V317.66H187.461V319.688H189.405V320.528L187.461 320.504V323.9C187.461 324.404 187.521 324.768 187.641 324.992C187.769 325.208 188.017 325.316 188.385 325.316C188.737 325.316 189.061 325.264 189.357 325.16L189.549 325.94C189.133 326.1 188.709 326.18 188.277 326.18ZM190.409 322.844L190.385 319.688H191.441L191.417 322.844L191.441 326H190.385L190.409 322.844ZM190.265 318.284C190.265 317.852 190.481 317.636 190.913 317.636C191.345 317.636 191.561 317.852 191.561 318.284C191.561 318.724 191.345 318.944 190.913 318.944C190.481 318.944 190.265 318.724 190.265 318.284ZM193.023 322.952L192.999 319.688H194.055L194.031 320.648H194.055C194.223 320.328 194.483 320.064 194.835 319.856C195.195 319.64 195.615 319.532 196.095 319.532C196.807 319.532 197.343 319.752 197.703 320.192C198.071 320.624 198.255 321.3 198.255 322.22V322.952L198.279 326H197.223L197.247 322.952V322.232C197.247 321.624 197.115 321.172 196.851 320.876C196.595 320.572 196.239 320.42 195.783 320.42C195.463 320.42 195.167 320.508 194.895 320.684C194.631 320.852 194.419 321.092 194.259 321.404C194.107 321.716 194.031 322.076 194.031 322.484V322.952L194.055 326H192.999L193.023 322.952ZM202.219 328.076C201.691 328.076 201.231 327.984 200.839 327.8C200.447 327.624 200.147 327.388 199.939 327.092C199.731 326.804 199.627 326.496 199.627 326.168L200.599 325.892C200.599 326.3 200.743 326.624 201.031 326.864C201.319 327.112 201.715 327.236 202.219 327.236C202.707 327.236 203.079 327.132 203.335 326.924C203.591 326.724 203.763 326.456 203.851 326.12C203.939 325.792 203.983 325.384 203.983 324.896V324.584H203.959C203.807 324.872 203.563 325.132 203.227 325.364C202.891 325.588 202.471 325.7 201.967 325.7C201.151 325.7 200.519 325.428 200.071 324.884C199.623 324.332 199.399 323.576 199.399 322.616C199.399 322.048 199.495 321.532 199.687 321.068C199.879 320.596 200.167 320.224 200.551 319.952C200.935 319.672 201.399 319.532 201.943 319.532C202.455 319.532 202.879 319.644 203.215 319.868C203.551 320.092 203.799 320.348 203.959 320.636H203.983L203.971 319.688H205.051V324.632C205.051 325.824 204.823 326.696 204.367 327.248C203.911 327.8 203.195 328.076 202.219 328.076ZM200.455 322.616C200.455 323.296 200.607 323.836 200.911 324.236C201.215 324.636 201.639 324.836 202.183 324.836C202.679 324.836 203.103 324.664 203.455 324.32C203.815 323.976 203.995 323.408 203.995 322.616C203.995 322.264 203.931 321.92 203.803 321.584C203.683 321.24 203.487 320.956 203.215 320.732C202.943 320.508 202.599 320.396 202.183 320.396C201.663 320.396 201.243 320.6 200.923 321.008C200.611 321.408 200.455 321.944 200.455 322.616ZM210.037 320.504L208.813 320.528V319.688H209.977C209.961 319.536 209.953 319.396 209.953 319.268C209.953 318.66 210.121 318.188 210.457 317.852C210.793 317.516 211.237 317.348 211.789 317.348C212.213 317.348 212.633 317.44 213.049 317.624L212.845 318.392C212.485 318.288 212.173 318.236 211.909 318.236C211.573 318.236 211.329 318.324 211.177 318.5C211.033 318.668 210.961 318.924 210.961 319.268C210.961 319.396 210.969 319.536 210.985 319.688H212.845V320.528L211.045 320.504L211.069 326H210.013L210.037 320.504ZM213.671 322.964L213.647 319.688H214.703L214.667 320.684H214.691C214.811 320.364 215.031 320.092 215.351 319.868C215.679 319.644 216.075 319.532 216.539 319.532C216.715 319.532 216.871 319.548 217.007 319.58L216.995 320.576C216.803 320.52 216.631 320.492 216.479 320.492C215.903 320.492 215.459 320.684 215.147 321.068C214.835 321.452 214.679 322.02 214.679 322.772V322.952L214.703 326H213.647L213.671 322.964ZM220.316 326.18C219.716 326.18 219.192 326.044 218.744 325.772C218.304 325.5 217.964 325.116 217.724 324.62C217.492 324.116 217.376 323.524 217.376 322.844C217.376 322.172 217.492 321.588 217.724 321.092C217.964 320.588 218.304 320.204 218.744 319.94C219.192 319.668 219.716 319.532 220.316 319.532C220.916 319.532 221.44 319.668 221.888 319.94C222.336 320.204 222.68 320.588 222.92 321.092C223.16 321.588 223.28 322.172 223.28 322.844C223.28 323.524 223.16 324.116 222.92 324.62C222.68 325.116 222.336 325.5 221.888 325.772C221.44 326.044 220.916 326.18 220.316 326.18ZM218.432 322.844C218.432 323.62 218.6 324.224 218.936 324.656C219.272 325.088 219.732 325.304 220.316 325.304C220.908 325.304 221.372 325.088 221.708 324.656C222.052 324.224 222.224 323.62 222.224 322.844C222.224 322.084 222.052 321.488 221.708 321.056C221.372 320.624 220.908 320.408 220.316 320.408C219.732 320.408 219.272 320.624 218.936 321.056C218.6 321.48 218.432 322.076 218.432 322.844ZM224.441 322.952L224.417 319.688H225.461L225.437 320.648H225.461C225.629 320.328 225.881 320.064 226.217 319.856C226.561 319.64 226.949 319.532 227.381 319.532C227.789 319.532 228.137 319.648 228.425 319.88C228.721 320.104 228.933 320.444 229.061 320.9H229.085C229.285 320.484 229.565 320.152 229.925 319.904C230.285 319.656 230.693 319.532 231.149 319.532C231.717 319.532 232.165 319.744 232.493 320.168C232.829 320.584 232.997 321.212 232.997 322.052V322.952L233.021 326H231.965L231.989 322.952V322.064C231.989 321.512 231.885 321.1 231.677 320.828C231.469 320.556 231.189 320.42 230.837 320.42C230.557 320.42 230.293 320.508 230.045 320.684C229.797 320.852 229.597 321.096 229.445 321.416C229.293 321.728 229.217 322.084 229.217 322.484V322.952L229.241 326H228.185L228.209 322.952V322.064C228.209 321.52 228.105 321.112 227.897 320.84C227.689 320.56 227.413 320.42 227.069 320.42C226.789 320.42 226.521 320.508 226.265 320.684C226.017 320.852 225.817 321.096 225.665 321.416C225.513 321.728 225.437 322.084 225.437 322.484V322.952L225.461 326H224.417L224.441 322.952ZM161.864 339.836L161.84 335.684H162.968L162.932 339.296L165.056 339.32L167.18 339.296L167.156 335.684H168.284L168.248 339.836L168.284 344H167.156L167.18 340.28L165.056 340.256L162.932 340.28L162.968 344H161.84L161.864 339.836ZM170.657 346.04C170.513 346.04 170.349 346.024 170.165 345.992C169.981 345.968 169.825 345.936 169.697 345.896L169.877 345.08C170.157 345.136 170.393 345.164 170.585 345.164C170.841 345.164 171.049 345.076 171.209 344.9C171.377 344.732 171.537 344.44 171.689 344.024L169.181 337.688H170.273L172.169 342.572H172.193L173.909 337.688H174.977L172.613 344.204C172.341 344.948 172.033 345.44 171.689 345.68C171.353 345.92 171.009 346.04 170.657 346.04ZM175.843 341.312L175.819 337.688H176.911L176.887 338.624H176.911C177.055 338.336 177.299 338.084 177.643 337.868C177.987 337.644 178.407 337.532 178.903 337.532C179.727 337.532 180.359 337.816 180.799 338.384C181.247 338.952 181.471 339.768 181.471 340.832C181.471 341.904 181.247 342.732 180.799 343.316C180.359 343.892 179.727 344.18 178.903 344.18C178.407 344.18 177.991 344.068 177.655 343.844C177.319 343.612 177.067 343.344 176.899 343.04H176.875L176.911 345.92H175.819L175.843 341.312ZM176.875 340.856C176.875 341.744 177.051 342.376 177.403 342.752C177.763 343.128 178.179 343.316 178.651 343.316C179.219 343.316 179.655 343.104 179.959 342.68C180.263 342.248 180.415 341.632 180.415 340.832C180.415 340.04 180.263 339.436 179.959 339.02C179.655 338.604 179.219 338.396 178.651 338.396C178.147 338.396 177.723 338.604 177.379 339.02C177.043 339.436 176.875 340.048 176.875 340.856ZM185.148 344.18C184.548 344.18 184.024 344.044 183.576 343.772C183.136 343.5 182.796 343.116 182.556 342.62C182.316 342.116 182.196 341.528 182.196 340.856C182.196 339.832 182.448 339.024 182.952 338.432C183.456 337.832 184.156 337.532 185.052 337.532C186.012 337.532 186.7 337.872 187.116 338.552C187.532 339.232 187.74 340.092 187.74 341.132H183.264C183.304 341.812 183.492 342.344 183.828 342.728C184.164 343.112 184.604 343.304 185.148 343.304C185.588 343.304 185.948 343.168 186.228 342.896C186.516 342.624 186.704 342.24 186.792 341.744L187.704 341.984C187.608 342.6 187.34 343.12 186.9 343.544C186.46 343.968 185.876 344.18 185.148 344.18ZM186.684 340.292C186.676 339.732 186.528 339.28 186.24 338.936C185.952 338.584 185.56 338.408 185.064 338.408C184.576 338.408 184.176 338.568 183.864 338.888C183.552 339.2 183.36 339.668 183.288 340.292H186.684ZM193.507 344.18C192.851 344.18 192.347 344.016 191.995 343.688C191.643 343.352 191.467 342.916 191.467 342.38C191.467 341.908 191.587 341.524 191.827 341.228C192.067 340.932 192.447 340.712 192.967 340.568C193.495 340.424 194.191 340.352 195.055 340.352H195.607V340.184C195.607 339.6 195.491 339.152 195.259 338.84C195.027 338.528 194.643 338.372 194.107 338.372C193.715 338.372 193.395 338.46 193.147 338.636C192.907 338.804 192.735 339.016 192.631 339.272C192.527 339.52 192.479 339.776 192.487 340.04L191.575 339.812C191.575 339.38 191.679 338.992 191.887 338.648C192.095 338.304 192.391 338.032 192.775 337.832C193.159 337.632 193.603 337.532 194.107 337.532C195.763 337.532 196.591 338.34 196.591 339.956V342.752C196.591 342.968 196.627 343.124 196.699 343.22C196.779 343.308 196.919 343.352 197.119 343.352C197.247 343.352 197.371 343.328 197.491 343.28L197.647 343.976C197.375 344.072 197.111 344.12 196.855 344.12C196.527 344.12 196.271 344.024 196.087 343.832C195.903 343.64 195.811 343.364 195.811 343.004C195.811 342.876 195.819 342.756 195.835 342.644H195.811C195.595 343.124 195.295 343.5 194.911 343.772C194.527 344.044 194.059 344.18 193.507 344.18ZM192.511 342.368C192.511 342.656 192.611 342.888 192.811 343.064C193.019 343.232 193.299 343.316 193.651 343.316C193.979 343.316 194.291 343.228 194.587 343.052C194.891 342.876 195.135 342.632 195.319 342.32C195.511 342 195.607 341.636 195.607 341.228V341.108H195.319C194.647 341.108 194.107 341.144 193.699 341.216C193.299 341.288 192.999 341.416 192.799 341.6C192.607 341.784 192.511 342.04 192.511 342.368ZM198.39 340.952L198.366 337.688H199.422L199.398 338.648H199.422C199.59 338.328 199.85 338.064 200.202 337.856C200.562 337.64 200.982 337.532 201.462 337.532C202.174 337.532 202.71 337.752 203.07 338.192C203.438 338.624 203.622 339.3 203.622 340.22V340.952L203.646 344H202.59L202.614 340.952V340.232C202.614 339.624 202.482 339.172 202.218 338.876C201.962 338.572 201.606 338.42 201.15 338.42C200.83 338.42 200.534 338.508 200.262 338.684C199.998 338.852 199.786 339.092 199.626 339.404C199.474 339.716 199.398 340.076 199.398 340.484V340.952L199.422 344H198.366L198.39 340.952ZM207.334 344.18C206.51 344.18 205.874 343.892 205.426 343.316C204.986 342.74 204.766 341.92 204.766 340.856C204.766 339.792 204.986 338.972 205.426 338.396C205.874 337.82 206.51 337.532 207.334 337.532C207.83 337.532 208.246 337.644 208.582 337.868C208.926 338.092 209.178 338.352 209.338 338.648H209.362L209.326 335.672H210.418L210.394 340.376L210.418 344H209.326L209.35 343.064H209.326C209.182 343.352 208.938 343.612 208.594 343.844C208.25 344.068 207.83 344.18 207.334 344.18ZM205.822 340.856C205.822 341.648 205.974 342.256 206.278 342.68C206.582 343.104 207.018 343.316 207.586 343.316C208.058 343.316 208.47 343.132 208.822 342.764C209.182 342.388 209.362 341.744 209.362 340.832C209.362 340.024 209.19 339.416 208.846 339.008C208.51 338.6 208.09 338.396 207.586 338.396C207.018 338.396 206.582 338.608 206.278 339.032C205.974 339.456 205.822 340.064 205.822 340.856ZM215.126 339.836L215.102 335.684H220.346V336.668H216.206L216.194 339.332H220.094V340.292H216.194L216.23 344H215.102L215.126 339.836ZM223.691 344.18C223.091 344.18 222.567 344.044 222.119 343.772C221.679 343.5 221.339 343.116 221.099 342.62C220.859 342.116 220.739 341.528 220.739 340.856C220.739 339.832 220.991 339.024 221.495 338.432C221.999 337.832 222.699 337.532 223.595 337.532C224.555 337.532 225.243 337.872 225.659 338.552C226.075 339.232 226.283 340.092 226.283 341.132H221.807C221.847 341.812 222.035 342.344 222.371 342.728C222.707 343.112 223.147 343.304 223.691 343.304C224.131 343.304 224.491 343.168 224.771 342.896C225.059 342.624 225.247 342.24 225.335 341.744L226.247 341.984C226.151 342.6 225.883 343.12 225.443 343.544C225.003 343.968 224.419 344.18 223.691 344.18ZM225.227 340.292C225.219 339.732 225.071 339.28 224.783 338.936C224.495 338.584 224.103 338.408 223.607 338.408C223.119 338.408 222.719 338.568 222.407 338.888C222.095 339.2 221.903 339.668 221.831 340.292H225.227ZM229.108 344.18C228.452 344.18 227.948 344.016 227.596 343.688C227.244 343.352 227.068 342.916 227.068 342.38C227.068 341.908 227.188 341.524 227.428 341.228C227.668 340.932 228.048 340.712 228.568 340.568C229.096 340.424 229.792 340.352 230.656 340.352H231.208V340.184C231.208 339.6 231.092 339.152 230.86 338.84C230.628 338.528 230.244 338.372 229.708 338.372C229.316 338.372 228.996 338.46 228.748 338.636C228.508 338.804 228.336 339.016 228.232 339.272C228.128 339.52 228.08 339.776 228.088 340.04L227.176 339.812C227.176 339.38 227.28 338.992 227.488 338.648C227.696 338.304 227.992 338.032 228.376 337.832C228.76 337.632 229.204 337.532 229.708 337.532C231.364 337.532 232.192 338.34 232.192 339.956V342.752C232.192 342.968 232.228 343.124 232.3 343.22C232.38 343.308 232.52 343.352 232.72 343.352C232.848 343.352 232.972 343.328 233.092 343.28L233.248 343.976C232.976 344.072 232.712 344.12 232.456 344.12C232.128 344.12 231.872 344.024 231.688 343.832C231.504 343.64 231.412 343.364 231.412 343.004C231.412 342.876 231.42 342.756 231.436 342.644H231.412C231.196 343.124 230.896 343.5 230.512 343.772C230.128 344.044 229.66 344.18 229.108 344.18ZM228.112 342.368C228.112 342.656 228.212 342.888 228.412 343.064C228.62 343.232 228.9 343.316 229.252 343.316C229.58 343.316 229.892 343.228 230.188 343.052C230.492 342.876 230.736 342.632 230.92 342.32C231.112 342 231.208 341.636 231.208 341.228V341.108H230.92C230.248 341.108 229.708 341.144 229.3 341.216C228.9 341.288 228.6 341.416 228.4 341.6C228.208 341.784 228.112 342.04 228.112 342.368ZM233.992 340.964L233.968 337.688H235.024L234.988 338.684H235.012C235.132 338.364 235.352 338.092 235.672 337.868C236 337.644 236.396 337.532 236.86 337.532C237.036 337.532 237.192 337.548 237.328 337.58L237.316 338.576C237.124 338.52 236.952 338.492 236.8 338.492C236.224 338.492 235.78 338.684 235.468 339.068C235.156 339.452 235 340.02 235 340.772V340.952L235.024 344H233.968L233.992 340.964Z" fill="black"/>
<path d="M154.43 330.715C154.43 339.394 147.394 346.43 138.715 346.43C130.036 346.43 123 339.394 123 330.715C123 322.036 130.036 315 138.715 315C147.394 315 154.43 322.036 154.43 330.715Z" fill="#F4F4F4"/>
<path d="M139.668 322.825V324.294C140.787 324.434 141.684 324.81 142.359 325.42C143.033 326.031 143.465 326.807 143.656 327.748L141.347 328.397C141.284 327.952 141.106 327.551 140.813 327.195C140.533 326.839 140.151 326.591 139.668 326.451V329.427C141.156 329.771 142.231 330.235 142.893 330.82C143.554 331.393 143.885 332.15 143.885 333.091C143.885 334.173 143.497 335.019 142.721 335.629C141.945 336.227 140.927 336.577 139.668 336.679V338.148H138.332V336.679C137.098 336.577 136.093 336.208 135.317 335.572C134.554 334.936 134.07 334.045 133.867 332.9L136.042 332.29C136.208 332.939 136.469 333.448 136.825 333.816C137.181 334.185 137.683 334.427 138.332 334.542V331.431C137.009 331.151 136.017 330.712 135.355 330.114C134.707 329.517 134.382 328.734 134.382 327.767C134.382 326.686 134.732 325.846 135.432 325.248C136.131 324.638 137.098 324.301 138.332 324.237V322.825H139.668ZM136.863 327.71C136.863 328.066 136.971 328.346 137.187 328.55C137.404 328.753 137.785 328.938 138.332 329.103V326.317C137.874 326.368 137.512 326.514 137.245 326.756C136.99 326.998 136.863 327.316 136.863 327.71ZM139.668 334.58C140.253 334.529 140.686 334.383 140.966 334.141C141.245 333.886 141.385 333.562 141.385 333.168C141.385 332.862 141.252 332.595 140.985 332.366C140.718 332.124 140.279 331.915 139.668 331.736V334.58Z" fill="#141414"/>
<path d="M13 61V246" stroke="white"/>
<path d="M13 65C15.2091 65 17 63.2091 17 61C17 58.7909 15.2091 57 13 57C10.7909 57 9 58.7909 9 61C9 63.2091 10.7909 65 13 65Z" fill="white"/>
<path d="M204 0H13C7.47715 0 3 4.47715 3 10V42C3 47.5228 7.47715 52 13 52H204C209.523 52 214 47.5228 214 42V10C214 4.47715 209.523 0 204 0Z" fill="white"/>
<path d="M52.6001 21.1799C51.6241 21.1799 50.8601 20.9559 50.3081 20.5079C49.7641 20.0519 49.4481 19.4319 49.3601 18.6479L50.3441 18.4079C50.4561 19.0079 50.6801 19.4559 51.0161 19.7519C51.3521 20.0479 51.8801 20.1959 52.6001 20.1959C53.1681 20.1959 53.6041 20.0679 53.9081 19.8119C54.2121 19.5479 54.3641 19.2079 54.3641 18.7919C54.3641 18.3919 54.2121 18.0759 53.9081 17.8439C53.6041 17.6039 53.0921 17.3999 52.3721 17.2319C51.3961 16.9999 50.6961 16.6919 50.2721 16.3079C49.8561 15.9239 49.6481 15.4079 49.6481 14.7599C49.6481 14.0399 49.8761 13.4839 50.3321 13.0919C50.7961 12.6999 51.4321 12.5039 52.2401 12.5039C53.1601 12.5039 53.8841 12.7239 54.4121 13.1639C54.9481 13.5959 55.2601 14.1759 55.3481 14.9039L54.3161 15.1439C54.2681 14.6559 54.0681 14.2599 53.7161 13.9559C53.3721 13.6439 52.8961 13.4879 52.2881 13.4879C51.8161 13.4879 51.4401 13.5959 51.1601 13.8119C50.8881 14.0279 50.7521 14.3319 50.7521 14.7239C50.7521 14.9879 50.8201 15.2079 50.9561 15.3839C51.0921 15.5599 51.3001 15.7119 51.5801 15.8399C51.8681 15.9599 52.2641 16.0799 52.7681 16.1999C53.4321 16.3599 53.9561 16.5479 54.3401 16.7639C54.7321 16.9799 55.0161 17.2479 55.1921 17.5679C55.3761 17.8879 55.4681 18.2879 55.4681 18.7679C55.4681 19.5279 55.2001 20.1199 54.6641 20.5439C54.1361 20.9679 53.4481 21.1799 52.6001 21.1799ZM59.2613 21.1799C58.6613 21.1799 58.1373 21.0439 57.6893 20.7719C57.2493 20.4999 56.9093 20.1159 56.6693 19.6199C56.4293 19.1159 56.3093 18.5279 56.3093 17.8559C56.3093 16.8319 56.5613 16.0239 57.0653 15.4319C57.5693 14.8319 58.2693 14.5319 59.1653 14.5319C60.1253 14.5319 60.8133 14.8719 61.2293 15.5519C61.6453 16.2319 61.8533 17.0919 61.8533 18.1319H57.3773C57.4173 18.8119 57.6053 19.3439 57.9413 19.7279C58.2773 20.1119 58.7173 20.3039 59.2613 20.3039C59.7013 20.3039 60.0613 20.1679 60.3413 19.8959C60.6293 19.6239 60.8173 19.2399 60.9053 18.7439L61.8173 18.9839C61.7213 19.5999 61.4533 20.1199 61.0133 20.5439C60.5733 20.9679 59.9893 21.1799 59.2613 21.1799ZM60.7973 17.2919C60.7893 16.7319 60.6413 16.2799 60.3533 15.9359C60.0653 15.5839 59.6733 15.4079 59.1773 15.4079C58.6893 15.4079 58.2893 15.5679 57.9773 15.8879C57.6653 16.1999 57.4733 16.6679 57.4013 17.2919H60.7973ZM63.0229 17.8439L62.9989 14.6879H64.0549L64.0309 17.8439L64.0549 20.9999H62.9989L63.0229 17.8439ZM62.8789 13.2839C62.8789 12.8519 63.0949 12.6359 63.5269 12.6359C63.9589 12.6359 64.1749 12.8519 64.1749 13.2839C64.1749 13.7239 63.9589 13.9439 63.5269 13.9439C63.0949 13.9439 62.8789 13.7239 62.8789 13.2839ZM65.1321 20.2079L68.6721 15.5639H65.1681V14.6879H69.9561V15.4919L66.4401 20.1239H70.0281V20.9999H65.1321V20.2079ZM71.1322 17.8439L71.1082 14.6879H72.1642L72.1402 17.8439L72.1642 20.9999H71.1082L71.1322 17.8439ZM70.9882 13.2839C70.9882 12.8519 71.2042 12.6359 71.6362 12.6359C72.0682 12.6359 72.2842 12.8519 72.2842 13.2839C72.2842 13.7239 72.0682 13.9439 71.6362 13.9439C71.2042 13.9439 70.9882 13.7239 70.9882 13.2839ZM73.7455 17.9519L73.7215 14.6879H74.7775L74.7535 15.6479H74.7775C74.9455 15.3279 75.2055 15.0639 75.5575 14.8559C75.9175 14.6399 76.3375 14.5319 76.8175 14.5319C77.5295 14.5319 78.0655 14.7519 78.4255 15.1919C78.7935 15.6239 78.9775 16.2999 78.9775 17.2199V17.9519L79.0015 20.9999H77.9455L77.9695 17.9519V17.2319C77.9695 16.6239 77.8375 16.1719 77.5735 15.8759C77.3175 15.5719 76.9615 15.4199 76.5055 15.4199C76.1855 15.4199 75.8895 15.5079 75.6175 15.6839C75.3535 15.8519 75.1415 16.0919 74.9815 16.4039C74.8295 16.7159 74.7535 17.0759 74.7535 17.4839V17.9519L74.7775 20.9999H73.7215L73.7455 17.9519ZM82.9418 23.0759C82.4138 23.0759 81.9538 22.9839 81.5618 22.7999C81.1698 22.6239 80.8698 22.3879 80.6618 22.0919C80.4538 21.8039 80.3498 21.4959 80.3498 21.1679L81.3218 20.8919C81.3218 21.2999 81.4658 21.6239 81.7538 21.8639C82.0418 22.1119 82.4378 22.2359 82.9418 22.2359C83.4298 22.2359 83.8018 22.1319 84.0578 21.9239C84.3138 21.7239 84.4858 21.4559 84.5738 21.1199C84.6618 20.7919 84.7058 20.3839 84.7058 19.8959V19.5839H84.6818C84.5298 19.8719 84.2858 20.1319 83.9498 20.3639C83.6138 20.5879 83.1938 20.6999 82.6898 20.6999C81.8738 20.6999 81.2418 20.4279 80.7938 19.8839C80.3458 19.3319 80.1218 18.5759 80.1218 17.6159C80.1218 17.0479 80.2178 16.5319 80.4098 16.0679C80.6018 15.5959 80.8898 15.2239 81.2738 14.9519C81.6578 14.6719 82.1218 14.5319 82.6658 14.5319C83.1778 14.5319 83.6018 14.6439 83.9378 14.8679C84.2738 15.0919 84.5218 15.3479 84.6818 15.6359H84.7058L84.6938 14.6879H85.7738V19.6319C85.7738 20.8239 85.5458 21.6959 85.0898 22.2479C84.6338 22.7999 83.9178 23.0759 82.9418 23.0759ZM81.1778 17.6159C81.1778 18.2959 81.3298 18.8359 81.6338 19.2359C81.9378 19.6359 82.3618 19.8359 82.9058 19.8359C83.4018 19.8359 83.8258 19.6639 84.1778 19.3199C84.5378 18.9759 84.7178 18.4079 84.7178 17.6159C84.7178 17.2639 84.6538 16.9199 84.5258 16.5839C84.4058 16.2399 84.2098 15.9559 83.9378 15.7319C83.6658 15.5079 83.3218 15.3959 82.9058 15.3959C82.3858 15.3959 81.9658 15.5999 81.6458 16.0079C81.3338 16.4079 81.1778 16.9439 81.1778 17.6159ZM90.4213 17.9519L90.3973 14.6879H91.4413L91.4173 15.6479H91.4413C91.6093 15.3279 91.8613 15.0639 92.1973 14.8559C92.5413 14.6399 92.9293 14.5319 93.3611 14.5319C93.7691 14.5319 94.1171 14.6479 94.4051 14.8799C94.7011 15.1039 94.9131 15.4439 95.0411 15.8999H95.0651C95.2651 15.4839 95.5451 15.1519 95.9051 14.9039C96.2651 14.6559 96.6731 14.5319 97.1291 14.5319C97.6971 14.5319 98.1451 14.7439 98.4731 15.1679C98.8091 15.5839 98.9771 16.2119 98.9771 17.0519V17.9519L99.0011 20.9999H97.9451L97.9691 17.9519V17.0639C97.9691 16.5119 97.8651 16.0999 97.6571 15.8279C97.4491 15.5559 97.1691 15.4199 96.8171 15.4199C96.5371 15.4199 96.2731 15.5079 96.0251 15.6839C95.7771 15.8519 95.5771 16.0959 95.4251 16.4159C95.2731 16.7279 95.1971 17.0839 95.1971 17.4839V17.9519L95.2211 20.9999H94.1651L94.1891 17.9519V17.0639C94.1891 16.5199 94.0851 16.1119 93.8771 15.8399C93.6691 15.5599 93.3931 15.4199 93.0491 15.4199C92.7693 15.4199 92.5013 15.5079 92.2453 15.6839C91.9973 15.8519 91.7973 16.0959 91.6453 16.4159C91.4933 16.7279 91.4173 17.0839 91.4173 17.4839V17.9519L91.4413 20.9999H90.3973L90.4213 17.9519ZM102.214 21.1799C101.558 21.1799 101.054 21.0159 100.702 20.6879C100.35 20.3519 100.174 19.9159 100.174 19.3799C100.174 18.9079 100.294 18.5239 100.534 18.2279C100.774 17.9319 101.154 17.7119 101.674 17.5679C102.202 17.4239 102.898 17.3519 103.762 17.3519H104.314V17.1839C104.314 16.5999 104.198 16.1519 103.966 15.8399C103.734 15.5279 103.35 15.3719 102.814 15.3719C102.422 15.3719 102.102 15.4599 101.854 15.6359C101.614 15.8039 101.442 16.0159 101.338 16.2719C101.234 16.5199 101.186 16.7759 101.194 17.0399L100.282 16.8119C100.282 16.3799 100.386 15.9919 100.594 15.6479C100.802 15.3039 101.098 15.0319 101.482 14.8319C101.866 14.6319 102.31 14.5319 102.814 14.5319C104.47 14.5319 105.298 15.3399 105.298 16.9559V19.7519C105.298 19.9679 105.334 20.1239 105.406 20.2199C105.486 20.3079 105.626 20.3519 105.826 20.3519C105.954 20.3519 106.078 20.3279 106.198 20.2799L106.354 20.9759C106.082 21.0719 105.818 21.1199 105.562 21.1199C105.234 21.1199 104.978 21.0239 104.794 20.8319C104.61 20.6399 104.518 20.3639 104.518 20.0039C104.518 19.8759 104.526 19.7559 104.542 19.6439H104.518C104.302 20.1239 104.002 20.4999 103.618 20.7719C103.234 21.0439 102.766 21.1799 102.214 21.1799ZM101.218 19.3679C101.218 19.6559 101.318 19.8879 101.518 20.0639C101.726 20.2319 102.006 20.3159 102.358 20.3159C102.686 20.3159 102.998 20.2279 103.294 20.0519C103.598 19.8759 103.842 19.6319 104.026 19.3199C104.218 18.9999 104.314 18.6359 104.314 18.2279V18.1079H104.026C103.354 18.1079 102.814 18.1439 102.406 18.2159C102.006 18.2879 101.706 18.4159 101.506 18.5999C101.314 18.7839 101.218 19.0399 101.218 19.3679ZM107.097 17.9639L107.073 14.6879H108.129L108.093 15.6839H108.117C108.237 15.3639 108.457 15.0919 108.777 14.8679C109.105 14.6439 109.501 14.5319 109.965 14.5319C110.141 14.5319 110.297 14.5479 110.433 14.5799L110.421 15.5759C110.229 15.5199 110.057 15.4919 109.905 15.4919C109.329 15.4919 108.885 15.6839 108.573 16.0679C108.261 16.4519 108.105 17.0199 108.105 17.7719V17.9519L108.129 20.9999H107.073L107.097 17.9639ZM111.363 16.7759L111.339 12.6719H112.395L112.371 16.7759V17.5799L115.011 14.6879H116.271L114.087 17.0039L116.643 20.9999H115.431L113.379 17.7599L112.383 18.8279L112.395 20.9999H111.339L111.363 16.7759ZM119.824 21.1799C119.224 21.1799 118.7 21.0439 118.252 20.7719C117.812 20.4999 117.472 20.1159 117.232 19.6199C116.992 19.1159 116.872 18.5279 116.872 17.8559C116.872 16.8319 117.124 16.0239 117.628 15.4319C118.132 14.8319 118.832 14.5319 119.728 14.5319C120.688 14.5319 121.376 14.8719 121.792 15.5519C122.208 16.2319 122.416 17.0919 122.416 18.1319H117.94C117.98 18.8119 118.168 19.3439 118.504 19.7279C118.84 20.1119 119.28 20.3039 119.824 20.3039C120.264 20.3039 120.624 20.1679 120.904 19.8959C121.192 19.6239 121.38 19.2399 121.468 18.7439L122.38 18.9839C122.284 19.5999 122.016 20.1199 121.576 20.5439C121.136 20.9679 120.552 21.1799 119.824 21.1799ZM121.36 17.2919C121.352 16.7319 121.204 16.2799 120.916 15.9359C120.628 15.5839 120.236 15.4079 119.74 15.4079C119.252 15.4079 118.852 15.5679 118.54 15.8879C118.228 16.1999 118.036 16.6679 117.964 17.2919H121.36ZM125.543 21.1799C124.967 21.1799 124.543 21.0719 124.271 20.8559C123.999 20.6319 123.831 20.3599 123.767 20.0399C123.703 19.7119 123.671 19.2839 123.671 18.7559V15.5039L122.711 15.5279V14.6879H123.671V12.6599H124.727V14.6879H126.671V15.5279L124.727 15.5039V18.8999C124.727 19.4039 124.787 19.7679 124.907 19.9919C125.035 20.2079 125.283 20.3159 125.651 20.3159C126.003 20.3159 126.327 20.2639 126.623 20.1599L126.815 20.9399C126.399 21.0999 125.975 21.1799 125.543 21.1799ZM133.113 21.1799C132.513 21.1799 131.989 21.0439 131.541 20.7719C131.101 20.4999 130.761 20.1159 130.521 19.6199C130.289 19.1159 130.173 18.5239 130.173 17.8439C130.173 17.1719 130.289 16.5879 130.521 16.0919C130.761 15.5879 131.101 15.2039 131.541 14.9399C131.989 14.6679 132.513 14.5319 133.113 14.5319C133.713 14.5319 134.237 14.6679 134.685 14.9399C135.133 15.2039 135.477 15.5879 135.717 16.0919C135.957 16.5879 136.077 17.1719 136.077 17.8439C136.077 18.5239 135.957 19.1159 135.717 19.6199C135.477 20.1159 135.133 20.4999 134.685 20.7719C134.237 21.0439 133.713 21.1799 133.113 21.1799ZM131.229 17.8439C131.229 18.6199 131.397 19.2239 131.733 19.6559C132.069 20.0879 132.529 20.3039 133.113 20.3039C133.705 20.3039 134.169 20.0879 134.505 19.6559C134.849 19.2239 135.021 18.6199 135.021 17.8439C135.021 17.0839 134.849 16.4879 134.505 16.0559C134.169 15.6239 133.705 15.4079 133.113 15.4079C132.529 15.4079 132.069 15.6239 131.733 16.0559C131.397 16.4799 131.229 17.0759 131.229 17.8439ZM137.238 18.3119L137.214 14.6879H138.306L138.282 15.6239H138.306C138.45 15.3359 138.694 15.0839 139.038 14.8679C139.382 14.6439 139.802 14.5319 140.298 14.5319C141.122 14.5319 141.754 14.8159 142.194 15.3839C142.642 15.9519 142.866 16.7679 142.866 17.8319C142.866 18.9039 142.642 19.7319 142.194 20.3159C141.754 20.8919 141.122 21.1799 140.298 21.1799C139.802 21.1799 139.386 21.0679 139.05 20.8439C138.714 20.6119 138.462 20.3439 138.294 20.0399H138.27L138.306 22.9199H137.214L137.238 18.3119ZM138.27 17.8559C138.27 18.7439 138.446 19.3759 138.798 19.7519C139.158 20.1279 139.574 20.3159 140.046 20.3159C140.614 20.3159 141.05 20.1039 141.354 19.6799C141.658 19.2479 141.81 18.6319 141.81 17.8319C141.81 17.0399 141.658 16.4359 141.354 16.0199C141.05 15.6039 140.614 15.3959 140.046 15.3959C139.542 15.3959 139.118 15.6039 138.774 16.0199C138.438 16.4359 138.27 17.0479 138.27 17.8559ZM144.034 18.3119L144.01 14.6879H145.102L145.078 15.6239H145.102C145.246 15.3359 145.49 15.0839 145.834 14.8679C146.178 14.6439 146.598 14.5319 147.094 14.5319C147.918 14.5319 148.55 14.8159 148.99 15.3839C149.438 15.9519 149.662 16.7679 149.662 17.8319C149.662 18.9039 149.438 19.7319 148.99 20.3159C148.55 20.8919 147.918 21.1799 147.094 21.1799C146.598 21.1799 146.182 21.0679 145.846 20.8439C145.51 20.6119 145.258 20.3439 145.09 20.0399H145.066L145.102 22.9199H144.01L144.034 18.3119ZM145.066 17.8559C145.066 18.7439 145.242 19.3759 145.594 19.7519C145.954 20.1279 146.37 20.3159 146.842 20.3159C147.41 20.3159 147.846 20.1039 148.15 19.6799C148.454 19.2479 148.606 18.6319 148.606 17.8319C148.606 17.0399 148.454 16.4359 148.15 16.0199C147.846 15.6039 147.41 15.3959 146.842 15.3959C146.338 15.3959 145.914 15.6039 145.57 16.0199C145.234 16.4359 145.066 17.0479 145.066 17.8559ZM153.327 21.1799C152.727 21.1799 152.203 21.0439 151.755 20.7719C151.315 20.4999 150.975 20.1159 150.735 19.6199C150.503 19.1159 150.387 18.5239 150.387 17.8439C150.387 17.1719 150.503 16.5879 150.735 16.0919C150.975 15.5879 151.315 15.2039 151.755 14.9399C152.203 14.6679 152.727 14.5319 153.327 14.5319C153.927 14.5319 154.451 14.6679 154.899 14.9399C155.347 15.2039 155.691 15.5879 155.931 16.0919C156.171 16.5879 156.291 17.1719 156.291 17.8439C156.291 18.5239 156.171 19.1159 155.931 19.6199C155.691 20.1159 155.347 20.4999 154.899 20.7719C154.451 21.0439 153.927 21.1799 153.327 21.1799ZM151.443 17.8439C151.443 18.6199 151.611 19.2239 151.947 19.6559C152.283 20.0879 152.743 20.3039 153.327 20.3039C153.919 20.3039 154.383 20.0879 154.719 19.6559C155.063 19.2239 155.235 18.6199 155.235 17.8439C155.235 17.0839 155.063 16.4879 154.719 16.0559C154.383 15.6239 153.919 15.4079 153.327 15.4079C152.743 15.4079 152.283 15.6239 151.947 16.0559C151.611 16.4799 151.443 17.0759 151.443 17.8439ZM157.452 17.9639L157.428 14.6879H158.484L158.448 15.6839H158.472C158.592 15.3639 158.812 15.0919 159.132 14.8679C159.46 14.6439 159.856 14.5319 160.32 14.5319C160.496 14.5319 160.652 14.5479 160.788 14.5799L160.776 15.5759C160.584 15.5199 160.412 15.4919 160.26 15.4919C159.684 15.4919 159.24 15.6839 158.928 16.0679C158.616 16.4519 158.46 17.0199 158.46 17.7719V17.9519L158.484 20.9999H157.428L157.452 17.9639ZM163.922 21.1799C163.346 21.1799 162.922 21.0719 162.65 20.8559C162.378 20.6319 162.21 20.3599 162.146 20.0399C162.082 19.7119 162.05 19.2839 162.05 18.7559V15.5039L161.09 15.5279V14.6879H162.05V12.6599H163.106V14.6879H165.05V15.5279L163.106 15.5039V18.8999C163.106 19.4039 163.166 19.7679 163.286 19.9919C163.414 20.2079 163.662 20.3159 164.03 20.3159C164.382 20.3159 164.706 20.2639 165.002 20.1599L165.194 20.9399C164.778 21.0999 164.354 21.1799 163.922 21.1799ZM171.132 17.7359L171.156 20.9999H170.1L170.124 20.0399H170.1C169.932 20.3599 169.672 20.6279 169.32 20.8439C168.976 21.0519 168.576 21.1559 168.12 21.1559C167.408 21.1559 166.868 20.9399 166.5 20.5079C166.14 20.0679 165.96 19.3879 165.96 18.4679V17.7359L165.936 14.6879H166.992L166.968 17.7359V18.4559C166.968 19.0639 167.096 19.5199 167.352 19.8239C167.616 20.1199 167.976 20.2679 168.432 20.2679C168.736 20.2679 169.016 20.1839 169.272 20.0159C169.528 19.8399 169.732 19.5959 169.884 19.2839C170.044 18.9639 170.124 18.6039 170.124 18.2039V17.7359L170.1 14.6879H171.156L171.132 17.7359ZM172.745 17.9519L172.721 14.6879H173.777L173.753 15.6479H173.777C173.945 15.3279 174.205 15.0639 174.557 14.8559C174.917 14.6399 175.337 14.5319 175.817 14.5319C176.529 14.5319 177.065 14.7519 177.425 15.1919C177.793 15.6239 177.977 16.2999 177.977 17.2199V17.9519L178.001 20.9999H176.945L176.969 17.9519V17.2319C176.969 16.6239 176.837 16.1719 176.573 15.8759C176.317 15.5719 175.961 15.4199 175.505 15.4199C175.185 15.4199 174.889 15.5079 174.617 15.6839C174.353 15.8519 174.141 16.0919 173.981 16.4039C173.829 16.7159 173.753 17.0759 173.753 17.4839V17.9519L173.777 20.9999H172.721L172.745 17.9519ZM179.566 17.8439L179.542 14.6879H180.598L180.574 17.8439L180.598 20.9999H179.542L179.566 17.8439ZM179.422 13.2839C179.422 12.8519 179.638 12.6359 180.07 12.6359C180.502 12.6359 180.718 12.8519 180.718 13.2839C180.718 13.7239 180.502 13.9439 180.07 13.9439C179.638 13.9439 179.422 13.7239 179.422 13.2839ZM184.207 21.1799C183.631 21.1799 183.207 21.0719 182.935 20.8559C182.663 20.6319 182.495 20.3599 182.431 20.0399C182.367 19.7119 182.335 19.2839 182.335 18.7559V15.5039L181.375 15.5279V14.6879H182.335V12.6599H183.391V14.6879H185.335V15.5279L183.391 15.5039V18.8999C183.391 19.4039 183.451 19.7679 183.571 19.9919C183.699 20.2079 183.947 20.3159 184.315 20.3159C184.667 20.3159 184.991 20.2639 185.287 20.1599L185.479 20.9399C185.063 21.0999 184.639 21.1799 184.207 21.1799ZM186.339 17.8439L186.315 14.6879H187.371L187.347 17.8439L187.371 20.9999H186.315L186.339 17.8439ZM186.195 13.2839C186.195 12.8519 186.411 12.6359 186.843 12.6359C187.275 12.6359 187.491 12.8519 187.491 13.2839C187.491 13.7239 187.275 13.9439 186.843 13.9439C186.411 13.9439 186.195 13.7239 186.195 13.2839ZM191.46 21.1799C190.86 21.1799 190.336 21.0439 189.888 20.7719C189.448 20.4999 189.108 20.1159 188.868 19.6199C188.628 19.1159 188.508 18.5279 188.508 17.8559C188.508 16.8319 188.76 16.0239 189.264 15.4319C189.768 14.8319 190.468 14.5319 191.364 14.5319C192.324 14.5319 193.012 14.8719 193.428 15.5519C193.844 16.2319 194.052 17.0919 194.052 18.1319H189.576C189.616 18.8119 189.804 19.3439 190.14 19.7279C190.476 20.1119 190.916 20.3039 191.46 20.3039C191.9 20.3039 192.26 20.1679 192.54 19.8959C192.828 19.6239 193.016 19.2399 193.104 18.7439L194.016 18.9839C193.92 19.5999 193.652 20.1199 193.212 20.5439C192.772 20.9679 192.188 21.1799 191.46 21.1799ZM192.996 17.2919C192.988 16.7319 192.84 16.2799 192.552 15.9359C192.264 15.5839 191.872 15.4079 191.376 15.4079C190.888 15.4079 190.488 15.5679 190.176 15.8879C189.864 16.1999 189.672 16.6679 189.6 17.2919H192.996ZM197.154 21.1799C196.394 21.1799 195.79 21.0159 195.342 20.6879C194.902 20.3519 194.654 19.8479 194.598 19.1759L195.522 18.9479C195.506 19.3559 195.642 19.6839 195.93 19.9319C196.218 20.1799 196.638 20.3039 197.19 20.3039C197.606 20.3039 197.926 20.2239 198.15 20.0639C198.382 19.9039 198.498 19.6599 198.498 19.3319C198.498 19.0439 198.382 18.8159 198.15 18.6479C197.926 18.4719 197.57 18.3439 197.082 18.2639C196.274 18.1439 195.706 17.9239 195.378 17.6039C195.058 17.2759 194.898 16.8639 194.898 16.3679C194.898 15.8239 195.074 15.3839 195.426 15.0479C195.786 14.7039 196.298 14.5319 196.962 14.5319C197.714 14.5319 198.282 14.6879 198.666 14.9999C199.058 15.3039 199.286 15.7719 199.35 16.4039L198.438 16.6319C198.414 16.2159 198.282 15.9079 198.042 15.7079C197.81 15.5079 197.466 15.4079 197.01 15.4079C196.658 15.4079 196.386 15.4879 196.194 15.6479C196.01 15.7999 195.918 16.0119 195.918 16.2839C195.918 16.5639 196.022 16.7879 196.23 16.9559C196.438 17.1159 196.802 17.2439 197.322 17.3399C198.09 17.4759 198.646 17.7079 198.99 18.0359C199.342 18.3639 199.518 18.7839 199.518 19.2959C199.518 19.8479 199.31 20.2999 198.894 20.6519C198.478 21.0039 197.898 21.1799 197.154 21.1799ZM51.9281 39.1799C51.1041 39.1799 50.4681 38.8919 50.0201 38.3159C49.5801 37.7399 49.3601 36.9199 49.3601 35.8559C49.3601 34.7919 49.5801 33.9719 50.0201 33.3959C50.4681 32.8199 51.1041 32.5319 51.9281 32.5319C52.4241 32.5319 52.8401 32.6439 53.1761 32.8679C53.5201 33.0919 53.7721 33.3519 53.9321 33.6479H53.9561L53.9201 30.6719H55.0121L54.9881 35.3759L55.0121 38.9999H53.9201L53.9441 38.0639H53.9201C53.7761 38.3519 53.5321 38.6119 53.1881 38.8439C52.8441 39.0679 52.4241 39.1799 51.9281 39.1799ZM50.4161 35.8559C50.4161 36.6479 50.5681 37.2559 50.8721 37.6799C51.1761 38.1039 51.6121 38.3159 52.1801 38.3159C52.6521 38.3159 53.0641 38.1319 53.4161 37.7639C53.7761 37.3879 53.9561 36.7439 53.9561 35.8319C53.9561 35.0239 53.7841 34.4159 53.4401 34.0079C53.1041 33.5999 52.6841 33.3959 52.1801 33.3959C51.6121 33.3959 51.1761 33.6079 50.8721 34.0319C50.5681 34.4559 50.4161 35.0639 50.4161 35.8559ZM56.601 35.9639L56.577 32.6879H57.633L57.597 33.6839H57.621C57.741 33.3639 57.961 33.0919 58.281 32.8679C58.609 32.6439 59.005 32.5319 59.469 32.5319C59.645 32.5319 59.801 32.5479 59.937 32.5799L59.925 33.5759C59.733 33.5199 59.561 33.4919 59.409 33.4919C58.833 33.4919 58.389 33.6839 58.077 34.0679C57.765 34.4519 57.609 35.0199 57.609 35.7719V35.9519L57.633 38.9999H56.577L56.601 35.9639ZM60.8666 35.8439L60.8426 32.6879H61.8986L61.8746 35.8439L61.8986 38.9999H60.8426L60.8666 35.8439ZM60.7226 31.2839C60.7226 30.8519 60.9386 30.6359 61.3706 30.6359C61.8026 30.6359 62.0186 30.8519 62.0186 31.2839C62.0186 31.7239 61.8026 31.9439 61.3706 31.9439C60.9386 31.9439 60.7226 31.7239 60.7226 31.2839ZM66.2519 38.9999H64.9559L62.7359 32.6879H63.8159L65.6159 38.0039H65.6399L67.4639 32.6879H68.5199L66.2519 38.9999ZM71.8238 39.1799C71.2238 39.1799 70.6998 39.0439 70.2518 38.7719C69.8118 38.4999 69.4718 38.1159 69.2318 37.6199C68.9918 37.1159 68.8718 36.5279 68.8718 35.8559C68.8718 34.8319 69.1238 34.0239 69.6278 33.4319C70.1318 32.8319 70.8318 32.5319 71.7278 32.5319C72.6878 32.5319 73.3758 32.8719 73.7918 33.5519C74.2078 34.2319 74.4158 35.0919 74.4158 36.1319H69.9398C69.9798 36.8119 70.1678 37.3439 70.5038 37.7279C70.8398 38.1119 71.2798 38.3039 71.8238 38.3039C72.2638 38.3039 72.6238 38.1679 72.9038 37.8959C73.1918 37.6239 73.3798 37.2399 73.4678 36.7439L74.3798 36.9839C74.2838 37.5999 74.0158 38.1199 73.5758 38.5439C73.1358 38.9679 72.5518 39.1799 71.8238 39.1799ZM73.3598 35.2919C73.3518 34.7319 73.2038 34.2799 72.9158 33.9359C72.6278 33.5839 72.2358 33.4079 71.7398 33.4079C71.2518 33.4079 70.8518 33.5679 70.5398 33.8879C70.2278 34.1999 70.0358 34.6679 69.9638 35.2919H73.3598ZM75.5854 35.9519L75.5614 32.6879H76.6174L76.5934 33.6479H76.6174C76.7854 33.3279 77.0454 33.0639 77.3974 32.8559C77.7574 32.6399 78.1774 32.5319 78.6574 32.5319C79.3694 32.5319 79.9054 32.7519 80.2654 33.1919C80.6334 33.6239 80.8174 34.2999 80.8174 35.2199V35.9519L80.8413 38.9999H79.7854L79.8094 35.9519V35.2319C79.8094 34.6239 79.6774 34.1719 79.4134 33.8759C79.1574 33.5719 78.8014 33.4199 78.3454 33.4199C78.0254 33.4199 77.7294 33.5079 77.4574 33.6839C77.1934 33.8519 76.9814 34.0919 76.8214 34.4039C76.6694 34.7159 76.5934 35.0759 76.5934 35.4839V35.9519L76.6174 38.9999H75.5614L75.5854 35.9519ZM88.5243 39.1799C88.0283 39.1799 87.6083 39.0679 87.2643 38.8439C86.9203 38.6119 86.6763 38.3519 86.5323 38.0639H86.5083L86.5323 38.9999H85.4403L85.4643 35.3759L85.4403 30.6719H86.5323L86.4963 33.6479H86.5203C86.6803 33.3519 86.9283 33.0919 87.2643 32.8679C87.6083 32.6439 88.0283 32.5319 88.5243 32.5319C89.3483 32.5319 89.9803 32.8199 90.4203 33.3959C90.8683 33.9719 91.0923 34.7919 91.0923 35.8559C91.0923 36.9199 90.8683 37.7399 90.4203 38.3159C89.9803 38.8919 89.3483 39.1799 88.5243 39.1799ZM86.4963 35.8319C86.4963 36.7439 86.6723 37.3879 87.0243 37.7639C87.3843 38.1319 87.8003 38.3159 88.2723 38.3159C88.8403 38.3159 89.2763 38.1039 89.5803 37.6799C89.8843 37.2559 90.0363 36.6479 90.0363 35.8559C90.0363 35.0639 89.8843 34.4559 89.5803 34.0319C89.2763 33.6079 88.8403 33.3959 88.2723 33.3959C87.7683 33.3959 87.3443 33.5999 87.0003 34.0079C86.6643 34.4159 86.4963 35.0239 86.4963 35.8319ZM92.9228 41.0399C92.7788 41.0399 92.6148 41.0239 92.4308 40.9919C92.2468 40.9679 92.0908 40.9359 91.9628 40.8959L92.1428 40.0799C92.4228 40.1359 92.6588 40.1639 92.8508 40.1639C93.1071 40.1639 93.3151 40.0759 93.4751 39.8999C93.6431 39.7319 93.8031 39.4399 93.9551 39.0239L91.4468 32.6879H92.5388L94.4351 37.5719H94.4591L96.1751 32.6879H97.2431L94.8791 39.2039C94.6071 39.9479 94.2991 40.4399 93.9551 40.6799C93.6191 40.9199 93.2751 41.0399 92.9228 41.0399ZM101.05 35.9519L101.026 32.6879H102.082L102.058 33.6479H102.082C102.25 33.3279 102.51 33.0639 102.862 32.8559C103.222 32.6399 103.642 32.5319 104.122 32.5319C104.834 32.5319 105.37 32.7519 105.73 33.1919C106.098 33.6239 106.282 34.2999 106.282 35.2199V35.9519L106.306 38.9999H105.25L105.274 35.9519V35.2319C105.274 34.6239 105.142 34.1719 104.878 33.8759C104.622 33.5719 104.266 33.4199 103.81 33.4199C103.49 33.4199 103.194 33.5079 102.922 33.6839C102.658 33.8519 102.446 34.0919 102.286 34.4039C102.134 34.7159 102.058 35.0759 102.058 35.4839V35.9519L102.082 38.9999H101.026L101.05 35.9519ZM110.378 39.1799C109.778 39.1799 109.254 39.0439 108.806 38.7719C108.366 38.4999 108.026 38.1159 107.786 37.6199C107.546 37.1159 107.426 36.5279 107.426 35.8559C107.426 34.8319 107.678 34.0239 108.182 33.4319C108.686 32.8319 109.386 32.5319 110.282 32.5319C111.242 32.5319 111.93 32.8719 112.346 33.5519C112.762 34.2319 112.97 35.0919 112.97 36.1319H108.494C108.534 36.8119 108.722 37.3439 109.058 37.7279C109.394 38.1119 109.834 38.3039 110.378 38.3039C110.818 38.3039 111.178 38.1679 111.458 37.8959C111.746 37.6239 111.934 37.2399 112.022 36.7439L112.934 36.9839C112.838 37.5999 112.57 38.1199 112.13 38.5439C111.69 38.9679 111.106 39.1799 110.378 39.1799ZM111.914 35.2919C111.906 34.7319 111.758 34.2799 111.47 33.9359C111.182 33.5839 110.79 33.4079 110.294 33.4079C109.806 33.4079 109.406 33.5679 109.094 33.8879C108.782 34.1999 108.59 34.6679 108.518 35.2919H111.914ZM113.326 32.6879H114.382L115.714 37.9559H115.726L117.07 32.6879H118.102L119.434 37.9559H119.446L120.79 32.6879H121.81L120.058 38.9999H118.798L117.574 34.2359H117.55L116.302 38.9999H115.054L113.326 32.6879ZM124.533 39.1799C123.773 39.1799 123.169 39.0159 122.721 38.6879C122.281 38.3519 122.033 37.8479 121.977 37.1759L122.901 36.9479C122.885 37.3559 123.021 37.6839 123.309 37.9319C123.597 38.1799 124.017 38.3039 124.569 38.3039C124.985 38.3039 125.305 38.2239 125.529 38.0639C125.761 37.9039 125.877 37.6599 125.877 37.3319C125.877 37.0439 125.761 36.8159 125.529 36.6479C125.305 36.4719 124.949 36.3439 124.461 36.2639C123.653 36.1439 123.085 35.9239 122.757 35.6039C122.437 35.2759 122.277 34.8639 122.277 34.3679C122.277 33.8239 122.453 33.3839 122.805 33.0479C123.165 32.7039 123.677 32.5319 124.341 32.5319C125.093 32.5319 125.661 32.6879 126.045 32.9999C126.437 33.3039 126.665 33.7719 126.729 34.4039L125.817 34.6319C125.793 34.2159 125.661 33.9079 125.421 33.7079C125.189 33.5079 124.845 33.4079 124.389 33.4079C124.037 33.4079 123.765 33.4879 123.573 33.6479C123.389 33.7999 123.297 34.0119 123.297 34.2839C123.297 34.5639 123.401 34.7879 123.609 34.9559C123.817 35.1159 124.181 35.2439 124.701 35.3399C125.469 35.4759 126.025 35.7079 126.369 36.0359C126.721 36.3639 126.897 36.7839 126.897 37.2959C126.897 37.8479 126.689 38.2999 126.273 38.6519C125.857 39.0039 125.277 39.1799 124.533 39.1799ZM133.382 39.1799C132.782 39.1799 132.258 39.0439 131.81 38.7719C131.37 38.4999 131.03 38.1159 130.79 37.6199C130.55 37.1159 130.43 36.5279 130.43 35.8559C130.43 34.8319 130.682 34.0239 131.186 33.4319C131.69 32.8319 132.39 32.5319 133.286 32.5319C134.246 32.5319 134.934 32.8719 135.35 33.5519C135.766 34.2319 135.974 35.0919 135.974 36.1319H131.498C131.538 36.8119 131.726 37.3439 132.062 37.7279C132.398 38.1119 132.838 38.3039 133.382 38.3039C133.822 38.3039 134.182 38.1679 134.462 37.8959C134.75 37.6239 134.938 37.2399 135.026 36.7439L135.938 36.9839C135.842 37.5999 135.574 38.1199 135.134 38.5439C134.694 38.9679 134.11 39.1799 133.382 39.1799ZM134.918 35.2919C134.91 34.7319 134.762 34.2799 134.474 33.9359C134.186 33.5839 133.794 33.4079 133.298 33.4079C132.81 33.4079 132.41 33.5679 132.098 33.8879C131.786 34.1999 131.594 34.6679 131.522 35.2919H134.918ZM139.846 38.9999H138.55L136.33 32.6879H137.41L139.21 38.0039H139.234L141.058 32.6879H142.114L139.846 38.9999ZM145.417 39.1799C144.817 39.1799 144.293 39.0439 143.845 38.7719C143.405 38.4999 143.065 38.1159 142.825 37.6199C142.585 37.1159 142.465 36.5279 142.465 35.8559C142.465 34.8319 142.717 34.0239 143.221 33.4319C143.725 32.8319 144.425 32.5319 145.321 32.5319C146.281 32.5319 146.969 32.8719 147.385 33.5519C147.801 34.2319 148.009 35.0919 148.009 36.1319H143.533C143.573 36.8119 143.761 37.3439 144.097 37.7279C144.433 38.1119 144.873 38.3039 145.417 38.3039C145.857 38.3039 146.217 38.1679 146.497 37.8959C146.785 37.6239 146.973 37.2399 147.061 36.7439L147.973 36.9839C147.877 37.5999 147.609 38.1199 147.169 38.5439C146.729 38.9679 146.145 39.1799 145.417 39.1799ZM146.953 35.2919C146.945 34.7319 146.797 34.2799 146.509 33.9359C146.221 33.5839 145.829 33.4079 145.333 33.4079C144.845 33.4079 144.445 33.5679 144.133 33.8879C143.821 34.1999 143.629 34.6679 143.557 35.2919H146.953ZM149.179 35.9519L149.155 32.6879H150.211L150.187 33.6479H150.211C150.379 33.3279 150.639 33.0639 150.991 32.8559C151.351 32.6399 151.771 32.5319 152.251 32.5319C152.963 32.5319 153.499 32.7519 153.859 33.1919C154.227 33.6239 154.411 34.2999 154.411 35.2199V35.9519L154.435 38.9999H153.379L153.403 35.9519V35.2319C153.403 34.6239 153.271 34.1719 153.007 33.8759C152.751 33.5719 152.395 33.4199 151.939 33.4199C151.619 33.4199 151.323 33.5079 151.051 33.6839C150.787 33.8519 150.575 34.0919 150.415 34.4039C150.263 34.7159 150.187 35.0759 150.187 35.4839V35.9519L150.211 38.9999H149.155L149.179 35.9519ZM158.027 39.1799C157.451 39.1799 157.027 39.0719 156.755 38.8559C156.483 38.6319 156.315 38.3599 156.251 38.0399C156.187 37.7119 156.155 37.2839 156.155 36.7559V33.5039L155.195 33.5279V32.6879H156.155V30.6599H157.211V32.6879H159.155V33.5279L157.211 33.5039V36.8999C157.211 37.4039 157.271 37.7679 157.391 37.9919C157.519 38.2079 157.767 38.3159 158.135 38.3159C158.487 38.3159 158.811 38.2639 159.107 38.1599L159.299 38.9399C158.883 39.0999 158.459 39.1799 158.027 39.1799ZM162.091 39.1799C161.331 39.1799 160.727 39.0159 160.279 38.6879C159.839 38.3519 159.591 37.8479 159.535 37.1759L160.459 36.9479C160.443 37.3559 160.579 37.6839 160.867 37.9319C161.155 38.1799 161.575 38.3039 162.127 38.3039C162.543 38.3039 162.863 38.2239 163.087 38.0639C163.319 37.9039 163.435 37.6599 163.435 37.3319C163.435 37.0439 163.319 36.8159 163.087 36.6479C162.863 36.4719 162.507 36.3439 162.019 36.2639C161.211 36.1439 160.643 35.9239 160.315 35.6039C159.995 35.2759 159.835 34.8639 159.835 34.3679C159.835 33.8239 160.011 33.3839 160.363 33.0479C160.723 32.7039 161.235 32.5319 161.899 32.5319C162.651 32.5319 163.219 32.6879 163.603 32.9999C163.995 33.3039 164.223 33.7719 164.287 34.4039L163.375 34.6319C163.351 34.2159 163.219 33.9079 162.979 33.7079C162.747 33.5079 162.403 33.4079 161.947 33.4079C161.595 33.4079 161.323 33.4879 161.131 33.6479C160.947 33.7999 160.855 34.0119 160.855 34.2839C160.855 34.5639 160.959 34.7879 161.167 34.9559C161.375 35.1159 161.739 35.2439 162.259 35.3399C163.027 35.4759 163.583 35.7079 163.927 36.0359C164.279 36.3639 164.455 36.7839 164.455 37.2959C164.455 37.8479 164.247 38.2999 163.831 38.6519C163.415 39.0039 162.835 39.1799 162.091 39.1799Z" fill="black"/>
<path d="M42.4299 25.7149C42.4299 34.3941 35.3941 41.4299 26.7149 41.4299C18.0358 41.4299 11 34.3941 11 25.7149C11 17.0358 18.0358 10 26.7149 10C35.3941 10 42.4299 17.0358 42.4299 25.7149Z" fill="#F4F4F4"/>
<path d="M27.668 17.825V19.2943C28.7875 19.4342 29.6844 19.8095 30.3586 20.4202C31.0329 21.0308 31.4654 21.8067 31.6562 22.7481L29.3472 23.3969C29.2836 22.9517 29.1055 22.5509 28.8129 22.1947C28.5331 21.8385 28.1514 21.5906 27.668 21.4506V24.4275C29.1564 24.771 30.2314 25.2352 30.8929 25.8204C31.5545 26.3929 31.8852 27.1498 31.8852 28.0912C31.8852 29.1725 31.4972 30.0185 30.7212 30.6292C29.9452 31.2271 28.9274 31.577 27.668 31.6788V33.1481H26.3322V31.6788C25.0982 31.577 24.0932 31.2081 23.3172 30.572C22.5539 29.9359 22.0705 29.0453 21.8669 27.9004L24.0423 27.2898C24.2077 27.9386 24.4685 28.4475 24.8247 28.8164C25.1809 29.1854 25.6834 29.427 26.3322 29.5415V26.4311C25.0092 26.1513 24.0169 25.7124 23.3554 25.1144C22.7066 24.5165 22.3822 23.7341 22.3822 22.7673C22.3822 21.686 22.732 20.8463 23.4317 20.2484C24.1314 19.6378 25.0982 19.3007 26.3322 19.2371V17.825H27.668ZM24.8629 22.7101C24.8629 23.0663 24.971 23.3461 25.1873 23.5497C25.4035 23.7532 25.7852 23.9377 26.3322 24.1031V21.3169C25.8742 21.3678 25.5117 21.5141 25.2445 21.7558C24.9901 21.9975 24.8629 22.3157 24.8629 22.7101ZM27.668 29.5797C28.2532 29.5288 28.6857 29.3825 28.9656 29.1408C29.2455 28.8864 29.3854 28.562 29.3854 28.1676C29.3854 27.8623 29.2518 27.5951 28.9847 27.3661C28.7175 27.1244 28.2786 26.9146 27.668 26.7364V29.5797Z" fill="#141414"/>
<path d="M161 235V218" stroke="white"/>
<path d="M161 231C158.791 231 157 232.791 157 235C157 237.209 158.791 239 161 239C163.209 239 165 237.209 165 235C165 232.791 163.209 231 161 231Z" fill="white"/>
<path d="M226 247H27C21.4772 247 17 251.477 17 257V289C17 294.523 21.4772 299 27 299H226C231.523 299 236 294.523 236 289V257C236 251.477 231.523 247 226 247Z" fill="white"/>
<path d="M66.9841 268.18C66.2481 268.18 65.6041 268.004 65.0521 267.652C64.5081 267.3 64.0881 266.8 63.7921 266.152C63.5041 265.496 63.3601 264.728 63.3601 263.848C63.3601 262.968 63.5081 262.2 63.8041 261.544C64.1001 260.888 64.5201 260.384 65.0641 260.032C65.6081 259.68 66.2521 259.504 66.9961 259.504C67.9401 259.504 68.6921 259.756 69.2521 260.26C69.8201 260.764 70.1721 261.432 70.3081 262.264L69.2881 262.54C69.1841 261.932 68.9361 261.44 68.5441 261.064C68.1521 260.68 67.6481 260.488 67.0321 260.488C66.2401 260.488 65.6161 260.788 65.1601 261.388C64.7121 261.98 64.4881 262.8 64.4881 263.848C64.4881 264.888 64.7121 265.708 65.1601 266.308C65.6161 266.9 66.2361 267.196 67.0201 267.196C67.6841 267.196 68.2121 266.996 68.6041 266.596C68.9961 266.188 69.2401 265.624 69.3361 264.904L70.3561 265.18C70.2201 266.108 69.8561 266.84 69.2641 267.376C68.6801 267.912 67.9201 268.18 66.9841 268.18ZM73.0539 268.18C72.3979 268.18 71.8939 268.016 71.5419 267.688C71.1899 267.352 71.0139 266.916 71.0139 266.38C71.0139 265.908 71.1339 265.524 71.3739 265.228C71.6139 264.932 71.9939 264.712 72.5139 264.568C73.0419 264.424 73.7379 264.352 74.6019 264.352H75.1539V264.184C75.1539 263.6 75.0379 263.152 74.8059 262.84C74.5739 262.528 74.1899 262.372 73.6539 262.372C73.2619 262.372 72.9419 262.46 72.6939 262.636C72.4539 262.804 72.2819 263.016 72.1778 263.272C72.0739 263.52 72.0259 263.776 72.0339 264.04L71.1219 263.812C71.1219 263.38 71.2259 262.992 71.4339 262.648C71.6419 262.304 71.9379 262.032 72.3219 261.832C72.7059 261.632 73.1499 261.532 73.6539 261.532C75.3099 261.532 76.1379 262.34 76.1379 263.956V266.752C76.1379 266.968 76.1739 267.124 76.2459 267.22C76.3259 267.308 76.4659 267.352 76.6659 267.352C76.7939 267.352 76.9179 267.328 77.0379 267.28L77.1939 267.976C76.9219 268.072 76.6579 268.12 76.4019 268.12C76.0739 268.12 75.8179 268.024 75.6339 267.832C75.4499 267.64 75.3579 267.364 75.3579 267.004C75.3579 266.876 75.3659 266.756 75.3819 266.644H75.3579C75.1419 267.124 74.8419 267.5 74.4579 267.772C74.0739 268.044 73.6059 268.18 73.0539 268.18ZM72.0579 266.368C72.0579 266.656 72.1579 266.888 72.3578 267.064C72.5659 267.232 72.8459 267.316 73.1979 267.316C73.5259 267.316 73.8379 267.228 74.1339 267.052C74.4379 266.876 74.6819 266.632 74.8659 266.32C75.0579 266 75.1539 265.636 75.1539 265.228V265.108H74.8659C74.1939 265.108 73.6539 265.144 73.2459 265.216C72.8459 265.288 72.5459 265.416 72.3459 265.6C72.1539 265.784 72.0579 266.04 72.0579 266.368ZM77.9369 265.312L77.9129 261.688H79.0049L78.9809 262.624H79.0049C79.1489 262.336 79.3929 262.084 79.7369 261.868C80.0809 261.644 80.5009 261.532 80.9969 261.532C81.8209 261.532 82.4529 261.816 82.8929 262.384C83.3409 262.952 83.5649 263.768 83.5649 264.832C83.5649 265.904 83.3409 266.732 82.8929 267.316C82.4529 267.892 81.8209 268.18 80.9969 268.18C80.5009 268.18 80.0849 268.068 79.7489 267.844C79.4129 267.612 79.1609 267.344 78.9929 267.04H78.9689L79.0049 269.92H77.9129L77.9369 265.312ZM78.9689 264.856C78.9689 265.744 79.1449 266.376 79.4969 266.752C79.8569 267.128 80.2729 267.316 80.7449 267.316C81.3129 267.316 81.7489 267.104 82.0529 266.68C82.3569 266.248 82.5089 265.632 82.5089 264.832C82.5089 264.04 82.3569 263.436 82.0529 263.02C81.7489 262.604 81.3129 262.396 80.7449 262.396C80.2409 262.396 79.8169 262.604 79.4729 263.02C79.1369 263.436 78.9689 264.048 78.9689 264.856ZM86.6915 268.18C86.1155 268.18 85.6915 268.072 85.4195 267.856C85.1475 267.632 84.9795 267.36 84.9155 267.04C84.8515 266.712 84.8195 266.284 84.8195 265.756V262.504L83.8595 262.528V261.688H84.8195V259.66H85.8755V261.688H87.8195V262.528L85.8755 262.504V265.9C85.8755 266.404 85.9355 266.768 86.0555 266.992C86.1835 267.208 86.4315 267.316 86.7995 267.316C87.1515 267.316 87.4755 267.264 87.7715 267.16L87.9635 267.94C87.5475 268.1 87.1235 268.18 86.6915 268.18ZM93.9011 264.736L93.9251 268H92.8693L92.8933 267.04H92.8693C92.7013 267.36 92.4413 267.628 92.0893 267.844C91.7453 268.052 91.3453 268.156 90.8893 268.156C90.1773 268.156 89.6373 267.94 89.2693 267.508C88.9093 267.068 88.7293 266.388 88.7293 265.468V264.736L88.7053 261.688H89.7613L89.7373 264.736V265.456C89.7373 266.064 89.8653 266.52 90.1213 266.824C90.3853 267.12 90.7453 267.268 91.2013 267.268C91.5053 267.268 91.7853 267.184 92.0413 267.016C92.2973 266.84 92.5013 266.596 92.6533 266.284C92.8133 265.964 92.8933 265.604 92.8933 265.204V264.736L92.8693 261.688H93.9251L93.9011 264.736ZM95.5151 264.964L95.4911 261.688H96.5471L96.5111 262.684H96.5351C96.6551 262.364 96.8751 262.092 97.1951 261.868C97.5231 261.644 97.9191 261.532 98.3831 261.532C98.5591 261.532 98.7151 261.548 98.8511 261.58L98.8391 262.576C98.6471 262.52 98.4751 262.492 98.3231 262.492C97.7471 262.492 97.3031 262.684 96.9911 263.068C96.6791 263.452 96.5231 264.02 96.5231 264.772V264.952L96.5471 268H95.4911L95.5151 264.964ZM99.7811 264.844L99.7571 261.688H100.813L100.789 264.844L100.813 268H99.7571L99.7811 264.844ZM99.6371 260.284C99.6371 259.852 99.8531 259.636 100.285 259.636C100.717 259.636 100.933 259.852 100.933 260.284C100.933 260.724 100.717 260.944 100.285 260.944C99.8531 260.944 99.6371 260.724 99.6371 260.284ZM102.394 264.952L102.37 261.688H103.426L103.402 262.648H103.426C103.594 262.328 103.854 262.064 104.206 261.856C104.566 261.64 104.986 261.532 105.466 261.532C106.178 261.532 106.714 261.752 107.074 262.192C107.442 262.624 107.626 263.3 107.626 264.22V264.952L107.65 268H106.594L106.618 264.952V264.232C106.618 263.624 106.486 263.172 106.222 262.876C105.966 262.572 105.61 262.42 105.154 262.42C104.834 262.42 104.538 262.508 104.266 262.684C104.002 262.852 103.79 263.092 103.63 263.404C103.478 263.716 103.402 264.076 103.402 264.484V264.952L103.426 268H102.37L102.394 264.952ZM111.59 270.076C111.062 270.076 110.602 269.984 110.21 269.8C109.818 269.624 109.518 269.388 109.31 269.092C109.102 268.804 108.998 268.496 108.998 268.168L109.97 267.892C109.97 268.3 110.114 268.624 110.402 268.864C110.69 269.112 111.086 269.236 111.59 269.236C112.078 269.236 112.45 269.132 112.706 268.924C112.962 268.724 113.134 268.456 113.222 268.12C113.31 267.792 113.354 267.384 113.354 266.896V266.584H113.33C113.178 266.872 112.934 267.132 112.598 267.364C112.262 267.588 111.842 267.7 111.338 267.7C110.522 267.7 109.89 267.428 109.442 266.884C108.994 266.332 108.77 265.576 108.77 264.616C108.77 264.048 108.866 263.532 109.058 263.068C109.25 262.596 109.538 262.224 109.922 261.952C110.306 261.672 110.77 261.532 111.314 261.532C111.826 261.532 112.25 261.644 112.586 261.868C112.922 262.092 113.17 262.348 113.33 262.636H113.354L113.342 261.688H114.422V266.632C114.422 267.824 114.194 268.696 113.738 269.248C113.282 269.8 112.566 270.076 111.59 270.076ZM109.826 264.616C109.826 265.296 109.978 265.836 110.282 266.236C110.586 266.636 111.01 266.836 111.554 266.836C112.05 266.836 112.474 266.664 112.826 266.32C113.186 265.976 113.366 265.408 113.366 264.616C113.366 264.264 113.302 263.92 113.174 263.584C113.054 263.24 112.858 262.956 112.586 262.732C112.314 262.508 111.97 262.396 111.554 262.396C111.034 262.396 110.614 262.6 110.294 263.008C109.982 263.408 109.826 263.944 109.826 264.616ZM121.098 268.18C120.522 268.18 120.098 268.072 119.826 267.856C119.554 267.632 119.386 267.36 119.322 267.04C119.258 266.712 119.226 266.284 119.226 265.756V262.504L118.266 262.528V261.688H119.226V259.66H120.282V261.688H122.226V262.528L120.282 262.504V265.9C120.282 266.404 120.342 266.768 120.462 266.992C120.59 267.208 120.838 267.316 121.206 267.316C121.558 267.316 121.882 267.264 122.178 267.16L122.37 267.94C121.954 268.1 121.53 268.18 121.098 268.18ZM123.23 264.952L123.206 259.672H124.262L124.238 262.648H124.262C124.43 262.328 124.69 262.064 125.042 261.856C125.402 261.64 125.822 261.532 126.302 261.532C127.014 261.532 127.55 261.752 127.91 262.192C128.278 262.624 128.462 263.3 128.462 264.22V264.952L128.486 268H127.43L127.454 264.952V264.232C127.454 263.624 127.322 263.172 127.058 262.876C126.802 262.572 126.446 262.42 125.99 262.42C125.67 262.42 125.374 262.508 125.102 262.684C124.838 262.852 124.626 263.092 124.466 263.404C124.314 263.716 124.238 264.076 124.238 264.484V264.952L124.262 268H123.206L123.23 264.952ZM132.558 268.18C131.958 268.18 131.434 268.044 130.986 267.772C130.546 267.5 130.206 267.116 129.966 266.62C129.726 266.116 129.606 265.528 129.606 264.856C129.606 263.832 129.858 263.024 130.362 262.432C130.866 261.832 131.566 261.532 132.462 261.532C133.422 261.532 134.11 261.872 134.526 262.552C134.942 263.232 135.15 264.092 135.15 265.132H130.674C130.714 265.812 130.902 266.344 131.238 266.728C131.574 267.112 132.014 267.304 132.558 267.304C132.998 267.304 133.358 267.168 133.638 266.896C133.926 266.624 134.114 266.24 134.202 265.744L135.114 265.984C135.018 266.6 134.75 267.12 134.31 267.544C133.87 267.968 133.286 268.18 132.558 268.18ZM134.094 264.292C134.086 263.732 133.938 263.28 133.65 262.936C133.362 262.584 132.97 262.408 132.474 262.408C131.986 262.408 131.586 262.568 131.274 262.888C130.962 263.2 130.77 263.668 130.698 264.292H134.094ZM141.268 268.18C140.444 268.18 139.808 267.892 139.36 267.316C138.92 266.74 138.7 265.92 138.7 264.856C138.7 263.792 138.92 262.972 139.36 262.396C139.808 261.82 140.444 261.532 141.268 261.532C141.764 261.532 142.18 261.644 142.516 261.868C142.86 262.092 143.112 262.352 143.272 262.648H143.296L143.26 259.672H144.352L144.328 264.376L144.352 268H143.26L143.284 267.064H143.26C143.116 267.352 142.872 267.612 142.528 267.844C142.184 268.068 141.764 268.18 141.268 268.18ZM139.756 264.856C139.756 265.648 139.908 266.256 140.212 266.68C140.516 267.104 140.952 267.316 141.52 267.316C141.992 267.316 142.404 267.132 142.756 266.764C143.116 266.388 143.296 265.744 143.296 264.832C143.296 264.024 143.124 263.416 142.78 263.008C142.444 262.6 142.024 262.396 141.52 262.396C140.952 262.396 140.516 262.608 140.212 263.032C139.908 263.456 139.756 264.064 139.756 264.856ZM145.941 264.844L145.917 261.688H146.973L146.949 264.844L146.973 268H145.917L145.941 264.844ZM145.797 260.284C145.797 259.852 146.013 259.636 146.445 259.636C146.877 259.636 147.093 259.852 147.093 260.284C147.093 260.724 146.877 260.944 146.445 260.944C146.013 260.944 145.797 260.724 145.797 260.284ZM149.01 262.504L147.786 262.528V261.688H148.95C148.934 261.536 148.926 261.396 148.926 261.268C148.926 260.66 149.094 260.188 149.43 259.852C149.766 259.516 150.21 259.348 150.762 259.348C151.186 259.348 151.606 259.44 152.022 259.624L151.818 260.392C151.458 260.288 151.146 260.236 150.882 260.236C150.546 260.236 150.302 260.324 150.15 260.5C150.006 260.668 149.934 260.924 149.934 261.268C149.934 261.396 149.942 261.536 149.958 261.688H151.818V262.528L150.018 262.504L150.042 268H148.986L149.01 262.504ZM153.334 262.504L152.11 262.528V261.688H153.274C153.258 261.536 153.25 261.396 153.25 261.268C153.25 260.66 153.418 260.188 153.754 259.852C154.09 259.516 154.534 259.348 155.086 259.348C155.51 259.348 155.93 259.44 156.346 259.624L156.142 260.392C155.782 260.288 155.47 260.236 155.206 260.236C154.87 260.236 154.626 260.324 154.474 260.5C154.33 260.668 154.258 260.924 154.258 261.268C154.258 261.396 154.266 261.536 154.282 261.688H156.142V262.528L154.342 262.504L154.366 268H153.31L153.334 262.504ZM159.335 268.18C158.735 268.18 158.211 268.044 157.763 267.772C157.323 267.5 156.983 267.116 156.743 266.62C156.503 266.116 156.383 265.528 156.383 264.856C156.383 263.832 156.635 263.024 157.139 262.432C157.643 261.832 158.343 261.532 159.239 261.532C160.199 261.532 160.887 261.872 161.303 262.552C161.719 263.232 161.927 264.092 161.927 265.132H157.451C157.491 265.812 157.679 266.344 158.015 266.728C158.351 267.112 158.791 267.304 159.335 267.304C159.775 267.304 160.135 267.168 160.415 266.896C160.703 266.624 160.891 266.24 160.979 265.744L161.891 265.984C161.795 266.6 161.527 267.12 161.087 267.544C160.647 267.968 160.063 268.18 159.335 268.18ZM160.871 264.292C160.863 263.732 160.715 263.28 160.427 262.936C160.139 262.584 159.747 262.408 159.251 262.408C158.763 262.408 158.363 262.568 158.051 262.888C157.739 263.2 157.547 263.668 157.475 264.292H160.871ZM163.097 264.964L163.073 261.688H164.129L164.093 262.684H164.117C164.237 262.364 164.457 262.092 164.777 261.868C165.105 261.644 165.501 261.532 165.965 261.532C166.141 261.532 166.297 261.548 166.433 261.58L166.421 262.576C166.229 262.52 166.057 262.492 165.905 262.492C165.329 262.492 164.885 262.684 164.573 263.068C164.261 263.452 164.105 264.02 164.105 264.772V264.952L164.129 268H163.073L163.097 264.964ZM169.753 268.18C169.153 268.18 168.629 268.044 168.181 267.772C167.741 267.5 167.401 267.116 167.161 266.62C166.921 266.116 166.801 265.528 166.801 264.856C166.801 263.832 167.053 263.024 167.557 262.432C168.061 261.832 168.761 261.532 169.657 261.532C170.617 261.532 171.305 261.872 171.721 262.552C172.137 263.232 172.345 264.092 172.345 265.132H167.869C167.909 265.812 168.097 266.344 168.433 266.728C168.769 267.112 169.209 267.304 169.753 267.304C170.193 267.304 170.553 267.168 170.833 266.896C171.121 266.624 171.309 266.24 171.397 265.744L172.309 265.984C172.213 266.6 171.945 267.12 171.505 267.544C171.065 267.968 170.481 268.18 169.753 268.18ZM171.289 264.292C171.281 263.732 171.133 263.28 170.845 262.936C170.557 262.584 170.165 262.408 169.669 262.408C169.181 262.408 168.781 262.568 168.469 262.888C168.157 263.2 167.965 263.668 167.893 264.292H171.289ZM173.515 264.952L173.491 261.688H174.547L174.523 262.648H174.547C174.715 262.328 174.975 262.064 175.327 261.856C175.687 261.64 176.107 261.532 176.587 261.532C177.299 261.532 177.835 261.752 178.195 262.192C178.563 262.624 178.747 263.3 178.747 264.22V264.952L178.771 268H177.715L177.739 264.952V264.232C177.739 263.624 177.607 263.172 177.343 262.876C177.087 262.572 176.731 262.42 176.275 262.42C175.955 262.42 175.659 262.508 175.387 262.684C175.123 262.852 174.911 263.092 174.751 263.404C174.599 263.716 174.523 264.076 174.523 264.484V264.952L174.547 268H173.491L173.515 264.952ZM182.843 268.18C182.243 268.18 181.719 268.044 181.271 267.772C180.831 267.5 180.491 267.116 180.251 266.62C180.011 266.116 179.891 265.528 179.891 264.856C179.891 264.184 180.011 263.6 180.251 263.104C180.491 262.6 180.831 262.212 181.271 261.94C181.711 261.668 182.231 261.532 182.831 261.532C183.559 261.532 184.143 261.744 184.583 262.168C185.031 262.584 185.303 263.1 185.399 263.716L184.487 263.956C184.399 263.468 184.211 263.088 183.923 262.816C183.643 262.544 183.283 262.408 182.843 262.408C182.259 262.408 181.795 262.628 181.451 263.068C181.115 263.5 180.947 264.096 180.947 264.856C180.947 265.616 181.115 266.216 181.451 266.656C181.795 267.088 182.259 267.304 182.843 267.304C183.283 267.304 183.643 267.172 183.923 266.908C184.211 266.636 184.399 266.252 184.487 265.756L185.399 265.996C185.303 266.612 185.035 267.132 184.595 267.556C184.155 267.972 183.571 268.18 182.843 268.18ZM188.89 268.18C188.29 268.18 187.766 268.044 187.318 267.772C186.878 267.5 186.538 267.116 186.298 266.62C186.058 266.116 185.938 265.528 185.938 264.856C185.938 263.832 186.19 263.024 186.694 262.432C187.198 261.832 187.898 261.532 188.794 261.532C189.754 261.532 190.442 261.872 190.858 262.552C191.274 263.232 191.482 264.092 191.482 265.132H187.006C187.046 265.812 187.234 266.344 187.57 266.728C187.906 267.112 188.346 267.304 188.89 267.304C189.33 267.304 189.69 267.168 189.97 266.896C190.258 266.624 190.446 266.24 190.534 265.744L191.446 265.984C191.35 266.6 191.082 267.12 190.642 267.544C190.202 267.968 189.618 268.18 188.89 268.18ZM190.426 264.292C190.418 263.732 190.27 263.28 189.982 262.936C189.694 262.584 189.302 262.408 188.806 262.408C188.318 262.408 187.918 262.568 187.606 262.888C187.294 263.2 187.102 263.668 187.03 264.292H190.426ZM66.8641 286.18C66.3681 286.18 65.9481 286.068 65.6041 285.844C65.2601 285.612 65.0161 285.352 64.8721 285.064H64.8481L64.8721 286H63.7801L63.8041 282.376L63.7801 277.672H64.8721L64.8361 280.648H64.8601C65.0201 280.352 65.2681 280.092 65.6041 279.868C65.9481 279.644 66.3681 279.532 66.8641 279.532C67.6881 279.532 68.3201 279.82 68.7601 280.396C69.2081 280.972 69.4321 281.792 69.4321 282.856C69.4321 283.92 69.2081 284.74 68.7601 285.316C68.3201 285.892 67.6881 286.18 66.8641 286.18ZM64.8361 282.832C64.8361 283.744 65.0121 284.388 65.3641 284.764C65.7241 285.132 66.1401 285.316 66.6121 285.316C67.1801 285.316 67.6161 285.104 67.9201 284.68C68.2241 284.256 68.3761 283.648 68.3761 282.856C68.3761 282.064 68.2241 281.456 67.9201 281.032C67.6161 280.608 67.1801 280.396 66.6121 280.396C66.1081 280.396 65.6841 280.6 65.3401 281.008C65.0041 281.416 64.8361 282.024 64.8361 282.832ZM73.109 286.18C72.509 286.18 71.985 286.044 71.537 285.772C71.097 285.5 70.757 285.116 70.517 284.62C70.277 284.116 70.157 283.528 70.157 282.856C70.157 281.832 70.409 281.024 70.913 280.432C71.417 279.832 72.117 279.532 73.013 279.532C73.973 279.532 74.661 279.872 75.077 280.552C75.493 281.232 75.701 282.092 75.701 283.132H71.225C71.265 283.812 71.453 284.344 71.789 284.728C72.125 285.112 72.565 285.304 73.109 285.304C73.549 285.304 73.909 285.168 74.189 284.896C74.477 284.624 74.665 284.24 74.753 283.744L75.665 283.984C75.569 284.6 75.301 285.12 74.861 285.544C74.421 285.968 73.837 286.18 73.109 286.18ZM74.645 282.292C74.637 281.732 74.489 281.28 74.201 280.936C73.913 280.584 73.521 280.408 73.025 280.408C72.537 280.408 72.137 280.568 71.825 280.888C71.513 281.2 71.321 281.668 71.249 282.292H74.645ZM78.8282 286.18C78.2522 286.18 77.8282 286.072 77.5562 285.856C77.2842 285.632 77.1162 285.36 77.0522 285.04C76.9882 284.712 76.9562 284.284 76.9562 283.756V280.504L75.9962 280.528V279.688H76.9562V277.66H78.0122V279.688H79.9562V280.528L78.0122 280.504V283.9C78.0122 284.404 78.0722 284.768 78.1922 284.992C78.3202 285.208 78.5682 285.316 78.9362 285.316C79.2882 285.316 79.6122 285.264 79.9082 285.16L80.1002 285.94C79.6842 286.1 79.2602 286.18 78.8282 286.18ZM80.2164 279.688H81.2724L82.6044 284.956H82.6164L83.9604 279.688H84.9924L86.3243 284.956H86.3364L87.6804 279.688H88.7004L86.9484 286H85.6884L84.4644 281.236H84.4404L83.1924 286H81.9444L80.2164 279.688ZM91.9996 286.18C91.3996 286.18 90.8756 286.044 90.4276 285.772C89.9876 285.5 89.6476 285.116 89.4076 284.62C89.1676 284.116 89.0476 283.528 89.0476 282.856C89.0476 281.832 89.2996 281.024 89.8036 280.432C90.3076 279.832 91.0076 279.532 91.9036 279.532C92.8636 279.532 93.5521 279.872 93.9681 280.552C94.3841 281.232 94.5921 282.092 94.5921 283.132H90.1156C90.1556 283.812 90.3436 284.344 90.6796 284.728C91.0156 285.112 91.4556 285.304 91.9996 285.304C92.4396 285.304 92.7996 285.168 93.0801 284.896C93.3681 284.624 93.5561 284.24 93.6441 283.744L94.5561 283.984C94.4601 284.6 94.1921 285.12 93.7521 285.544C93.3121 285.968 92.7276 286.18 91.9996 286.18ZM93.5361 282.292C93.5281 281.732 93.3801 281.28 93.0921 280.936C92.8036 280.584 92.4116 280.408 91.9156 280.408C91.4276 280.408 91.0276 280.568 90.7156 280.888C90.4036 281.2 90.2116 281.668 90.1396 282.292H93.5361ZM98.2691 286.18C97.6691 286.18 97.1451 286.044 96.6971 285.772C96.2571 285.5 95.9171 285.116 95.6771 284.62C95.4371 284.116 95.3171 283.528 95.3171 282.856C95.3171 281.832 95.5691 281.024 96.0731 280.432C96.5771 279.832 97.2771 279.532 98.1731 279.532C99.1331 279.532 99.8211 279.872 100.237 280.552C100.653 281.232 100.861 282.092 100.861 283.132H96.3851C96.4251 283.812 96.6131 284.344 96.9491 284.728C97.2851 285.112 97.7251 285.304 98.2691 285.304C98.7091 285.304 99.0691 285.168 99.3491 284.896C99.6371 284.624 99.8251 284.24 99.9131 283.744L100.825 283.984C100.729 284.6 100.461 285.12 100.021 285.544C99.5811 285.968 98.9971 286.18 98.2691 286.18ZM99.8051 282.292C99.7971 281.732 99.6491 281.28 99.3611 280.936C99.0731 280.584 98.6811 280.408 98.1851 280.408C97.6971 280.408 97.2971 280.568 96.9851 280.888C96.6731 281.2 96.4811 281.668 96.4091 282.292H99.8051ZM102.031 282.952L102.007 279.688H103.063L103.039 280.648H103.063C103.231 280.328 103.491 280.064 103.843 279.856C104.203 279.64 104.623 279.532 105.103 279.532C105.815 279.532 106.351 279.752 106.711 280.192C107.079 280.624 107.263 281.3 107.263 282.22V282.952L107.287 286H106.231L106.255 282.952V282.232C106.255 281.624 106.123 281.172 105.859 280.876C105.603 280.572 105.247 280.42 104.791 280.42C104.471 280.42 104.175 280.508 103.903 280.684C103.639 280.852 103.427 281.092 103.267 281.404C103.115 281.716 103.039 282.076 103.039 282.484V282.952L103.063 286H102.007L102.031 282.952ZM113.937 286.18C113.361 286.18 112.937 286.072 112.665 285.856C112.393 285.632 112.225 285.36 112.161 285.04C112.097 284.712 112.065 284.284 112.065 283.756V280.504L111.105 280.528V279.688H112.065V277.66H113.121V279.688H115.065V280.528L113.121 280.504V283.9C113.121 284.404 113.181 284.768 113.301 284.992C113.429 285.208 113.677 285.316 114.045 285.316C114.397 285.316 114.721 285.264 115.017 285.16L115.209 285.94C114.793 286.1 114.369 286.18 113.937 286.18ZM116.07 282.952L116.046 277.672H117.102L117.078 280.648H117.102C117.27 280.328 117.53 280.064 117.882 279.856C118.242 279.64 118.662 279.532 119.142 279.532C119.854 279.532 120.39 279.752 120.75 280.192C121.118 280.624 121.302 281.3 121.302 282.22V282.952L121.326 286H120.27L120.294 282.952V282.232C120.294 281.624 120.162 281.172 119.898 280.876C119.642 280.572 119.286 280.42 118.83 280.42C118.51 280.42 118.214 280.508 117.942 280.684C117.678 280.852 117.466 281.092 117.306 281.404C117.154 281.716 117.078 282.076 117.078 282.484V282.952L117.102 286H116.046L116.07 282.952ZM125.398 286.18C124.798 286.18 124.274 286.044 123.826 285.772C123.386 285.5 123.046 285.116 122.806 284.62C122.566 284.116 122.446 283.528 122.446 282.856C122.446 281.832 122.698 281.024 123.202 280.432C123.706 279.832 124.406 279.532 125.302 279.532C126.262 279.532 126.95 279.872 127.366 280.552C127.782 281.232 127.99 282.092 127.99 283.132H123.514C123.554 283.812 123.742 284.344 124.078 284.728C124.414 285.112 124.854 285.304 125.398 285.304C125.838 285.304 126.198 285.168 126.478 284.896C126.766 284.624 126.954 284.24 127.042 283.744L127.954 283.984C127.858 284.6 127.59 285.12 127.15 285.544C126.71 285.968 126.126 286.18 125.398 286.18ZM126.934 282.292C126.926 281.732 126.778 281.28 126.49 280.936C126.202 280.584 125.81 280.408 125.314 280.408C124.826 280.408 124.426 280.568 124.114 280.888C123.802 281.2 123.61 281.668 123.538 282.292H126.934ZM135.161 286.18C134.665 286.18 134.245 286.068 133.901 285.844C133.557 285.612 133.313 285.352 133.169 285.064H133.145L133.169 286H132.077L132.101 282.376L132.077 277.672H133.169L133.133 280.648H133.157C133.317 280.352 133.565 280.092 133.901 279.868C134.245 279.644 134.665 279.532 135.161 279.532C135.985 279.532 136.617 279.82 137.057 280.396C137.505 280.972 137.729 281.792 137.729 282.856C137.729 283.92 137.505 284.74 137.057 285.316C136.617 285.892 135.985 286.18 135.161 286.18ZM133.133 282.832C133.133 283.744 133.309 284.388 133.661 284.764C134.021 285.132 134.437 285.316 134.909 285.316C135.477 285.316 135.913 285.104 136.217 284.68C136.521 284.256 136.673 283.648 136.673 282.856C136.673 282.064 136.521 281.456 136.217 281.032C135.913 280.608 135.477 280.396 134.909 280.396C134.405 280.396 133.981 280.6 133.637 281.008C133.301 281.416 133.133 282.024 133.133 282.832ZM138.898 282.844L138.874 279.688H139.93L139.906 282.844L139.93 286H138.874L138.898 282.844ZM138.754 278.284C138.754 277.852 138.97 277.636 139.402 277.636C139.834 277.636 140.05 277.852 140.05 278.284C140.05 278.724 139.834 278.944 139.402 278.944C138.97 278.944 138.754 278.724 138.754 278.284ZM143.635 286.18C142.811 286.18 142.175 285.892 141.727 285.316C141.287 284.74 141.067 283.92 141.067 282.856C141.067 281.792 141.287 280.972 141.727 280.396C142.175 279.82 142.811 279.532 143.635 279.532C144.131 279.532 144.547 279.644 144.883 279.868C145.227 280.092 145.479 280.352 145.639 280.648H145.663L145.627 277.672H146.719L146.695 282.376L146.719 286H145.627L145.651 285.064H145.627C145.483 285.352 145.239 285.612 144.895 285.844C144.551 286.068 144.131 286.18 143.635 286.18ZM142.123 282.856C142.123 283.648 142.275 284.256 142.579 284.68C142.883 285.104 143.319 285.316 143.887 285.316C144.359 285.316 144.771 285.132 145.123 284.764C145.483 284.388 145.663 283.744 145.663 282.832C145.663 282.024 145.491 281.416 145.147 281.008C144.811 280.6 144.391 280.396 143.887 280.396C143.319 280.396 142.883 280.608 142.579 281.032C142.275 281.456 142.123 282.064 142.123 282.856ZM153.023 286.18C152.367 286.18 151.863 286.016 151.511 285.688C151.159 285.352 150.983 284.916 150.983 284.38C150.983 283.908 151.103 283.524 151.343 283.228C151.583 282.932 151.963 282.712 152.483 282.568C153.011 282.424 153.707 282.352 154.571 282.352H155.123V282.184C155.123 281.6 155.007 281.152 154.775 280.84C154.543 280.528 154.159 280.372 153.623 280.372C153.231 280.372 152.911 280.46 152.663 280.636C152.423 280.804 152.251 281.016 152.146 281.272C152.043 281.52 151.995 281.776 152.003 282.04L151.091 281.812C151.091 281.38 151.195 280.992 151.403 280.648C151.611 280.304 151.907 280.032 152.291 279.832C152.675 279.632 153.119 279.532 153.623 279.532C155.279 279.532 156.107 280.34 156.107 281.956V284.752C156.107 284.968 156.143 285.124 156.215 285.22C156.295 285.308 156.435 285.352 156.635 285.352C156.763 285.352 156.887 285.328 157.007 285.28L157.163 285.976C156.891 286.072 156.627 286.12 156.371 286.12C156.043 286.12 155.787 286.024 155.603 285.832C155.419 285.64 155.327 285.364 155.327 285.004C155.327 284.876 155.335 284.756 155.351 284.644H155.327C155.111 285.124 154.811 285.5 154.427 285.772C154.043 286.044 153.575 286.18 153.023 286.18ZM152.027 284.368C152.027 284.656 152.127 284.888 152.326 285.064C152.535 285.232 152.815 285.316 153.167 285.316C153.495 285.316 153.807 285.228 154.103 285.052C154.407 284.876 154.651 284.632 154.835 284.32C155.027 284 155.123 283.636 155.123 283.228V283.108H154.835C154.163 283.108 153.623 283.144 153.215 283.216C152.815 283.288 152.515 283.416 152.315 283.6C152.123 283.784 152.027 284.04 152.027 284.368ZM157.906 282.952L157.882 279.688H158.938L158.914 280.648H158.938C159.106 280.328 159.366 280.064 159.718 279.856C160.078 279.64 160.498 279.532 160.978 279.532C161.69 279.532 162.226 279.752 162.586 280.192C162.954 280.624 163.138 281.3 163.138 282.22V282.952L163.162 286H162.106L162.13 282.952V282.232C162.13 281.624 161.998 281.172 161.734 280.876C161.478 280.572 161.122 280.42 160.666 280.42C160.346 280.42 160.05 280.508 159.778 280.684C159.514 280.852 159.302 281.092 159.142 281.404C158.99 281.716 158.914 282.076 158.914 282.484V282.952L158.938 286H157.882L157.906 282.952ZM166.85 286.18C166.026 286.18 165.39 285.892 164.942 285.316C164.502 284.74 164.282 283.92 164.282 282.856C164.282 281.792 164.502 280.972 164.942 280.396C165.39 279.82 166.026 279.532 166.85 279.532C167.346 279.532 167.762 279.644 168.098 279.868C168.442 280.092 168.694 280.352 168.854 280.648H168.878L168.842 277.672H169.934L169.91 282.376L169.934 286H168.842L168.866 285.064H168.842C168.698 285.352 168.454 285.612 168.11 285.844C167.766 286.068 167.346 286.18 166.85 286.18ZM165.338 282.856C165.338 283.648 165.49 284.256 165.794 284.68C166.098 285.104 166.534 285.316 167.102 285.316C167.574 285.316 167.986 285.132 168.338 284.764C168.698 284.388 168.878 283.744 168.878 282.832C168.878 282.024 168.706 281.416 168.362 281.008C168.026 280.6 167.606 280.396 167.102 280.396C166.534 280.396 166.098 280.608 165.794 281.032C165.49 281.456 165.338 282.064 165.338 282.856ZM176.237 286.18C175.581 286.18 175.077 286.016 174.725 285.688C174.373 285.352 174.197 284.916 174.197 284.38C174.197 283.908 174.317 283.524 174.557 283.228C174.797 282.932 175.177 282.712 175.697 282.568C176.225 282.424 176.921 282.352 177.785 282.352H178.337V282.184C178.337 281.6 178.221 281.152 177.989 280.84C177.757 280.528 177.373 280.372 176.837 280.372C176.445 280.372 176.125 280.46 175.877 280.636C175.637 280.804 175.465 281.016 175.361 281.272C175.257 281.52 175.209 281.776 175.217 282.04L174.305 281.812C174.305 281.38 174.409 280.992 174.617 280.648C174.825 280.304 175.121 280.032 175.505 279.832C175.889 279.632 176.333 279.532 176.837 279.532C178.493 279.532 179.321 280.34 179.321 281.956V284.752C179.321 284.968 179.357 285.124 179.429 285.22C179.509 285.308 179.649 285.352 179.849 285.352C179.977 285.352 180.101 285.328 180.221 285.28L180.377 285.976C180.105 286.072 179.841 286.12 179.585 286.12C179.257 286.12 179.001 286.024 178.817 285.832C178.633 285.64 178.541 285.364 178.541 285.004C178.541 284.876 178.549 284.756 178.565 284.644H178.541C178.325 285.124 178.025 285.5 177.641 285.772C177.257 286.044 176.789 286.18 176.237 286.18ZM175.241 284.368C175.241 284.656 175.341 284.888 175.541 285.064C175.749 285.232 176.029 285.316 176.381 285.316C176.709 285.316 177.021 285.228 177.317 285.052C177.621 284.876 177.865 284.632 178.049 284.32C178.241 284 178.337 283.636 178.337 283.228V283.108H178.049C177.377 283.108 176.837 283.144 176.429 283.216C176.029 283.288 175.729 283.416 175.529 283.6C175.337 283.784 175.241 284.04 175.241 284.368ZM183.052 286.18C182.292 286.18 181.688 286.016 181.24 285.688C180.8 285.352 180.552 284.848 180.496 284.176L181.42 283.948C181.404 284.356 181.54 284.684 181.828 284.932C182.116 285.18 182.536 285.304 183.088 285.304C183.504 285.304 183.824 285.224 184.048 285.064C184.28 284.904 184.396 284.66 184.396 284.332C184.396 284.044 184.28 283.816 184.048 283.648C183.824 283.472 183.468 283.344 182.98 283.264C182.172 283.144 181.604 282.924 181.276 282.604C180.956 282.276 180.796 281.864 180.796 281.368C180.796 280.824 180.972 280.384 181.324 280.048C181.684 279.704 182.196 279.532 182.86 279.532C183.612 279.532 184.18 279.688 184.564 280C184.956 280.304 185.184 280.772 185.248 281.404L184.336 281.632C184.312 281.216 184.18 280.908 183.94 280.708C183.708 280.508 183.364 280.408 182.908 280.408C182.556 280.408 182.284 280.488 182.092 280.648C181.908 280.8 181.816 281.012 181.816 281.284C181.816 281.564 181.92 281.788 182.128 281.956C182.336 282.116 182.7 282.244 183.22 282.34C183.988 282.476 184.544 282.708 184.888 283.036C185.24 283.364 185.416 283.784 185.416 284.296C185.416 284.848 185.208 285.3 184.792 285.652C184.376 286.004 183.796 286.18 183.052 286.18ZM186.452 281.776L186.428 277.672H187.484L187.46 281.776V282.58L190.1 279.688H191.36L189.176 282.004L191.732 286H190.52L188.468 282.76L187.472 283.828L187.484 286H186.428L186.452 281.776ZM195.652 283.312L195.628 279.688H196.72L196.696 280.624H196.72C196.864 280.336 197.108 280.084 197.452 279.868C197.796 279.644 198.216 279.532 198.712 279.532C199.536 279.532 200.168 279.816 200.608 280.384C201.056 280.952 201.28 281.768 201.28 282.832C201.28 283.904 201.056 284.732 200.608 285.316C200.168 285.892 199.536 286.18 198.712 286.18C198.216 286.18 197.8 286.068 197.464 285.844C197.128 285.612 196.876 285.344 196.708 285.04H196.684L196.72 287.92H195.628L195.652 283.312ZM196.684 282.856C196.684 283.744 196.86 284.376 197.212 284.752C197.572 285.128 197.988 285.316 198.46 285.316C199.028 285.316 199.464 285.104 199.768 284.68C200.072 284.248 200.224 283.632 200.224 282.832C200.224 282.04 200.072 281.436 199.768 281.02C199.464 280.604 199.028 280.396 198.46 280.396C197.956 280.396 197.532 280.604 197.188 281.02C196.852 281.436 196.684 282.048 196.684 282.856ZM202.449 282.964L202.425 279.688H203.481L203.445 280.684H203.469C203.589 280.364 203.809 280.092 204.129 279.868C204.457 279.644 204.853 279.532 205.317 279.532C205.493 279.532 205.649 279.548 205.785 279.58L205.773 280.576C205.581 280.52 205.409 280.492 205.257 280.492C204.681 280.492 204.237 280.684 203.925 281.068C203.613 281.452 203.457 282.02 203.457 282.772V282.952L203.481 286H202.425L202.449 282.964ZM206.714 282.844L206.69 279.688H207.746L207.722 282.844L207.746 286H206.69L206.714 282.844ZM206.57 278.284C206.57 277.852 206.786 277.636 207.218 277.636C207.65 277.636 207.866 277.852 207.866 278.284C207.866 278.724 207.65 278.944 207.218 278.944C206.786 278.944 206.57 278.724 206.57 278.284ZM211.835 286.18C211.235 286.18 210.711 286.044 210.263 285.772C209.823 285.5 209.483 285.116 209.243 284.62C209.003 284.116 208.883 283.528 208.883 282.856C208.883 282.184 209.003 281.6 209.243 281.104C209.483 280.6 209.823 280.212 210.263 279.94C210.703 279.668 211.223 279.532 211.823 279.532C212.551 279.532 213.135 279.744 213.575 280.168C214.023 280.584 214.295 281.1 214.391 281.716L213.479 281.956C213.391 281.468 213.203 281.088 212.915 280.816C212.635 280.544 212.275 280.408 211.835 280.408C211.251 280.408 210.787 280.628 210.443 281.068C210.107 281.5 209.939 282.096 209.939 282.856C209.939 283.616 210.107 284.216 210.443 284.656C210.787 285.088 211.251 285.304 211.835 285.304C212.275 285.304 212.635 285.172 212.915 284.908C213.203 284.636 213.391 284.252 213.479 283.756L214.391 283.996C214.295 284.612 214.027 285.132 213.587 285.556C213.147 285.972 212.563 286.18 211.835 286.18ZM217.882 286.18C217.282 286.18 216.758 286.044 216.31 285.772C215.87 285.5 215.53 285.116 215.29 284.62C215.05 284.116 214.93 283.528 214.93 282.856C214.93 281.832 215.182 281.024 215.686 280.432C216.19 279.832 216.89 279.532 217.786 279.532C218.746 279.532 219.434 279.872 219.85 280.552C220.266 281.232 220.474 282.092 220.474 283.132H215.998C216.038 283.812 216.226 284.344 216.562 284.728C216.898 285.112 217.338 285.304 217.882 285.304C218.322 285.304 218.682 285.168 218.962 284.896C219.25 284.624 219.438 284.24 219.526 283.744L220.438 283.984C220.342 284.6 220.074 285.12 219.634 285.544C219.194 285.968 218.61 286.18 217.882 286.18ZM219.418 282.292C219.41 281.732 219.262 281.28 218.974 280.936C218.686 280.584 218.294 280.408 217.798 280.408C217.31 280.408 216.91 280.568 216.598 280.888C216.286 281.2 216.094 281.668 216.022 282.292H219.418ZM223.576 286.18C222.816 286.18 222.212 286.016 221.764 285.688C221.324 285.352 221.076 284.848 221.02 284.176L221.944 283.948C221.928 284.356 222.064 284.684 222.352 284.932C222.64 285.18 223.06 285.304 223.612 285.304C224.028 285.304 224.348 285.224 224.572 285.064C224.804 284.904 224.92 284.66 224.92 284.332C224.92 284.044 224.804 283.816 224.572 283.648C224.348 283.472 223.992 283.344 223.504 283.264C222.696 283.144 222.128 282.924 221.8 282.604C221.48 282.276 221.32 281.864 221.32 281.368C221.32 280.824 221.496 280.384 221.848 280.048C222.208 279.704 222.72 279.532 223.384 279.532C224.136 279.532 224.704 279.688 225.088 280C225.48 280.304 225.708 280.772 225.772 281.404L224.86 281.632C224.836 281.216 224.704 280.908 224.464 280.708C224.232 280.508 223.888 280.408 223.432 280.408C223.08 280.408 222.808 280.488 222.616 280.648C222.432 280.8 222.34 281.012 222.34 281.284C222.34 281.564 222.444 281.788 222.652 281.956C222.86 282.116 223.224 282.244 223.744 282.34C224.512 282.476 225.068 282.708 225.412 283.036C225.764 283.364 225.94 283.784 225.94 284.296C225.94 284.848 225.732 285.3 225.316 285.652C224.9 286.004 224.32 286.18 223.576 286.18Z" fill="black"/>
<path d="M56.4299 272.715C56.4299 281.394 49.3941 288.43 40.7149 288.43C32.0358 288.43 25 281.394 25 272.715C25 264.036 32.0358 257 40.7149 257C49.3941 257 56.4299 264.036 56.4299 272.715Z" fill="#F4F4F4"/>
<path d="M41.668 264.825V266.294C42.7875 266.434 43.6844 266.809 44.3586 267.42C45.0329 268.031 45.4654 268.807 45.6562 269.748L43.3472 270.397C43.2836 269.952 43.1055 269.551 42.8129 269.195C42.5331 268.838 42.1514 268.59 41.668 268.45V271.427C43.1564 271.771 44.2314 272.235 44.8929 272.82C45.5545 273.393 45.8852 274.15 45.8852 275.091C45.8852 276.172 45.4972 277.018 44.7212 277.629C43.9452 278.227 42.9274 278.577 41.668 278.679V280.148H40.3322V278.679C39.0982 278.577 38.0932 278.208 37.3172 277.572C36.5539 276.936 36.0705 276.045 35.8669 274.9L38.0423 274.29C38.2077 274.938 38.4685 275.447 38.8247 275.816C39.1809 276.185 39.6834 276.427 40.3322 276.541V273.431C39.0092 273.151 38.0169 272.712 37.3554 272.114C36.7066 271.516 36.3822 270.734 36.3822 269.767C36.3822 268.686 36.732 267.846 37.4317 267.248C38.1314 266.638 39.0982 266.3 40.3322 266.237V264.825H41.668ZM38.8629 269.71C38.8629 270.066 38.971 270.346 39.1873 270.549C39.4035 270.753 39.7852 270.937 40.3322 271.103V268.317C39.8742 268.368 39.5117 268.514 39.2445 268.756C38.9901 268.997 38.8629 269.315 38.8629 269.71ZM41.668 276.579C42.2532 276.529 42.6857 276.382 42.9656 276.141C43.2455 275.886 43.3854 275.562 43.3854 275.167C43.3854 274.862 43.2518 274.595 42.9847 274.366C42.7175 274.124 42.2786 273.914 41.668 273.736V276.579Z" fill="#141414"/>
<defs>
<linearGradient id="paint0_linear_49_566" x1="nan" y1="nan" x2="nan" y2="nan" gradientUnits="userSpaceOnUse">
<stop stop-color="white" stop-opacity="0.09"/>
<stop offset="0.21875" stop-color="white" stop-opacity="0.05"/>
<stop offset="1" stop-color="white" stop-opacity="0.03"/>
</linearGradient>
<linearGradient id="paint1_linear_49_566" x1="nan" y1="nan" x2="nan" y2="nan" gradientUnits="userSpaceOnUse">
<stop stop-color="white" stop-opacity="0.09"/>
<stop offset="0.21875" stop-color="white" stop-opacity="0.05"/>
<stop offset="1" stop-color="white" stop-opacity="0.03"/>
</linearGradient>
<linearGradient id="paint2_linear_49_566" x1="nan" y1="nan" x2="nan" y2="nan" gradientUnits="userSpaceOnUse">
<stop stop-color="white" stop-opacity="0.09"/>
<stop offset="0.21875" stop-color="white" stop-opacity="0.05"/>
<stop offset="1" stop-color="white" stop-opacity="0.03"/>
</linearGradient>
<linearGradient id="paint3_linear_49_566" x1="nan" y1="nan" x2="nan" y2="nan" gradientUnits="userSpaceOnUse">
<stop stop-color="white" stop-opacity="0.09"/>
<stop offset="0.21875" stop-color="white" stop-opacity="0.05"/>
<stop offset="1" stop-color="white" stop-opacity="0.03"/>
</linearGradient>
<linearGradient id="paint4_linear_49_566" x1="nan" y1="nan" x2="nan" y2="nan" gradientUnits="userSpaceOnUse">
<stop stop-color="white" stop-opacity="0.09"/>
<stop offset="0.21875" stop-color="white" stop-opacity="0.05"/>
<stop offset="1" stop-color="white" stop-opacity="0.03"/>
</linearGradient>
<linearGradient id="paint5_linear_49_566" x1="nan" y1="nan" x2="nan" y2="nan" gradientUnits="userSpaceOnUse">
<stop stop-color="white" stop-opacity="0.09"/>
<stop offset="0.21875" stop-color="white" stop-opacity="0.05"/>
<stop offset="1" stop-color="white" stop-opacity="0.03"/>
</linearGradient>
<linearGradient id="paint6_linear_49_566" x1="nan" y1="nan" x2="nan" y2="nan" gradientUnits="userSpaceOnUse">
<stop stop-color="white" stop-opacity="0.09"/>
<stop offset="0.21875" stop-color="white" stop-opacity="0.05"/>
<stop offset="1" stop-color="white" stop-opacity="0.03"/>
</linearGradient>
<linearGradient id="paint7_linear_49_566" x1="nan" y1="nan" x2="nan" y2="nan" gradientUnits="userSpaceOnUse">
<stop stop-color="white" stop-opacity="0.09"/>
<stop offset="0.21875" stop-color="white" stop-opacity="0.05"/>
<stop offset="1" stop-color="white" stop-opacity="0.03"/>
</linearGradient>
<linearGradient id="paint8_linear_49_566" x1="nan" y1="nan" x2="nan" y2="nan" gradientUnits="userSpaceOnUse">
<stop stop-color="white" stop-opacity="0.09"/>
<stop offset="0.21875" stop-color="white" stop-opacity="0.05"/>
<stop offset="1" stop-color="white" stop-opacity="0.03"/>
</linearGradient>
<linearGradient id="paint9_linear_49_566" x1="nan" y1="nan" x2="nan" y2="nan" gradientUnits="userSpaceOnUse">
<stop stop-color="white" stop-opacity="0.09"/>
<stop offset="0.21875" stop-color="white" stop-opacity="0.05"/>
<stop offset="1" stop-color="white" stop-opacity="0.03"/>
</linearGradient>
<linearGradient id="paint10_linear_49_566" x1="nan" y1="nan" x2="nan" y2="nan" gradientUnits="userSpaceOnUse">
<stop stop-color="white" stop-opacity="0.09"/>
<stop offset="0.21875" stop-color="white" stop-opacity="0.05"/>
<stop offset="1" stop-color="white" stop-opacity="0.03"/>
</linearGradient>
<linearGradient id="paint11_linear_49_566" x1="nan" y1="nan" x2="nan" y2="nan" gradientUnits="userSpaceOnUse">
<stop stop-color="white" stop-opacity="0.09"/>
<stop offset="0.21875" stop-color="white" stop-opacity="0.05"/>
<stop offset="1" stop-color="white" stop-opacity="0.03"/>
</linearGradient>
<linearGradient id="paint12_linear_49_566" x1="70.578" y1="122.316" x2="134.603" y2="100.082" gradientUnits="userSpaceOnUse">
<stop stop-color="#00C2FF"/>
<stop offset="0.5" stop-color="#79E1F8"/>
<stop offset="1" stop-color="#94FDFD"/>
</linearGradient>
</defs>
</svg>
