<svg width="209" height="69" viewBox="0 0 209 69" fill="none" xmlns="http://www.w3.org/2000/svg">
<path d="M71.1504 45.4983V22.4439H80.3721C82.0158 22.4439 83.3447 22.7748 84.3586 23.4365C85.3726 24.0876 86.1144 24.9095 86.584 25.9021C87.0536 26.8947 87.2885 27.898 87.2885 28.912C87.2885 30.2034 86.9949 31.2761 86.4079 32.13C85.8315 32.9838 85.0364 33.5549 84.0224 33.843V33.0425C85.4633 33.3414 86.5413 34.0085 87.2564 35.0438C87.9822 36.0791 88.3451 37.2372 88.3451 38.518C88.3451 39.8948 88.089 41.1062 87.5766 42.1522C87.075 43.1982 86.3065 44.0201 85.2712 44.6178C84.2359 45.2048 82.9337 45.4983 81.3648 45.4983H71.1504ZM75.5691 41.3998H80.9165C81.5035 41.3998 82.0265 41.277 82.4855 41.0315C82.9444 40.7754 83.302 40.4231 83.5581 39.9749C83.825 39.5159 83.9584 38.9769 83.9584 38.3579C83.9584 37.8135 83.8463 37.3279 83.6222 36.9009C83.398 36.474 83.0565 36.1378 82.5975 35.8923C82.1493 35.6362 81.5889 35.5081 80.9165 35.5081H75.5691V41.3998ZM75.5691 31.4415H80.3081C80.7991 31.4415 81.2367 31.3562 81.6209 31.1854C82.0052 31.0146 82.3094 30.7531 82.5335 30.4009C82.7576 30.038 82.8697 29.5737 82.8697 29.008C82.8697 28.3036 82.6509 27.7112 82.2133 27.2309C81.7757 26.7506 81.1406 26.5105 80.3081 26.5105H75.5691V31.4415Z" fill="#222222"/>
<path d="M91.8583 25.806V21.9636H96.213V25.806H91.8583ZM91.8583 45.4983V28.2075H96.213V45.4983H91.8583Z" fill="#222222"/>
<path d="M111.387 45.4983C110.192 45.7224 109.018 45.8185 107.865 45.7865C106.723 45.7651 105.698 45.5677 104.791 45.1941C103.895 44.8099 103.211 44.1962 102.742 43.353C102.315 42.5631 102.091 41.7626 102.069 40.9515C102.048 40.1296 102.037 39.201 102.037 38.1657V23.4045H106.392V37.9096C106.392 38.582 106.397 39.1904 106.408 39.7347C106.429 40.2684 106.542 40.6953 106.744 41.0155C107.129 41.6239 107.742 41.9548 108.585 42.0081C109.429 42.0615 110.363 42.0188 111.387 41.8801V45.4983ZM99.0916 31.5696V28.2075H111.387V31.5696H99.0916Z" fill="#222222"/>
<path d="M115.24 45.4983V22.4439H119.147L126.768 37.7495L134.388 22.4439H138.295V45.4983H134.228V31.7297L127.536 45.4983H125.999L119.307 31.7297V45.4983H115.24Z" fill="#222222"/>
<path d="M147.592 45.9786C146.354 45.9786 145.302 45.7438 144.438 45.2742C143.584 44.7939 142.933 44.1588 142.485 43.369C142.047 42.5685 141.828 41.6879 141.828 40.7273C141.828 39.9268 141.951 39.1957 142.196 38.534C142.442 37.8722 142.837 37.2905 143.381 36.7889C143.936 36.2766 144.678 35.8496 145.607 35.5081C146.247 35.2733 147.01 35.0651 147.896 34.8837C148.782 34.7022 149.785 34.5315 150.906 34.3714C152.027 34.2006 153.259 34.0138 154.604 33.811L153.035 34.6756C153.035 33.6509 152.79 32.8984 152.299 32.4181C151.808 31.9378 150.986 31.6977 149.833 31.6977C149.193 31.6977 148.526 31.8525 147.832 32.162C147.138 32.4715 146.653 33.0212 146.375 33.811L142.437 32.5622C142.874 31.132 143.696 29.9686 144.902 29.0721C146.108 28.1755 147.752 27.7272 149.833 27.7272C151.359 27.7272 152.715 27.962 153.9 28.4317C155.084 28.9013 155.981 29.7125 156.589 30.8652C156.931 31.5056 157.134 32.146 157.198 32.7864C157.262 33.4268 157.294 34.1419 157.294 34.9317V45.4983H153.483V41.9441L154.028 42.6806C153.185 43.8439 152.272 44.6871 151.29 45.2101C150.319 45.7224 149.086 45.9786 147.592 45.9786ZM148.52 42.5525C149.321 42.5525 149.993 42.4137 150.538 42.1362C151.093 41.848 151.53 41.5225 151.85 41.1596C152.181 40.7967 152.405 40.4925 152.523 40.247C152.747 39.7774 152.875 39.2331 152.907 38.614C152.95 37.9843 152.971 37.4613 152.971 37.045L154.252 37.3652C152.961 37.5787 151.915 37.7601 151.114 37.9096C150.314 38.0483 149.668 38.1764 149.177 38.2938C148.686 38.4112 148.254 38.5393 147.88 38.6781C147.453 38.8488 147.106 39.0356 146.839 39.2384C146.583 39.4305 146.391 39.644 146.263 39.8788C146.146 40.1136 146.087 40.3751 146.087 40.6633C146.087 41.0582 146.183 41.3998 146.375 41.6879C146.578 41.9654 146.861 42.1789 147.224 42.3283C147.586 42.4778 148.019 42.5525 148.52 42.5525Z" fill="#222222"/>
<path d="M161.425 45.4983L161.457 22.4439H165.875V36.5327L171.735 28.2075H177.114L170.871 36.8529L177.531 45.4983H171.863L165.875 37.1731V45.4983H161.425Z" fill="#222222"/>
<path d="M186.848 45.9786C185.077 45.9786 183.513 45.5997 182.157 44.8419C180.813 44.0734 179.756 43.0221 178.987 41.6879C178.23 40.3431 177.851 38.8061 177.851 37.0771C177.851 35.1879 178.224 33.5442 178.971 32.146C179.719 30.7478 180.748 29.6644 182.061 28.8959C183.374 28.1168 184.884 27.7272 186.592 27.7272C188.407 27.7272 189.949 28.1542 191.219 29.008C192.489 29.8619 193.428 31.0626 194.037 32.6103C194.645 34.1579 194.859 35.9777 194.677 38.0697H190.371V36.4687C190.371 34.7076 190.088 33.4428 189.522 32.6743C188.967 31.8952 188.054 31.5056 186.784 31.5056C185.301 31.5056 184.207 31.9592 183.502 32.8664C182.808 33.763 182.462 35.0918 182.462 36.8529C182.462 38.4646 182.808 39.7134 183.502 40.5993C184.207 41.4745 185.237 41.9121 186.592 41.9121C187.446 41.9121 188.177 41.7253 188.786 41.3517C189.394 40.9782 189.858 40.4392 190.178 39.7347L194.533 40.9835C193.882 42.5631 192.852 43.7906 191.443 44.6658C190.045 45.541 188.513 45.9786 186.848 45.9786ZM181.117 38.0697V34.8357H192.58V38.0697H181.117Z" fill="#222222"/>
<path d="M198.292 45.4983V28.2075H202.135V32.4342L201.718 31.8898C201.942 31.2921 202.241 30.7478 202.615 30.2568C202.988 29.7658 203.447 29.3602 203.992 29.04C204.408 28.7839 204.862 28.5864 205.353 28.4477C205.844 28.2982 206.351 28.2075 206.874 28.1755C207.397 28.1328 207.92 28.1435 208.443 28.2075V32.2741C207.962 32.1246 207.402 32.0766 206.761 32.13C206.132 32.1727 205.561 32.3167 205.048 32.5622C204.536 32.797 204.104 33.1119 203.752 33.5068C203.399 33.8911 203.133 34.35 202.951 34.8837C202.77 35.4067 202.679 35.999 202.679 36.6608V45.4983H198.292Z" fill="#222222"/>
<path d="M51.049 17.0195C60.4469 26.4174 60.4469 41.6543 51.049 51.0522C41.6511 60.45 26.4142 60.45 17.0163 51.0522C7.61847 41.6543 7.61847 26.4174 17.0163 17.0195C26.4142 7.62163 41.6511 7.62163 51.049 17.0195Z" fill="#292929"/>
<mask id="mask0_0_200" style="mask-type:alpha" maskUnits="userSpaceOnUse" x="9" y="9" width="50" height="50">
<path d="M51.0526 17.0168C60.4505 26.4147 60.4505 41.6516 51.0526 51.0495C41.6547 60.4473 26.4178 60.4473 17.0199 51.0495C7.62207 41.6516 7.62207 26.4147 17.0199 17.0168C26.4178 7.61895 41.6547 7.61895 51.0526 17.0168Z" fill="black"/>
</mask>
<g mask="url(#mask0_0_200)">
<mask id="mask1_0_200" style="mask-type:alpha" maskUnits="userSpaceOnUse" x="-5" y="19" width="54" height="54">
<path d="M0.000549169 68.071C-5.78275 62.2877 -5.78275 52.9111 0.000549843 47.1278L23.5616 23.5667C29.3449 17.7834 38.7215 17.7834 44.5048 23.5667C50.2881 29.35 50.2881 38.7266 44.5048 44.5099L20.9437 68.071C15.1604 73.8543 5.78385 73.8542 0.000549169 68.071Z" fill="#D9D9D9"/>
</mask>
<g mask="url(#mask1_0_200)">
<path d="M-15.5218 56.3076L-2.19434 69.6351L57.3536 10.0871L46.585 7.52827L33.9718 6.81402L-15.5218 56.3076Z" fill="url(#paint0_linear_0_200)"/>
<path d="M-5.32651 72.752L8.46506 86.5435L53.9979 41.0107L58.3878 22.8056L50.1471 17.2783L-5.32651 72.752Z" fill="url(#paint1_linear_0_200)"/>
</g>
<path fill-rule="evenodd" clip-rule="evenodd" d="M44.1907 23.2496C44.1907 23.2496 39.6836 27.7567 34.1788 33.2615C28.6395 38.8007 24.1324 43.3078 24.1324 43.3078C18.5337 37.7091 18.4853 28.6465 24.0245 23.1072C29.5985 17.6028 38.5919 17.6508 44.1907 23.2496Z" fill="#00E3E3"/>
<path fill-rule="evenodd" clip-rule="evenodd" d="M24.1291 43.3118C24.1291 43.3118 28.6362 38.8047 34.141 33.2999C39.6802 27.7607 44.1873 23.2536 44.1873 23.2536C50.136 29.2023 50.4691 38.5496 44.9299 44.0888C39.3537 49.5911 30.0777 49.2605 24.1291 43.3118Z" fill="#FF6C62"/>
</g>
<defs>
<linearGradient id="paint0_linear_0_200" x1="1.53515" y1="52.5701" x2="26.1105" y2="27.9947" gradientUnits="userSpaceOnUse">
<stop stop-color="#00D5E3" stop-opacity="0"/>
<stop offset="1" stop-color="#00E3BA"/>
</linearGradient>
<linearGradient id="paint1_linear_0_200" x1="1.65297" y1="79.5607" x2="41.3707" y2="39.843" gradientUnits="userSpaceOnUse">
<stop offset="0.385446" stop-color="#FF6C62" stop-opacity="0"/>
<stop offset="0.9375" stop-color="#FF6C62"/>
</linearGradient>
</defs>
</svg>
