<svg width="138" height="45" viewBox="0 0 138 45" fill="none" xmlns="http://www.w3.org/2000/svg">
<path d="M47.0371 30.0791V14.8376H53.1337C54.2204 14.8376 55.0989 15.0563 55.7692 15.4938C56.4396 15.9242 56.93 16.4675 57.2405 17.1238C57.5509 17.78 57.7062 18.4433 57.7062 19.1136C57.7062 19.9675 57.5121 20.6766 57.124 21.2411C56.743 21.8056 56.2173 22.1831 55.547 22.3736V21.8444C56.4995 22.042 57.2122 22.483 57.685 23.1675C58.1648 23.8519 58.4047 24.6175 58.4047 25.4643C58.4047 26.3745 58.2354 27.1754 57.8967 27.8669C57.565 28.5584 57.057 29.1018 56.3725 29.4969C55.6881 29.885 54.8272 30.0791 53.7899 30.0791H47.0371ZM49.9584 27.3695H53.4936C53.8817 27.3695 54.2274 27.2883 54.5309 27.126C54.8343 26.9567 55.0707 26.7238 55.24 26.4275C55.4164 26.124 55.5046 25.7677 55.5046 25.3584C55.5046 24.9986 55.4305 24.6775 55.2823 24.3953C55.1342 24.113 54.9084 23.8907 54.6049 23.7284C54.3086 23.5591 53.9381 23.4744 53.4936 23.4744H49.9584V27.3695ZM49.9584 20.786H53.0914C53.416 20.786 53.7053 20.7295 53.9593 20.6166C54.2133 20.5037 54.4144 20.3308 54.5626 20.098C54.7108 19.8581 54.7849 19.5511 54.7849 19.1771C54.7849 18.7114 54.6402 18.3198 54.3509 18.0023C54.0616 17.6848 53.6418 17.526 53.0914 17.526H49.9584V20.786Z" fill="white"/>
<path d="M60.7273 17.0603V14.52H63.6063V17.0603H60.7273ZM60.7273 30.0791V18.6479H63.6063V30.0791H60.7273Z" fill="white"/>
<path d="M73.6381 30.0791C72.8478 30.2273 72.0717 30.2908 71.3096 30.2696C70.5546 30.2555 69.8772 30.1249 69.2774 29.878C68.6847 29.6239 68.2331 29.2182 67.9226 28.6608C67.6403 28.1386 67.4921 27.6094 67.478 27.0731C67.4639 26.5298 67.4569 25.9159 67.4569 25.2314V15.4726H70.3358V25.0621C70.3358 25.5066 70.3393 25.9088 70.3464 26.2687C70.3605 26.6215 70.4346 26.9038 70.5687 27.1154C70.8227 27.5176 71.2284 27.7364 71.7859 27.7717C72.3433 27.807 72.9607 27.7787 73.6381 27.687V30.0791ZM65.5093 20.8707V18.6479H73.6381V20.8707H65.5093Z" fill="white"/>
<path d="M76.1855 30.0791V14.8376H78.7681L83.8063 24.9562L88.8444 14.8376H91.427V30.0791H88.7386V20.9765L84.3143 30.0791H83.2982L78.8739 20.9765V30.0791H76.1855Z" fill="white"/>
<path d="M97.5734 30.3966C96.7549 30.3966 96.0598 30.2414 95.4883 29.9309C94.9238 29.6134 94.4934 29.1935 94.197 28.6713C93.9077 28.1421 93.763 27.56 93.763 26.9249C93.763 26.3957 93.8442 25.9124 94.0065 25.4749C94.1688 25.0374 94.4298 24.6528 94.7897 24.3212C95.1566 23.9825 95.647 23.7002 96.2609 23.4744C96.6843 23.3192 97.1888 23.1816 97.7745 23.0616C98.3602 22.9417 99.0235 22.8288 99.7644 22.7229C100.505 22.61 101.32 22.4865 102.209 22.3525L101.172 22.924C101.172 22.2466 101.01 21.7492 100.685 21.4316C100.361 21.1141 99.8173 20.9553 99.0552 20.9553C98.6318 20.9553 98.1908 21.0576 97.7322 21.2623C97.2735 21.4669 96.9525 21.8303 96.769 22.3525L94.1652 21.5269C94.4545 20.5813 94.9979 19.8122 95.7952 19.2195C96.5926 18.6268 97.6793 18.3304 99.0552 18.3304C100.064 18.3304 100.96 18.4856 101.744 18.7961C102.527 19.1066 103.12 19.6429 103.522 20.4049C103.748 20.8283 103.882 21.2517 103.924 21.6751C103.966 22.0984 103.988 22.5712 103.988 23.0934V30.0791H101.468V27.7293L101.828 28.2162C101.271 28.9854 100.668 29.5428 100.018 29.8886C99.3763 30.2273 98.5613 30.3966 97.5734 30.3966ZM98.1873 28.1315C98.7165 28.1315 99.1611 28.0398 99.5209 27.8563C99.8879 27.6658 100.177 27.4506 100.389 27.2107C100.608 26.9708 100.756 26.7697 100.833 26.6074C100.982 26.2969 101.066 25.937 101.087 25.5278C101.116 25.1115 101.13 24.7657 101.13 24.4905L101.977 24.7022C101.123 24.8433 100.431 24.9633 99.902 25.0621C99.3728 25.1538 98.9459 25.2385 98.6213 25.3161C98.2967 25.3937 98.0109 25.4784 97.7639 25.5701C97.4817 25.683 97.2523 25.8065 97.0759 25.9406C96.9066 26.0676 96.7796 26.2087 96.6949 26.364C96.6173 26.5192 96.5785 26.6921 96.5785 26.8826C96.5785 27.1437 96.642 27.3695 96.769 27.56C96.9031 27.7434 97.0901 27.8846 97.33 27.9834C97.5699 28.0822 97.8557 28.1315 98.1873 28.1315Z" fill="white"/>
<path d="M106.718 30.0791L106.74 14.8376H109.661V24.1518L113.535 18.6479H117.091L112.963 24.3635L117.366 30.0791H113.619L109.661 24.5752V30.0791H106.718Z" fill="white"/>
<path d="M123.526 30.3966C122.355 30.3966 121.321 30.1461 120.425 29.6451C119.536 29.1371 118.837 28.442 118.329 27.56C117.828 26.6709 117.578 25.6548 117.578 24.5117C117.578 23.2627 117.825 22.1761 118.319 21.2517C118.813 20.3273 119.494 19.6111 120.362 19.1031C121.23 18.588 122.228 18.3304 123.357 18.3304C124.557 18.3304 125.576 18.6126 126.416 19.1771C127.256 19.7417 127.876 20.5355 128.279 21.5586C128.681 22.5818 128.822 23.7849 128.702 25.1679H125.855V24.1095C125.855 22.9452 125.668 22.109 125.294 21.601C124.927 21.0859 124.324 20.8283 123.484 20.8283C122.503 20.8283 121.78 21.1282 121.314 21.728C120.856 22.3207 120.626 23.1992 120.626 24.3635C120.626 25.429 120.856 26.2546 121.314 26.8402C121.78 27.4189 122.461 27.7082 123.357 27.7082C123.921 27.7082 124.405 27.5847 124.807 27.3377C125.209 27.0907 125.516 26.7344 125.728 26.2687L128.607 27.0943C128.176 28.1386 127.495 28.9501 126.564 29.5287C125.64 30.1073 124.627 30.3966 123.526 30.3966ZM119.737 25.1679V23.0299H127.316V25.1679H119.737Z" fill="white"/>
<path d="M131.092 30.0791V18.6479H133.632V21.4422L133.357 21.0823C133.505 20.6872 133.703 20.3273 133.95 20.0027C134.197 19.6781 134.5 19.41 134.86 19.1983C135.135 19.029 135.435 18.8984 135.76 18.8067C136.084 18.7079 136.419 18.6479 136.765 18.6268C137.111 18.5985 137.457 18.6056 137.802 18.6479V21.3364C137.485 21.2376 137.115 21.2058 136.691 21.2411C136.275 21.2693 135.897 21.3646 135.559 21.5269C135.22 21.6821 134.934 21.8903 134.701 22.1514C134.468 22.4054 134.292 22.7088 134.172 23.0616C134.052 23.4074 133.992 23.799 133.992 24.2365V30.0791H131.092Z" fill="white"/>
<path d="M33.7491 11.251C39.9621 17.4641 39.9621 27.5374 33.7491 33.7504C27.536 39.9635 17.4627 39.9635 11.2497 33.7504C5.03666 27.5374 5.03666 17.4641 11.2497 11.251C17.4627 5.038 27.536 5.038 33.7491 11.251Z" fill="white"/>
<mask id="mask0_333_3417" style="mask-type:alpha" maskUnits="userSpaceOnUse" x="6" y="6" width="33" height="33">
<path d="M33.7491 11.2496C39.9621 17.4626 39.9621 27.5359 33.7491 33.749C27.536 39.962 17.4627 39.962 11.2497 33.749C5.03666 27.5359 5.03666 17.4626 11.2497 11.2496C17.4627 5.03654 27.536 5.03654 33.7491 11.2496Z" fill="black"/>
</mask>
<g mask="url(#mask0_333_3417)">
<mask id="mask1_333_3417" style="mask-type:alpha" maskUnits="userSpaceOnUse" x="-3" y="12" width="36" height="36">
<path d="M-0.00289489 45.0022C-3.8263 41.1788 -3.8263 34.9799 -0.00289454 31.1565L15.5736 15.58C19.397 11.7565 25.596 11.7566 29.4194 15.58V15.58C33.2428 19.4034 33.2428 25.6023 29.4194 29.4257L13.8429 45.0022C10.0195 48.8256 3.82051 48.8256 -0.00289489 45.0022V45.0022Z" fill="#D9D9D9"/>
</mask>
<g mask="url(#mask1_333_3417)">
<path d="M-10.2637 37.2256L-1.45272 46.0365L37.9151 6.6687L30.7959 4.97701L22.4571 4.50481L-10.2637 37.2256Z" fill="url(#paint0_linear_333_3417)"/>
<path d="M-3.52344 48.0972L5.59432 57.2149L35.6966 27.1126L38.5988 15.077L33.1508 11.4229L-3.52344 48.0972Z" fill="url(#paint1_linear_333_3417)"/>
</g>
<path fill-rule="evenodd" clip-rule="evenodd" d="M29.2121 15.3703C29.2121 15.3703 26.2324 18.35 22.5931 21.9893C18.9311 25.6514 15.9514 28.6311 15.9514 28.6311C12.25 24.9297 12.218 18.9383 15.88 15.2762C19.5651 11.6372 25.5107 11.6689 29.2121 15.3703Z" fill="#00E3E3"/>
<path fill-rule="evenodd" clip-rule="evenodd" d="M15.9503 28.6337C15.9503 28.6337 18.93 25.654 22.5693 22.0147C26.2314 18.3526 29.2111 15.3729 29.2111 15.3729C33.1438 19.3057 33.3641 25.4853 29.702 29.1474C26.0155 32.785 19.8831 32.5664 15.9503 28.6337Z" fill="#FF6C62"/>
</g>
<defs>
<linearGradient id="paint0_linear_333_3417" x1="1.01289" y1="34.7546" x2="17.2599" y2="18.5076" gradientUnits="userSpaceOnUse">
<stop stop-color="#00D5E3" stop-opacity="0"/>
<stop offset="1" stop-color="#00E3BA"/>
</linearGradient>
<linearGradient id="paint1_linear_333_3417" x1="1.09077" y1="52.5985" x2="27.3486" y2="26.3407" gradientUnits="userSpaceOnUse">
<stop offset="0.385446" stop-color="#FF6C62" stop-opacity="0"/>
<stop offset="0.9375" stop-color="#FF6C62"/>
</linearGradient>
</defs>
</svg>
