<svg width="26" height="26" viewBox="0 0 26 26" fill="none" xmlns="http://www.w3.org/2000/svg">
<path d="M25.4005 13C25.4005 20.1793 19.714 26 12.7002 26C5.68648 26 0 20.1793 0 13C0 5.8207 5.68648 0 12.7002 0C19.7155 0 25.4005 5.8207 25.4005 13Z" fill="#2081E2"/>
<path d="M20.9919 14.4198V15.2572C20.9919 15.3053 20.9632 15.3481 20.9215 15.3668C20.6658 15.4789 19.7902 15.8903 19.4262 16.4085C18.4971 17.7322 17.7873 19.6248 16.2006 19.6248H9.58119C7.23513 19.6248 5.33398 17.6721 5.33398 15.2626V15.1851C5.33398 15.121 5.38486 15.0689 5.4475 15.0689H9.13758C9.21063 15.0689 9.26412 15.1384 9.25762 15.2118C9.23151 15.4576 9.27588 15.7087 9.3894 15.9371C9.6086 16.3925 10.0627 16.677 10.5533 16.677H12.3801V15.2172H10.5742C10.4815 15.2172 10.4268 15.1076 10.4802 15.0302C10.4998 14.9995 10.522 14.9674 10.5455 14.9314C10.7164 14.6829 10.9604 14.2969 11.2031 13.8575C11.3688 13.561 11.5293 13.2445 11.6585 12.9266C11.6846 12.8691 11.7055 12.8104 11.7263 12.7529C11.7616 12.6514 11.7981 12.5566 11.8242 12.4618C11.8503 12.3816 11.8712 12.2975 11.8921 12.2187C11.9534 11.9489 11.9795 11.6631 11.9795 11.3666C11.9795 11.2504 11.9743 11.1288 11.9638 11.0126C11.9586 10.8857 11.943 10.7588 11.9273 10.6319C11.9168 10.5198 11.8973 10.4089 11.8764 10.2927C11.8503 10.1231 11.8138 9.9548 11.772 9.78515L11.7577 9.72106C11.7263 9.60484 11.7003 9.49401 11.6637 9.37781C11.5606 9.01316 11.4419 8.6579 11.3166 8.32533C11.271 8.1931 11.2188 8.06622 11.1666 7.93934C11.0896 7.74834 11.0113 7.57471 10.9395 7.41042C10.903 7.33562 10.8717 7.2675 10.8404 7.19805C10.8051 7.11924 10.7686 7.04044 10.7321 6.96566C10.706 6.90823 10.676 6.8548 10.6551 6.80137L10.432 6.37931C10.4006 6.32188 10.4528 6.25376 10.5142 6.27112L11.9103 6.65845H11.9143C11.9168 6.65845 11.9182 6.6598 11.9195 6.6598L12.1034 6.71188L12.3057 6.77066L12.3801 6.79201V5.94256C12.3801 5.53252 12.7011 5.19995 13.0977 5.19995C13.2961 5.19995 13.4761 5.28276 13.6053 5.41765C13.7345 5.55256 13.8154 5.73688 13.8154 5.94256V7.20341L13.9641 7.24612C13.9759 7.25015 13.9876 7.25549 13.9981 7.26349C14.0346 7.29155 14.0868 7.33294 14.1533 7.38372C14.2055 7.42643 14.2616 7.47854 14.3295 7.53197C14.4639 7.64281 14.6244 7.78573 14.8005 7.95002C14.8475 7.99141 14.8932 8.03416 14.9349 8.0769C15.162 8.29327 15.4164 8.54704 15.6591 8.82752C15.727 8.90633 15.7935 8.98646 15.8614 9.0706C15.9292 9.15608 16.001 9.24022 16.0636 9.32438C16.1458 9.43657 16.2345 9.55277 16.3115 9.67432C16.3481 9.73175 16.3898 9.79051 16.425 9.84794C16.5242 10.0015 16.6116 10.1605 16.6952 10.3194C16.7304 10.3929 16.7669 10.473 16.7982 10.5518C16.8909 10.7642 16.9639 10.9806 17.0109 11.1969C17.0253 11.2437 17.0357 11.2944 17.0409 11.3399V11.3505C17.0566 11.4146 17.0618 11.4827 17.067 11.5522C17.0879 11.7739 17.0775 11.9956 17.0305 12.2187C17.0109 12.3135 16.9848 12.403 16.9535 12.4978C16.9222 12.5887 16.8909 12.6835 16.8504 12.773C16.7721 12.9586 16.6795 13.1443 16.5699 13.3179C16.5346 13.382 16.4929 13.4501 16.4511 13.5143C16.4055 13.5823 16.3585 13.6465 16.3167 13.7093C16.2593 13.7894 16.198 13.8735 16.1354 13.9483C16.0793 14.0271 16.0219 14.1059 15.9592 14.1754C15.8718 14.2809 15.7883 14.3811 15.7009 14.4772C15.6487 14.54 15.5926 14.6041 15.5351 14.6616C15.4791 14.7256 15.4216 14.7831 15.3694 14.8365C15.282 14.926 15.2089 14.9955 15.1476 15.0529L15.0041 15.1878C14.9832 15.2065 14.9558 15.2172 14.9271 15.2172H13.8154V16.677H15.2142C15.5273 16.677 15.8248 16.5635 16.0649 16.3551C16.1471 16.2817 16.5059 15.9638 16.93 15.4843C16.9444 15.4683 16.9626 15.4562 16.9835 15.4509L20.8471 14.3076C20.9189 14.2862 20.9919 14.3423 20.9919 14.4198Z" fill="white"/>
</svg>
