<svg width="24" height="24" viewBox="0 0 24 24" fill="none" xmlns="http://www.w3.org/2000/svg">
<path d="M17.0001 8V5C17.0001 4.73478 16.8948 4.48043 16.7072 4.29289C16.5197 4.10536 16.2653 4 16.0001 4H6.00012C5.46969 4 4.96098 4.21071 4.58591 4.58579C4.21084 4.96086 4.00012 5.46957 4.00012 6M4.00012 6C4.00012 6.53043 4.21084 7.03914 4.58591 7.41421C4.96098 7.78929 5.46969 8 6.00012 8H18.0001C18.2653 8 18.5197 8.10536 18.7072 8.29289C18.8948 8.48043 19.0001 8.73478 19.0001 9V12M4.00012 6V18C4.00012 18.5304 4.21084 19.0391 4.58591 19.4142C4.96098 19.7893 5.46969 20 6.00012 20H18.0001C18.2653 20 18.5197 19.8946 18.7072 19.7071C18.8948 19.5196 19.0001 19.2652 19.0001 19V16" stroke="white" stroke-width="1.5" stroke-linecap="round" stroke-linejoin="round"/>
<path d="M19.9999 12V16H15.9999C15.4694 16 14.9607 15.7893 14.5857 15.4142C14.2106 15.0391 13.9999 14.5304 13.9999 14C13.9999 13.4696 14.2106 12.9609 14.5857 12.5858C14.9607 12.2107 15.4694 12 15.9999 12H19.9999Z" stroke="white" stroke-width="1.5" stroke-linecap="round" stroke-linejoin="round"/>
</svg>
