<svg width="182" height="60" viewBox="0 0 182 60" fill="none" xmlns="http://www.w3.org/2000/svg">
<path d="M62.124 40.0098V19.8798H70.176C71.6112 19.8798 72.7715 20.1687 73.6568 20.7465C74.5422 21.315 75.1899 22.0326 75.5999 22.8993C76.01 23.766 76.215 24.6421 76.215 25.5274C76.215 26.6551 75.9587 27.5917 75.4461 28.3372C74.9429 29.0828 74.2486 29.5814 73.3633 29.833V29.134C74.6214 29.395 75.5626 29.9774 76.187 30.8814C76.8208 31.7854 77.1376 32.7966 77.1376 33.9149C77.1376 35.1171 76.914 36.1749 76.4666 37.0882C76.0286 38.0015 75.3576 38.7191 74.4536 39.2409C73.5496 39.7535 72.4127 40.0098 71.0427 40.0098H62.124ZM65.9823 36.4311H70.6513C71.1639 36.4311 71.6205 36.324 72.0213 36.1096C72.422 35.8859 72.7342 35.5784 72.9579 35.187C73.1908 34.7863 73.3073 34.3156 73.3073 33.7751C73.3073 33.2998 73.2095 32.8758 73.0138 32.503C72.8181 32.1302 72.5198 31.8367 72.1191 31.6223C71.7277 31.3986 71.2384 31.2868 70.6513 31.2868H65.9823V36.4311ZM65.9823 27.7361H70.1201C70.5488 27.7361 70.9309 27.6615 71.2664 27.5124C71.6019 27.3633 71.8675 27.135 72.0632 26.8275C72.2589 26.5106 72.3568 26.1052 72.3568 25.6113C72.3568 24.9962 72.1657 24.479 71.7836 24.0596C71.4015 23.6402 70.847 23.4305 70.1201 23.4305H65.9823V27.7361Z" fill="white"/>
<path d="M80.2052 22.8154V19.4604H84.0075V22.8154H80.2052ZM80.2052 40.0098V24.9123H84.0075V40.0098H80.2052Z" fill="white"/>
<path d="M97.2569 40.0098C96.2131 40.2055 95.188 40.2894 94.1815 40.2614C93.1843 40.2428 92.2896 40.0704 91.4975 39.7442C90.7146 39.4087 90.1182 38.8728 89.7081 38.1366C89.3354 37.447 89.1397 36.748 89.121 36.0397C89.1024 35.3221 89.0931 34.5113 89.0931 33.6073V20.7186H92.8954V33.3837C92.8954 33.9708 92.9001 34.502 92.9094 34.9773C92.928 35.4433 93.0259 35.8161 93.2029 36.0956C93.5384 36.6268 94.0743 36.9157 94.8105 36.9623C95.5468 37.0089 96.3622 36.9717 97.2569 36.8505V40.0098ZM86.5209 27.8479V24.9123H97.2569V27.8479H86.5209Z" fill="white"/>
<path d="M100.621 40.0098V19.8798H104.032L110.686 33.2439L117.34 19.8798H120.751V40.0098H117.201V27.9877L111.357 40.0098H110.015L104.172 27.9877V40.0098H100.621Z" fill="white"/>
<path d="M128.869 40.4292C127.788 40.4292 126.87 40.2241 126.115 39.8141C125.37 39.3947 124.801 38.8402 124.41 38.1506C124.028 37.4516 123.836 36.6828 123.836 35.844C123.836 35.1451 123.944 34.5067 124.158 33.9289C124.372 33.3511 124.717 32.8432 125.192 32.4051C125.677 31.9578 126.325 31.585 127.136 31.2868C127.695 31.0818 128.361 30.9001 129.135 30.7416C129.908 30.5832 130.784 30.4341 131.763 30.2943C132.741 30.1452 133.818 29.9821 134.992 29.805L133.622 30.5599C133.622 29.6652 133.408 29.0082 132.979 28.5888C132.55 28.1695 131.833 27.9598 130.826 27.9598C130.267 27.9598 129.684 28.0949 129.079 28.3652C128.473 28.6354 128.049 29.1154 127.807 29.805L124.368 28.7146C124.75 27.4658 125.467 26.45 126.52 25.6672C127.574 24.8844 129.009 24.4929 130.826 24.4929C132.159 24.4929 133.342 24.698 134.377 25.108C135.411 25.5181 136.194 26.2264 136.725 27.2329C137.023 27.792 137.201 28.3512 137.256 28.9104C137.312 29.4695 137.34 30.0939 137.34 30.7836V40.0098H134.013V36.9064L134.489 37.5495C133.752 38.5653 132.956 39.3015 132.098 39.7582C131.25 40.2055 130.174 40.4292 128.869 40.4292ZM129.68 37.4376C130.379 37.4376 130.966 37.3165 131.441 37.0742C131.926 36.8226 132.308 36.5383 132.587 36.2214C132.876 35.9046 133.072 35.639 133.175 35.4246C133.37 35.0146 133.482 34.5393 133.51 33.9988C133.547 33.4489 133.566 32.9923 133.566 32.6288L134.684 32.9084C133.557 33.0948 132.643 33.2532 131.944 33.3837C131.245 33.5048 130.682 33.6167 130.253 33.7192C129.824 33.8217 129.447 33.9335 129.121 34.0547C128.748 34.2038 128.445 34.3669 128.212 34.544C127.988 34.7117 127.821 34.8981 127.709 35.1031C127.606 35.3081 127.555 35.5365 127.555 35.7881C127.555 36.1329 127.639 36.4311 127.807 36.6828C127.984 36.9251 128.231 37.1115 128.547 37.2419C128.864 37.3724 129.242 37.4376 129.68 37.4376Z" fill="white"/>
<path d="M140.947 40.0098L140.975 19.8798H144.833V32.1815L149.95 24.9123H154.647L149.195 32.4611L155.01 40.0098H150.062L144.833 32.7406V40.0098H140.947Z" fill="white"/>
<path d="M163.146 40.4292C161.599 40.4292 160.234 40.0983 159.05 39.4367C157.876 38.7657 156.953 37.8477 156.282 36.6828C155.62 35.5085 155.29 34.1665 155.29 32.6568C155.29 31.0072 155.616 29.572 156.268 28.3512C156.92 27.1303 157.82 26.1844 158.966 25.5134C160.112 24.8331 161.431 24.4929 162.922 24.4929C164.506 24.4929 165.853 24.8657 166.962 25.6113C168.071 26.3568 168.891 27.4053 169.422 28.7566C169.954 30.1079 170.14 31.6969 169.982 33.5235H166.221V32.1256C166.221 30.5878 165.974 29.4835 165.48 28.8125C164.996 28.1322 164.199 27.792 163.09 27.792C161.795 27.792 160.839 28.1881 160.224 28.9802C159.618 29.7631 159.316 30.9233 159.316 32.4611C159.316 33.8683 159.618 34.9587 160.224 35.7322C160.839 36.4964 161.739 36.8785 162.922 36.8785C163.668 36.8785 164.306 36.7154 164.837 36.3892C165.369 36.063 165.774 35.5924 166.053 34.9773L169.856 36.0677C169.287 37.447 168.388 38.5187 167.158 39.2829C165.937 40.0471 164.6 40.4292 163.146 40.4292ZM158.141 33.5235V30.6997H168.15V33.5235H158.141Z" fill="white"/>
<path d="M173.138 40.0098V24.9123H176.493V28.6028L176.13 28.1275C176.325 27.6056 176.586 27.1303 176.912 26.7016C177.239 26.273 177.639 25.9188 178.115 25.6392C178.478 25.4156 178.874 25.2432 179.303 25.122C179.732 24.9915 180.174 24.9123 180.631 24.8844C181.088 24.8471 181.544 24.8564 182.001 24.9123V28.463C181.581 28.3325 181.092 28.2906 180.533 28.3372C179.983 28.3745 179.485 28.5003 179.037 28.7146C178.59 28.9197 178.213 29.1946 177.905 29.5394C177.597 29.8749 177.364 30.2756 177.206 30.7416C177.048 31.1983 176.968 31.7155 176.968 32.2933V40.0098H173.138Z" fill="white"/>
<path d="M44.5745 15.1437C52.7802 23.3494 52.7802 36.6536 44.5745 44.8594C36.3687 53.0651 23.0646 53.0651 14.8588 44.8594C6.65306 36.6536 6.65306 23.3494 14.8588 15.1437C23.0646 6.93793 36.3687 6.93793 44.5745 15.1437Z" fill="#292929"/>
<mask id="mask0_0_316" style="mask-type:alpha" maskUnits="userSpaceOnUse" x="8" y="8" width="43" height="44">
<path d="M44.5755 15.1412C52.7812 23.347 52.7812 36.6511 44.5755 44.8569C36.3697 53.0626 23.0655 53.0626 14.8598 44.8569C6.65403 36.6511 6.65403 23.347 14.8598 15.1412C23.0655 6.93546 36.3697 6.93546 44.5755 15.1412Z" fill="black"/>
</mask>
<g mask="url(#mask0_0_316)">
<mask id="mask1_0_316" style="mask-type:alpha" maskUnits="userSpaceOnUse" x="-4" y="17" width="47" height="47">
<path d="M-0.00124934 59.7196C-5.05094 54.6699 -5.05094 46.4827 -0.00124803 41.433L20.5712 20.8606C25.6208 15.8109 33.808 15.8109 38.8577 20.8606V20.8606C43.9074 25.9103 43.9074 34.0975 38.8577 39.1472L18.2853 59.7196C13.2356 64.7693 5.04844 64.7693 -0.00124934 59.7196V59.7196Z" fill="#D9D9D9"/>
</mask>
<g mask="url(#mask1_0_316)">
<path d="M-13.5547 49.4485L-1.91778 61.0854L50.0766 9.09098L40.674 6.8567L29.6607 6.23305L-13.5547 49.4485Z" fill="url(#paint0_linear_0_316)"/>
<path d="M-4.65137 63.8067L7.39076 75.8488L47.1478 36.0917L50.9809 20.1959L43.7855 15.3698L-4.65137 63.8067Z" fill="url(#paint1_linear_0_316)"/>
</g>
<path fill-rule="evenodd" clip-rule="evenodd" d="M38.5842 20.5837C38.5842 20.5837 34.6488 24.519 29.8423 29.3256C25.0057 34.1622 21.0703 38.0976 21.0703 38.0976C16.1818 33.209 16.1395 25.296 20.9761 20.4594C25.843 15.6532 33.6956 15.6951 38.5842 20.5837Z" fill="#00E3E3"/>
<path fill-rule="evenodd" clip-rule="evenodd" d="M21.0667 38.101C21.0667 38.101 25.0021 34.1656 29.8087 29.359C34.6453 24.5224 38.5806 20.5871 38.5806 20.5871C43.7747 25.7812 44.0656 33.9428 39.229 38.7794C34.3602 43.5837 26.2608 43.2951 21.0667 38.101Z" fill="#FF6C62"/>
</g>
<defs>
<linearGradient id="paint0_linear_0_316" x1="1.33863" y1="46.185" x2="22.7966" y2="24.727" gradientUnits="userSpaceOnUse">
<stop stop-color="#00D5E3" stop-opacity="0"/>
<stop offset="1" stop-color="#00E3BA"/>
</linearGradient>
<linearGradient id="paint1_linear_0_316" x1="1.44277" y1="69.7518" x2="36.1224" y2="35.0722" gradientUnits="userSpaceOnUse">
<stop offset="0.385446" stop-color="#FF6C62" stop-opacity="0"/>
<stop offset="0.9375" stop-color="#FF6C62"/>
</linearGradient>
</defs>
</svg>
