<svg width="173" height="36" fill="none" xmlns="http://www.w3.org/2000/svg"><path d="M.308 27.928c.012.966.586 1.839 1.45 2.275l10.926 5.51c1.592.803 3.473-.351 3.473-2.13v-9.38a2.639 2.639 0 0 1 2.642-2.636H6.606c-3.505-.001-6.34 2.855-6.298 6.361z" fill="#fff" fill-opacity=".26"/><path d="M.407 28.982c.065.37.3.69.635.86l7.488 3.777c3.495 1.763 7.625-.772 7.625-4.678v-4.738a2.639 2.639 0 0 1 2.643-2.636H6.605a6.291 6.291 0 0 0-6.198 7.415z" fill="url(#a)"/><path d="M15.711 7.736a2.083 2.083 0 0 0-2.087 2.083v2.266c0 1.15.933 2.082 2.087 2.082h14.007v-6.43H15.71zm.946 4.608a1.396 1.396 0 0 1-1.395-1.392 1.396 1.396 0 0 1 2.79 0c0 .767-.626 1.392-1.395 1.392zM.307 10.954V27.85c0-3.47 2.82-6.283 6.298-6.283h16.666v-.002h3.807a2.636 2.636 0 0 0 2.639-2.633v-3.477H4.818a4.507 4.507 0 0 1-4.511-4.501z" fill="#fff"/><path d="M29.718 6.452V2.974A2.636 2.636 0 0 0 27.079.34h-3.807V.34H2.95A2.639 2.639 0 0 0 .308 2.975v7.977A4.508 4.508 0 0 1 4.821 6.45h24.897v.002z" fill="#fff"/><path d="M.307 10.952a4.507 4.507 0 0 0 4.513 4.502h10.674a3.157 3.157 0 0 1-3.16-3.154V9.606a3.158 3.158 0 0 1 3.161-3.154H4.818a4.506 4.506 0 0 0-4.511 4.5z" fill="#fff" fill-opacity=".26"/><path d="M.307 10.952a4.507 4.507 0 0 0 4.513 4.502h10.674a3.157 3.157 0 0 1-3.16-3.154V9.606a3.158 3.158 0 0 1 3.161-3.154H4.818a4.506 4.506 0 0 0-4.511 4.5z" fill="url(#b)"/><path d="M45.217 14.686h5.738c9.94 0 9.91-14.309 0-14.309-3.188 0-6.375.03-9.562.03v20.234h3.824v-5.955zm0-10.666h5.738c4.867 0 4.898 7.168 0 7.168h-5.738V4.02zM71.667 21.102c7.129 0 10.344-5.233 10.403-10.464C82.128 5.35 78.65 0 71.667 0c-7.011 0-10.432 5.347-10.432 10.666 0 5.32 3.304 10.436 10.432 10.436zm0-17.631c4.782 0 6.693 3.815 6.636 7.225-.058 3.325-1.854 6.91-6.636 6.91-4.78 0-6.577-3.557-6.664-6.882-.086-3.41 1.885-7.253 6.664-7.253zM104.028 20.38l-6.144-6.909c3.855-.78 5.129-3.585 5.129-6.36 0-3.496-2.52-6.676-7.301-6.704-3.216 0-6.433-.03-9.649-.03v20.262h3.825v-6.765h3.68l5.91 6.765h4.55v-.259zm-14.14-9.942V3.964h5.824c2.406 0 3.477 1.618 3.477 3.238 0 1.62-1.043 3.238-3.477 3.238h-5.824v-.002zM116.713 20.641V3.876h6.431V.407h-16.689v3.469h6.433V20.64h3.825zM130.442.407h-3.795v20.234h3.795V.407zM139.017 13.154h10.171V9.628h-10.171V4.106h10.75V.436h-14.574V20.64h3.824v-7.487zM168.394.407l-5.388 8.353-5.159-8.353h-4.548V.58l7.793 11.707v8.354h3.825v-8.354L173 .58V.407h-4.606z" fill="#fff"/><defs><linearGradient id="a" x1="7.241" y1="17.163" x2="11.526" y2="31.974" gradientUnits="userSpaceOnUse"><stop stop-color="#231F20"/><stop offset="1" stop-color="#231F20" stop-opacity="0"/></linearGradient><linearGradient id="b" x1="6.002" y1="3.311" x2="8.707" y2="14.079" gradientUnits="userSpaceOnUse"><stop stop-color="#231F20"/><stop offset="1" stop-color="#231F20" stop-opacity="0"/></linearGradient></defs></svg>