<svg width="942" height="372" viewBox="0 0 942 372" fill="none" xmlns="http://www.w3.org/2000/svg">
<path d="M0 12.4805H940" stroke="url(#paint0_linear_3_85)" stroke-width="1.11147"/>
<path d="M0 79.9453H940" stroke="url(#paint1_linear_3_85)" stroke-width="1.11147"/>
<path d="M0 147.41H940" stroke="url(#paint2_linear_3_85)" stroke-width="1.11147"/>
<path d="M0 282.34H940" stroke="url(#paint3_linear_3_85)" stroke-width="1.11147"/>
<path d="M0 214.875H940" stroke="url(#paint4_linear_3_85)" stroke-width="1.11147"/>
<path d="M0 349.805H940" stroke="url(#paint5_linear_3_85)" stroke-width="1.11147"/>
<path opacity="0.8" d="M91.8653 0.644531L91.8653 361.641" stroke="url(#paint6_linear_3_85)" stroke-width="1.18359" stroke-dasharray="5.78 5.78"/>
<path opacity="0.8" d="M224.746 0.644531L224.746 361.641" stroke="url(#paint7_linear_3_85)" stroke-width="1.18359" stroke-dasharray="5.78 5.78"/>
<path opacity="0.8" d="M357.625 0.644531L357.625 361.641" stroke="url(#paint8_linear_3_85)" stroke-width="1.18359" stroke-dasharray="5.78 5.78"/>
<path opacity="0.8" d="M490.506 0.644531L490.506 361.641" stroke="url(#paint9_linear_3_85)" stroke-width="1.18359" stroke-dasharray="5.78 5.78"/>
<path opacity="0.8" d="M623.389 0.644531L623.389 361.641" stroke="url(#paint10_linear_3_85)" stroke-width="1.18359" stroke-dasharray="5.78 5.78"/>
<path opacity="0.8" d="M756.266 0.644531L756.266 361.641" stroke="url(#paint11_linear_3_85)" stroke-width="1.18359" stroke-dasharray="5.78 5.78"/>
<path opacity="0.8" d="M889.146 0.644531L889.147 361.641" stroke="url(#paint12_linear_3_85)" stroke-width="1.18359" stroke-dasharray="5.78 5.78"/>
<path d="M940 117.581L931.07 157.082H925.116L921.395 148.678H913.953L908.744 184.397H898.326L893.861 150.359H887.163L881.209 104.134H874.512L864.837 39L857.395 62.9526H848.465L838.047 82.2828L818.698 54.128L809.767 69.2559H803.07V65.0537H795.628L784.465 77.6603L775.535 69.2559V94.4692L761.395 85.2243L742.791 99.9321H731.628L724.186 96.5703L716.744 113.379H710.791L701.116 92.3681L689.953 120.523L678.047 122.204L670.605 143.635H666.14V94.4692H653.488L644.558 113.379V69.2559H640.837L628.93 120.523H622.233V104.134H613.302L602.884 122.204H595.442L561.209 197.082L555.256 177.752H550.791L547.07 186.997L529.209 173.13L518.791 203.13L510.605 195.986H500.93L491.256 203.13L477.86 173.13L474.884 177.752H465.209L442.884 157.581H432.465L420.558 183.635H413.86V173.13H404.186L398.233 137.752L387.07 123.464H378.14L367.721 136.071H361.767V122.204L349.86 120.523L340.93 109.177H330.512L325.302 113.379H318.605L291.07 94.4692H285.86V133.13H272.465L265.767 139.433H256.837L249.395 180.194L241.953 182.716V203.727L236.744 209.19L228.558 253.733L223.349 232.302L218.14 235.243L213.674 252.052H208.465L201.767 270.542L189.116 239.866L180.93 235.243L177.953 216.333L168.279 209.19L154.14 232.302H147.442V203.727L137.023 197.844L130.326 203.727L116.93 218.014L108 216.333L93.8605 174.311H86.4186L82.6977 186.077L72.2791 184.397L64.8372 205.828L58.1395 209.19L49.2093 259.616L42.5116 255.414V239.866L30.6047 232.302V218.014L20.186 220.956H12V305" stroke="url(#paint13_linear_3_85)" stroke-width="2.22294" stroke-linecap="round"/>
<path opacity="0.8" d="M940 249V372H0V249H940Z" fill="url(#paint14_linear_3_85)"/>
<path d="M38 94L38 237" stroke="white"/>
<circle cx="38" cy="94" r="4" fill="white"/>
<path d="M512 234L512 197" stroke="white"/>
<circle cx="512" cy="234" r="4" transform="rotate(-180 512 234)" fill="white"/>
<path d="M864 151L864 43" stroke="white"/>
<circle cx="864" cy="151" r="4" transform="rotate(-180 864 151)" fill="white"/>
<rect x="31" y="33" width="211" height="52" rx="10" fill="white"/>
<path d="M80.6 54.18C79.624 54.18 78.86 53.956 78.308 53.508C77.764 53.052 77.448 52.432 77.36 51.648L78.344 51.408C78.456 52.008 78.68 52.456 79.016 52.752C79.352 53.048 79.88 53.196 80.6 53.196C81.168 53.196 81.604 53.068 81.908 52.812C82.212 52.548 82.364 52.208 82.364 51.792C82.364 51.392 82.212 51.076 81.908 50.844C81.604 50.604 81.092 50.4 80.372 50.232C79.396 50 78.696 49.692 78.272 49.308C77.856 48.924 77.648 48.408 77.648 47.76C77.648 47.04 77.876 46.484 78.332 46.092C78.796 45.7 79.432 45.504 80.24 45.504C81.16 45.504 81.884 45.724 82.412 46.164C82.948 46.596 83.26 47.176 83.348 47.904L82.316 48.144C82.268 47.656 82.068 47.26 81.716 46.956C81.372 46.644 80.896 46.488 80.288 46.488C79.816 46.488 79.44 46.596 79.16 46.812C78.888 47.028 78.752 47.332 78.752 47.724C78.752 47.988 78.82 48.208 78.956 48.384C79.092 48.56 79.3 48.712 79.58 48.84C79.868 48.96 80.264 49.08 80.768 49.2C81.432 49.36 81.956 49.548 82.34 49.764C82.732 49.98 83.016 50.248 83.192 50.568C83.376 50.888 83.468 51.288 83.468 51.768C83.468 52.528 83.2 53.12 82.664 53.544C82.136 53.968 81.448 54.18 80.6 54.18ZM87.2612 54.18C86.6612 54.18 86.1372 54.044 85.6892 53.772C85.2492 53.5 84.9092 53.116 84.6692 52.62C84.4292 52.116 84.3092 51.528 84.3092 50.856C84.3092 49.832 84.5612 49.024 85.0652 48.432C85.5692 47.832 86.2692 47.532 87.1652 47.532C88.1252 47.532 88.8132 47.872 89.2292 48.552C89.6452 49.232 89.8532 50.092 89.8532 51.132H85.3772C85.4172 51.812 85.6052 52.344 85.9412 52.728C86.2772 53.112 86.7172 53.304 87.2612 53.304C87.7012 53.304 88.0612 53.168 88.3412 52.896C88.6292 52.624 88.8172 52.24 88.9052 51.744L89.8172 51.984C89.7212 52.6 89.4532 53.12 89.0132 53.544C88.5732 53.968 87.9892 54.18 87.2612 54.18ZM88.7972 50.292C88.7892 49.732 88.6412 49.28 88.3532 48.936C88.0652 48.584 87.6732 48.408 87.1772 48.408C86.6892 48.408 86.2892 48.568 85.9772 48.888C85.6652 49.2 85.4732 49.668 85.4012 50.292H88.7972ZM91.0228 50.844L90.9988 47.688H92.0548L92.0308 50.844L92.0548 54H90.9988L91.0228 50.844ZM90.8788 46.284C90.8788 45.852 91.0948 45.636 91.5268 45.636C91.9588 45.636 92.1748 45.852 92.1748 46.284C92.1748 46.724 91.9588 46.944 91.5268 46.944C91.0948 46.944 90.8788 46.724 90.8788 46.284ZM93.132 53.208L96.672 48.564H93.168V47.688H97.956V48.492L94.44 53.124H98.028V54H93.132V53.208ZM99.1321 50.844L99.1081 47.688H100.164L100.14 50.844L100.164 54H99.1081L99.1321 50.844ZM98.9881 46.284C98.9881 45.852 99.2041 45.636 99.6361 45.636C100.068 45.636 100.284 45.852 100.284 46.284C100.284 46.724 100.068 46.944 99.6361 46.944C99.2041 46.944 98.9881 46.724 98.9881 46.284ZM101.745 50.952L101.721 47.688H102.777L102.753 48.648H102.777C102.945 48.328 103.205 48.064 103.557 47.856C103.917 47.64 104.337 47.532 104.817 47.532C105.529 47.532 106.065 47.752 106.425 48.192C106.793 48.624 106.977 49.3 106.977 50.22V50.952L107.001 54H105.945L105.969 50.952V50.232C105.969 49.624 105.837 49.172 105.573 48.876C105.317 48.572 104.961 48.42 104.505 48.42C104.185 48.42 103.889 48.508 103.617 48.684C103.353 48.852 103.141 49.092 102.981 49.404C102.829 49.716 102.753 50.076 102.753 50.484V50.952L102.777 54H101.721L101.745 50.952ZM110.942 56.076C110.414 56.076 109.954 55.984 109.562 55.8C109.17 55.624 108.87 55.388 108.662 55.092C108.454 54.804 108.35 54.496 108.35 54.168L109.322 53.892C109.322 54.3 109.466 54.624 109.754 54.864C110.042 55.112 110.438 55.236 110.942 55.236C111.43 55.236 111.802 55.132 112.058 54.924C112.314 54.724 112.486 54.456 112.574 54.12C112.662 53.792 112.706 53.384 112.706 52.896V52.584H112.682C112.53 52.872 112.286 53.132 111.95 53.364C111.614 53.588 111.194 53.7 110.69 53.7C109.874 53.7 109.242 53.428 108.794 52.884C108.346 52.332 108.122 51.576 108.122 50.616C108.122 50.048 108.218 49.532 108.41 49.068C108.602 48.596 108.89 48.224 109.274 47.952C109.658 47.672 110.122 47.532 110.666 47.532C111.178 47.532 111.602 47.644 111.938 47.868C112.274 48.092 112.522 48.348 112.682 48.636H112.706L112.694 47.688H113.774V52.632C113.774 53.824 113.546 54.696 113.09 55.248C112.634 55.8 111.918 56.076 110.942 56.076ZM109.178 50.616C109.178 51.296 109.33 51.836 109.634 52.236C109.938 52.636 110.362 52.836 110.906 52.836C111.402 52.836 111.826 52.664 112.178 52.32C112.538 51.976 112.718 51.408 112.718 50.616C112.718 50.264 112.654 49.92 112.526 49.584C112.406 49.24 112.21 48.956 111.938 48.732C111.666 48.508 111.322 48.396 110.906 48.396C110.386 48.396 109.966 48.6 109.646 49.008C109.334 49.408 109.178 49.944 109.178 50.616ZM118.421 50.952L118.397 47.688H119.441L119.417 48.648H119.441C119.609 48.328 119.861 48.064 120.197 47.856C120.541 47.64 120.929 47.532 121.361 47.532C121.769 47.532 122.117 47.648 122.405 47.88C122.701 48.104 122.913 48.444 123.041 48.9H123.065C123.265 48.484 123.545 48.152 123.905 47.904C124.265 47.656 124.673 47.532 125.129 47.532C125.697 47.532 126.145 47.744 126.473 48.168C126.809 48.584 126.977 49.212 126.977 50.052V50.952L127.001 54H125.945L125.969 50.952V50.064C125.969 49.512 125.865 49.1 125.657 48.828C125.449 48.556 125.169 48.42 124.817 48.42C124.537 48.42 124.273 48.508 124.025 48.684C123.777 48.852 123.577 49.096 123.425 49.416C123.273 49.728 123.197 50.084 123.197 50.484V50.952L123.221 54H122.165L122.189 50.952V50.064C122.189 49.52 122.085 49.112 121.877 48.84C121.669 48.56 121.393 48.42 121.049 48.42C120.769 48.42 120.501 48.508 120.245 48.684C119.997 48.852 119.797 49.096 119.645 49.416C119.493 49.728 119.417 50.084 119.417 50.484V50.952L119.441 54H118.397L118.421 50.952ZM130.214 54.18C129.558 54.18 129.054 54.016 128.702 53.688C128.35 53.352 128.174 52.916 128.174 52.38C128.174 51.908 128.294 51.524 128.534 51.228C128.774 50.932 129.154 50.712 129.674 50.568C130.202 50.424 130.898 50.352 131.762 50.352H132.314V50.184C132.314 49.6 132.198 49.152 131.966 48.84C131.734 48.528 131.35 48.372 130.814 48.372C130.422 48.372 130.102 48.46 129.854 48.636C129.614 48.804 129.442 49.016 129.338 49.272C129.234 49.52 129.186 49.776 129.194 50.04L128.282 49.812C128.282 49.38 128.386 48.992 128.594 48.648C128.802 48.304 129.098 48.032 129.482 47.832C129.866 47.632 130.31 47.532 130.814 47.532C132.47 47.532 133.298 48.34 133.298 49.956V52.752C133.298 52.968 133.334 53.124 133.406 53.22C133.486 53.308 133.626 53.352 133.826 53.352C133.954 53.352 134.078 53.328 134.198 53.28L134.354 53.976C134.082 54.072 133.818 54.12 133.562 54.12C133.234 54.12 132.978 54.024 132.794 53.832C132.61 53.64 132.518 53.364 132.518 53.004C132.518 52.876 132.526 52.756 132.542 52.644H132.518C132.302 53.124 132.002 53.5 131.618 53.772C131.234 54.044 130.766 54.18 130.214 54.18ZM129.218 52.368C129.218 52.656 129.318 52.888 129.518 53.064C129.726 53.232 130.006 53.316 130.358 53.316C130.686 53.316 130.998 53.228 131.294 53.052C131.598 52.876 131.842 52.632 132.026 52.32C132.218 52 132.314 51.636 132.314 51.228V51.108H132.026C131.354 51.108 130.814 51.144 130.406 51.216C130.006 51.288 129.706 51.416 129.506 51.6C129.314 51.784 129.218 52.04 129.218 52.368ZM135.097 50.964L135.073 47.688H136.129L136.093 48.684H136.117C136.237 48.364 136.457 48.092 136.777 47.868C137.105 47.644 137.501 47.532 137.965 47.532C138.141 47.532 138.297 47.548 138.433 47.58L138.421 48.576C138.229 48.52 138.057 48.492 137.905 48.492C137.329 48.492 136.885 48.684 136.573 49.068C136.261 49.452 136.105 50.02 136.105 50.772V50.952L136.129 54H135.073L135.097 50.964ZM139.363 49.776L139.339 45.672H140.395L140.371 49.776V50.58L143.011 47.688H144.271L142.087 50.004L144.643 54H143.431L141.379 50.76L140.383 51.828L140.395 54H139.339L139.363 49.776ZM147.824 54.18C147.224 54.18 146.7 54.044 146.252 53.772C145.812 53.5 145.472 53.116 145.232 52.62C144.992 52.116 144.872 51.528 144.872 50.856C144.872 49.832 145.124 49.024 145.628 48.432C146.132 47.832 146.832 47.532 147.728 47.532C148.688 47.532 149.376 47.872 149.792 48.552C150.208 49.232 150.416 50.092 150.416 51.132H145.94C145.98 51.812 146.168 52.344 146.504 52.728C146.84 53.112 147.28 53.304 147.824 53.304C148.264 53.304 148.624 53.168 148.904 52.896C149.192 52.624 149.38 52.24 149.468 51.744L150.38 51.984C150.284 52.6 150.016 53.12 149.576 53.544C149.136 53.968 148.552 54.18 147.824 54.18ZM149.36 50.292C149.352 49.732 149.204 49.28 148.916 48.936C148.628 48.584 148.236 48.408 147.74 48.408C147.252 48.408 146.852 48.568 146.54 48.888C146.228 49.2 146.036 49.668 145.964 50.292H149.36ZM153.543 54.18C152.967 54.18 152.543 54.072 152.271 53.856C151.999 53.632 151.831 53.36 151.767 53.04C151.703 52.712 151.671 52.284 151.671 51.756V48.504L150.711 48.528V47.688H151.671V45.66H152.727V47.688H154.671V48.528L152.727 48.504V51.9C152.727 52.404 152.787 52.768 152.907 52.992C153.035 53.208 153.283 53.316 153.651 53.316C154.003 53.316 154.327 53.264 154.623 53.16L154.815 53.94C154.399 54.1 153.975 54.18 153.543 54.18ZM161.113 54.18C160.513 54.18 159.989 54.044 159.541 53.772C159.101 53.5 158.761 53.116 158.521 52.62C158.289 52.116 158.173 51.524 158.173 50.844C158.173 50.172 158.289 49.588 158.521 49.092C158.761 48.588 159.101 48.204 159.541 47.94C159.989 47.668 160.513 47.532 161.113 47.532C161.713 47.532 162.237 47.668 162.685 47.94C163.133 48.204 163.477 48.588 163.717 49.092C163.957 49.588 164.077 50.172 164.077 50.844C164.077 51.524 163.957 52.116 163.717 52.62C163.477 53.116 163.133 53.5 162.685 53.772C162.237 54.044 161.713 54.18 161.113 54.18ZM159.229 50.844C159.229 51.62 159.397 52.224 159.733 52.656C160.069 53.088 160.529 53.304 161.113 53.304C161.705 53.304 162.169 53.088 162.505 52.656C162.849 52.224 163.021 51.62 163.021 50.844C163.021 50.084 162.849 49.488 162.505 49.056C162.169 48.624 161.705 48.408 161.113 48.408C160.529 48.408 160.069 48.624 159.733 49.056C159.397 49.48 159.229 50.076 159.229 50.844ZM165.238 51.312L165.214 47.688H166.306L166.282 48.624H166.306C166.45 48.336 166.694 48.084 167.038 47.868C167.382 47.644 167.802 47.532 168.298 47.532C169.122 47.532 169.754 47.816 170.194 48.384C170.642 48.952 170.866 49.768 170.866 50.832C170.866 51.904 170.642 52.732 170.194 53.316C169.754 53.892 169.122 54.18 168.298 54.18C167.802 54.18 167.386 54.068 167.05 53.844C166.714 53.612 166.462 53.344 166.294 53.04H166.27L166.306 55.92H165.214L165.238 51.312ZM166.27 50.856C166.27 51.744 166.446 52.376 166.798 52.752C167.158 53.128 167.574 53.316 168.046 53.316C168.614 53.316 169.05 53.104 169.354 52.68C169.658 52.248 169.81 51.632 169.81 50.832C169.81 50.04 169.658 49.436 169.354 49.02C169.05 48.604 168.614 48.396 168.046 48.396C167.542 48.396 167.118 48.604 166.774 49.02C166.438 49.436 166.27 50.048 166.27 50.856ZM172.034 51.312L172.01 47.688H173.102L173.078 48.624H173.102C173.246 48.336 173.49 48.084 173.834 47.868C174.178 47.644 174.598 47.532 175.094 47.532C175.918 47.532 176.55 47.816 176.99 48.384C177.438 48.952 177.662 49.768 177.662 50.832C177.662 51.904 177.438 52.732 176.99 53.316C176.55 53.892 175.918 54.18 175.094 54.18C174.598 54.18 174.182 54.068 173.846 53.844C173.51 53.612 173.258 53.344 173.09 53.04H173.066L173.102 55.92H172.01L172.034 51.312ZM173.066 50.856C173.066 51.744 173.242 52.376 173.594 52.752C173.954 53.128 174.37 53.316 174.842 53.316C175.41 53.316 175.846 53.104 176.15 52.68C176.454 52.248 176.606 51.632 176.606 50.832C176.606 50.04 176.454 49.436 176.15 49.02C175.846 48.604 175.41 48.396 174.842 48.396C174.338 48.396 173.914 48.604 173.57 49.02C173.234 49.436 173.066 50.048 173.066 50.856ZM181.327 54.18C180.727 54.18 180.203 54.044 179.755 53.772C179.315 53.5 178.975 53.116 178.735 52.62C178.503 52.116 178.387 51.524 178.387 50.844C178.387 50.172 178.503 49.588 178.735 49.092C178.975 48.588 179.315 48.204 179.755 47.94C180.203 47.668 180.727 47.532 181.327 47.532C181.927 47.532 182.451 47.668 182.899 47.94C183.347 48.204 183.691 48.588 183.931 49.092C184.171 49.588 184.291 50.172 184.291 50.844C184.291 51.524 184.171 52.116 183.931 52.62C183.691 53.116 183.347 53.5 182.899 53.772C182.451 54.044 181.927 54.18 181.327 54.18ZM179.443 50.844C179.443 51.62 179.611 52.224 179.947 52.656C180.283 53.088 180.743 53.304 181.327 53.304C181.919 53.304 182.383 53.088 182.719 52.656C183.063 52.224 183.235 51.62 183.235 50.844C183.235 50.084 183.063 49.488 182.719 49.056C182.383 48.624 181.919 48.408 181.327 48.408C180.743 48.408 180.283 48.624 179.947 49.056C179.611 49.48 179.443 50.076 179.443 50.844ZM185.452 50.964L185.428 47.688H186.484L186.448 48.684H186.472C186.592 48.364 186.812 48.092 187.132 47.868C187.46 47.644 187.856 47.532 188.32 47.532C188.496 47.532 188.652 47.548 188.788 47.58L188.776 48.576C188.584 48.52 188.412 48.492 188.26 48.492C187.684 48.492 187.24 48.684 186.928 49.068C186.616 49.452 186.46 50.02 186.46 50.772V50.952L186.484 54H185.428L185.452 50.964ZM191.922 54.18C191.346 54.18 190.922 54.072 190.65 53.856C190.378 53.632 190.21 53.36 190.146 53.04C190.082 52.712 190.05 52.284 190.05 51.756V48.504L189.09 48.528V47.688H190.05V45.66H191.106V47.688H193.05V48.528L191.106 48.504V51.9C191.106 52.404 191.166 52.768 191.286 52.992C191.414 53.208 191.662 53.316 192.03 53.316C192.382 53.316 192.706 53.264 193.002 53.16L193.194 53.94C192.778 54.1 192.354 54.18 191.922 54.18ZM199.132 50.736L199.156 54H198.1L198.124 53.04H198.1C197.932 53.36 197.672 53.628 197.32 53.844C196.976 54.052 196.576 54.156 196.12 54.156C195.408 54.156 194.868 53.94 194.5 53.508C194.14 53.068 193.96 52.388 193.96 51.468V50.736L193.936 47.688H194.992L194.968 50.736V51.456C194.968 52.064 195.096 52.52 195.352 52.824C195.616 53.12 195.976 53.268 196.432 53.268C196.736 53.268 197.016 53.184 197.272 53.016C197.528 52.84 197.732 52.596 197.884 52.284C198.044 51.964 198.124 51.604 198.124 51.204V50.736L198.1 47.688H199.156L199.132 50.736ZM200.745 50.952L200.721 47.688H201.777L201.753 48.648H201.777C201.945 48.328 202.205 48.064 202.557 47.856C202.917 47.64 203.337 47.532 203.817 47.532C204.529 47.532 205.065 47.752 205.425 48.192C205.793 48.624 205.977 49.3 205.977 50.22V50.952L206.001 54H204.945L204.969 50.952V50.232C204.969 49.624 204.837 49.172 204.573 48.876C204.317 48.572 203.961 48.42 203.505 48.42C203.185 48.42 202.889 48.508 202.617 48.684C202.353 48.852 202.141 49.092 201.981 49.404C201.829 49.716 201.753 50.076 201.753 50.484V50.952L201.777 54H200.721L200.745 50.952ZM207.566 50.844L207.542 47.688H208.598L208.574 50.844L208.598 54H207.542L207.566 50.844ZM207.422 46.284C207.422 45.852 207.638 45.636 208.07 45.636C208.502 45.636 208.718 45.852 208.718 46.284C208.718 46.724 208.502 46.944 208.07 46.944C207.638 46.944 207.422 46.724 207.422 46.284ZM212.207 54.18C211.631 54.18 211.207 54.072 210.935 53.856C210.663 53.632 210.495 53.36 210.431 53.04C210.367 52.712 210.335 52.284 210.335 51.756V48.504L209.375 48.528V47.688H210.335V45.66H211.391V47.688H213.335V48.528L211.391 48.504V51.9C211.391 52.404 211.451 52.768 211.571 52.992C211.699 53.208 211.947 53.316 212.315 53.316C212.667 53.316 212.991 53.264 213.287 53.16L213.479 53.94C213.063 54.1 212.639 54.18 212.207 54.18ZM214.339 50.844L214.315 47.688H215.371L215.347 50.844L215.371 54H214.315L214.339 50.844ZM214.195 46.284C214.195 45.852 214.411 45.636 214.843 45.636C215.275 45.636 215.491 45.852 215.491 46.284C215.491 46.724 215.275 46.944 214.843 46.944C214.411 46.944 214.195 46.724 214.195 46.284ZM219.46 54.18C218.86 54.18 218.336 54.044 217.888 53.772C217.448 53.5 217.108 53.116 216.868 52.62C216.628 52.116 216.508 51.528 216.508 50.856C216.508 49.832 216.76 49.024 217.264 48.432C217.768 47.832 218.468 47.532 219.364 47.532C220.324 47.532 221.012 47.872 221.428 48.552C221.844 49.232 222.052 50.092 222.052 51.132H217.576C217.616 51.812 217.804 52.344 218.14 52.728C218.476 53.112 218.916 53.304 219.46 53.304C219.9 53.304 220.26 53.168 220.54 52.896C220.828 52.624 221.016 52.24 221.104 51.744L222.016 51.984C221.92 52.6 221.652 53.12 221.212 53.544C220.772 53.968 220.188 54.18 219.46 54.18ZM220.996 50.292C220.988 49.732 220.84 49.28 220.552 48.936C220.264 48.584 219.872 48.408 219.376 48.408C218.888 48.408 218.488 48.568 218.176 48.888C217.864 49.2 217.672 49.668 217.6 50.292H220.996ZM225.154 54.18C224.394 54.18 223.79 54.016 223.342 53.688C222.902 53.352 222.654 52.848 222.598 52.176L223.522 51.948C223.506 52.356 223.642 52.684 223.93 52.932C224.218 53.18 224.638 53.304 225.19 53.304C225.606 53.304 225.926 53.224 226.15 53.064C226.382 52.904 226.498 52.66 226.498 52.332C226.498 52.044 226.382 51.816 226.15 51.648C225.926 51.472 225.57 51.344 225.082 51.264C224.274 51.144 223.706 50.924 223.378 50.604C223.058 50.276 222.898 49.864 222.898 49.368C222.898 48.824 223.074 48.384 223.426 48.048C223.786 47.704 224.298 47.532 224.962 47.532C225.714 47.532 226.282 47.688 226.666 48C227.058 48.304 227.286 48.772 227.35 49.404L226.438 49.632C226.414 49.216 226.282 48.908 226.042 48.708C225.81 48.508 225.466 48.408 225.01 48.408C224.658 48.408 224.386 48.488 224.194 48.648C224.01 48.8 223.918 49.012 223.918 49.284C223.918 49.564 224.022 49.788 224.23 49.956C224.438 50.116 224.802 50.244 225.322 50.34C226.09 50.476 226.646 50.708 226.99 51.036C227.342 51.364 227.518 51.784 227.518 52.296C227.518 52.848 227.31 53.3 226.894 53.652C226.478 54.004 225.898 54.18 225.154 54.18ZM79.928 72.18C79.104 72.18 78.468 71.892 78.02 71.316C77.58 70.74 77.36 69.92 77.36 68.856C77.36 67.792 77.58 66.972 78.02 66.396C78.468 65.82 79.104 65.532 79.928 65.532C80.424 65.532 80.84 65.644 81.176 65.868C81.52 66.092 81.772 66.352 81.932 66.648H81.956L81.92 63.672H83.012L82.988 68.376L83.012 72H81.92L81.944 71.064H81.92C81.776 71.352 81.532 71.612 81.188 71.844C80.844 72.068 80.424 72.18 79.928 72.18ZM78.416 68.856C78.416 69.648 78.568 70.256 78.872 70.68C79.176 71.104 79.612 71.316 80.18 71.316C80.652 71.316 81.064 71.132 81.416 70.764C81.776 70.388 81.956 69.744 81.956 68.832C81.956 68.024 81.784 67.416 81.44 67.008C81.104 66.6 80.684 66.396 80.18 66.396C79.612 66.396 79.176 66.608 78.872 67.032C78.568 67.456 78.416 68.064 78.416 68.856ZM84.6009 68.964L84.5769 65.688H85.6329L85.5969 66.684H85.6209C85.7409 66.364 85.9609 66.092 86.2809 65.868C86.6089 65.644 87.0049 65.532 87.4689 65.532C87.6449 65.532 87.8009 65.548 87.9369 65.58L87.9249 66.576C87.7329 66.52 87.5609 66.492 87.4089 66.492C86.8329 66.492 86.3889 66.684 86.0769 67.068C85.7649 67.452 85.6089 68.02 85.6089 68.772V68.952L85.6329 72H84.5769L84.6009 68.964ZM88.8665 68.844L88.8425 65.688H89.8985L89.8745 68.844L89.8985 72H88.8425L88.8665 68.844ZM88.7225 64.284C88.7225 63.852 88.9385 63.636 89.3705 63.636C89.8025 63.636 90.0185 63.852 90.0185 64.284C90.0185 64.724 89.8025 64.944 89.3705 64.944C88.9385 64.944 88.7225 64.724 88.7225 64.284ZM94.2518 72H92.9558L90.7358 65.688H91.8158L93.6158 71.004H93.6398L95.4638 65.688H96.5198L94.2518 72ZM99.8237 72.18C99.2237 72.18 98.6997 72.044 98.2517 71.772C97.8117 71.5 97.4717 71.116 97.2317 70.62C96.9917 70.116 96.8717 69.528 96.8717 68.856C96.8717 67.832 97.1237 67.024 97.6277 66.432C98.1317 65.832 98.8317 65.532 99.7277 65.532C100.688 65.532 101.376 65.872 101.792 66.552C102.208 67.232 102.416 68.092 102.416 69.132H97.9397C97.9797 69.812 98.1677 70.344 98.5037 70.728C98.8397 71.112 99.2797 71.304 99.8237 71.304C100.264 71.304 100.624 71.168 100.904 70.896C101.192 70.624 101.38 70.24 101.468 69.744L102.38 69.984C102.284 70.6 102.016 71.12 101.576 71.544C101.136 71.968 100.552 72.18 99.8237 72.18ZM101.36 68.292C101.352 67.732 101.204 67.28 100.916 66.936C100.628 66.584 100.236 66.408 99.7397 66.408C99.2517 66.408 98.8517 66.568 98.5397 66.888C98.2277 67.2 98.0357 67.668 97.9637 68.292H101.36ZM103.585 68.952L103.561 65.688H104.617L104.593 66.648H104.617C104.785 66.328 105.045 66.064 105.397 65.856C105.757 65.64 106.177 65.532 106.657 65.532C107.369 65.532 107.905 65.752 108.265 66.192C108.633 66.624 108.817 67.3 108.817 68.22V68.952L108.841 72H107.785L107.809 68.952V68.232C107.809 67.624 107.677 67.172 107.413 66.876C107.157 66.572 106.801 66.42 106.345 66.42C106.025 66.42 105.729 66.508 105.457 66.684C105.193 66.852 104.981 67.092 104.821 67.404C104.669 67.716 104.593 68.076 104.593 68.484V68.952L104.617 72H103.561L103.585 68.952ZM116.524 72.18C116.028 72.18 115.608 72.068 115.264 71.844C114.92 71.612 114.676 71.352 114.532 71.064H114.508L114.532 72H113.44L113.464 68.376L113.44 63.672H114.532L114.496 66.648H114.52C114.68 66.352 114.928 66.092 115.264 65.868C115.608 65.644 116.028 65.532 116.524 65.532C117.348 65.532 117.98 65.82 118.42 66.396C118.868 66.972 119.092 67.792 119.092 68.856C119.092 69.92 118.868 70.74 118.42 71.316C117.98 71.892 117.348 72.18 116.524 72.18ZM114.496 68.832C114.496 69.744 114.672 70.388 115.024 70.764C115.384 71.132 115.8 71.316 116.272 71.316C116.84 71.316 117.276 71.104 117.58 70.68C117.884 70.256 118.036 69.648 118.036 68.856C118.036 68.064 117.884 67.456 117.58 67.032C117.276 66.608 116.84 66.396 116.272 66.396C115.768 66.396 115.344 66.6 115 67.008C114.664 67.416 114.496 68.024 114.496 68.832ZM120.923 74.04C120.779 74.04 120.615 74.024 120.431 73.992C120.247 73.968 120.091 73.936 119.963 73.896L120.143 73.08C120.423 73.136 120.659 73.164 120.851 73.164C121.107 73.164 121.315 73.076 121.475 72.9C121.643 72.732 121.803 72.44 121.955 72.024L119.447 65.688H120.539L122.435 70.572H122.459L124.175 65.688H125.243L122.879 72.204C122.607 72.948 122.299 73.44 121.955 73.68C121.619 73.92 121.275 74.04 120.923 74.04ZM129.05 68.952L129.026 65.688H130.082L130.058 66.648H130.082C130.25 66.328 130.51 66.064 130.862 65.856C131.222 65.64 131.642 65.532 132.122 65.532C132.834 65.532 133.37 65.752 133.73 66.192C134.098 66.624 134.282 67.3 134.282 68.22V68.952L134.306 72H133.25L133.274 68.952V68.232C133.274 67.624 133.142 67.172 132.878 66.876C132.622 66.572 132.266 66.42 131.81 66.42C131.49 66.42 131.194 66.508 130.922 66.684C130.658 66.852 130.446 67.092 130.286 67.404C130.134 67.716 130.058 68.076 130.058 68.484V68.952L130.082 72H129.026L129.05 68.952ZM138.378 72.18C137.778 72.18 137.254 72.044 136.806 71.772C136.366 71.5 136.026 71.116 135.786 70.62C135.546 70.116 135.426 69.528 135.426 68.856C135.426 67.832 135.678 67.024 136.182 66.432C136.686 65.832 137.386 65.532 138.282 65.532C139.242 65.532 139.93 65.872 140.346 66.552C140.762 67.232 140.97 68.092 140.97 69.132H136.494C136.534 69.812 136.722 70.344 137.058 70.728C137.394 71.112 137.834 71.304 138.378 71.304C138.818 71.304 139.178 71.168 139.458 70.896C139.746 70.624 139.934 70.24 140.022 69.744L140.934 69.984C140.838 70.6 140.57 71.12 140.13 71.544C139.69 71.968 139.106 72.18 138.378 72.18ZM139.914 68.292C139.906 67.732 139.758 67.28 139.47 66.936C139.182 66.584 138.79 66.408 138.294 66.408C137.806 66.408 137.406 66.568 137.094 66.888C136.782 67.2 136.59 67.668 136.518 68.292H139.914ZM141.326 65.688H142.382L143.714 70.956H143.726L145.07 65.688H146.102L147.434 70.956H147.446L148.79 65.688H149.81L148.058 72H146.798L145.574 67.236H145.55L144.302 72H143.054L141.326 65.688ZM152.533 72.18C151.773 72.18 151.169 72.016 150.721 71.688C150.281 71.352 150.033 70.848 149.977 70.176L150.901 69.948C150.885 70.356 151.021 70.684 151.309 70.932C151.597 71.18 152.017 71.304 152.569 71.304C152.985 71.304 153.305 71.224 153.529 71.064C153.761 70.904 153.877 70.66 153.877 70.332C153.877 70.044 153.761 69.816 153.529 69.648C153.305 69.472 152.949 69.344 152.461 69.264C151.653 69.144 151.085 68.924 150.757 68.604C150.437 68.276 150.277 67.864 150.277 67.368C150.277 66.824 150.453 66.384 150.805 66.048C151.165 65.704 151.677 65.532 152.341 65.532C153.093 65.532 153.661 65.688 154.045 66C154.437 66.304 154.665 66.772 154.729 67.404L153.817 67.632C153.793 67.216 153.661 66.908 153.421 66.708C153.189 66.508 152.845 66.408 152.389 66.408C152.037 66.408 151.765 66.488 151.573 66.648C151.389 66.8 151.297 67.012 151.297 67.284C151.297 67.564 151.401 67.788 151.609 67.956C151.817 68.116 152.181 68.244 152.701 68.34C153.469 68.476 154.025 68.708 154.369 69.036C154.721 69.364 154.897 69.784 154.897 70.296C154.897 70.848 154.689 71.3 154.273 71.652C153.857 72.004 153.277 72.18 152.533 72.18ZM161.382 72.18C160.782 72.18 160.258 72.044 159.81 71.772C159.37 71.5 159.03 71.116 158.79 70.62C158.55 70.116 158.43 69.528 158.43 68.856C158.43 67.832 158.682 67.024 159.186 66.432C159.69 65.832 160.39 65.532 161.286 65.532C162.246 65.532 162.934 65.872 163.35 66.552C163.766 67.232 163.974 68.092 163.974 69.132H159.498C159.538 69.812 159.726 70.344 160.062 70.728C160.398 71.112 160.838 71.304 161.382 71.304C161.822 71.304 162.182 71.168 162.462 70.896C162.75 70.624 162.938 70.24 163.026 69.744L163.938 69.984C163.842 70.6 163.574 71.12 163.134 71.544C162.694 71.968 162.11 72.18 161.382 72.18ZM162.918 68.292C162.91 67.732 162.762 67.28 162.474 66.936C162.186 66.584 161.794 66.408 161.298 66.408C160.81 66.408 160.41 66.568 160.098 66.888C159.786 67.2 159.594 67.668 159.522 68.292H162.918ZM167.846 72H166.55L164.33 65.688H165.41L167.21 71.004H167.234L169.058 65.688H170.114L167.846 72ZM173.417 72.18C172.817 72.18 172.293 72.044 171.845 71.772C171.405 71.5 171.065 71.116 170.825 70.62C170.585 70.116 170.465 69.528 170.465 68.856C170.465 67.832 170.717 67.024 171.221 66.432C171.725 65.832 172.425 65.532 173.321 65.532C174.281 65.532 174.969 65.872 175.385 66.552C175.801 67.232 176.009 68.092 176.009 69.132H171.533C171.573 69.812 171.761 70.344 172.097 70.728C172.433 71.112 172.873 71.304 173.417 71.304C173.857 71.304 174.217 71.168 174.497 70.896C174.785 70.624 174.973 70.24 175.061 69.744L175.973 69.984C175.877 70.6 175.609 71.12 175.169 71.544C174.729 71.968 174.145 72.18 173.417 72.18ZM174.953 68.292C174.945 67.732 174.797 67.28 174.509 66.936C174.221 66.584 173.829 66.408 173.333 66.408C172.845 66.408 172.445 66.568 172.133 66.888C171.821 67.2 171.629 67.668 171.557 68.292H174.953ZM177.179 68.952L177.155 65.688H178.211L178.187 66.648H178.211C178.379 66.328 178.639 66.064 178.991 65.856C179.351 65.64 179.771 65.532 180.251 65.532C180.963 65.532 181.499 65.752 181.859 66.192C182.227 66.624 182.411 67.3 182.411 68.22V68.952L182.435 72H181.379L181.403 68.952V68.232C181.403 67.624 181.271 67.172 181.007 66.876C180.751 66.572 180.395 66.42 179.939 66.42C179.619 66.42 179.323 66.508 179.051 66.684C178.787 66.852 178.575 67.092 178.415 67.404C178.263 67.716 178.187 68.076 178.187 68.484V68.952L178.211 72H177.155L177.179 68.952ZM186.027 72.18C185.451 72.18 185.027 72.072 184.755 71.856C184.483 71.632 184.315 71.36 184.251 71.04C184.187 70.712 184.155 70.284 184.155 69.756V66.504L183.195 66.528V65.688H184.155V63.66H185.211V65.688H187.155V66.528L185.211 66.504V69.9C185.211 70.404 185.271 70.768 185.391 70.992C185.519 71.208 185.767 71.316 186.135 71.316C186.487 71.316 186.811 71.264 187.107 71.16L187.299 71.94C186.883 72.1 186.459 72.18 186.027 72.18ZM190.091 72.18C189.331 72.18 188.727 72.016 188.279 71.688C187.839 71.352 187.591 70.848 187.535 70.176L188.459 69.948C188.443 70.356 188.579 70.684 188.867 70.932C189.155 71.18 189.575 71.304 190.127 71.304C190.543 71.304 190.863 71.224 191.087 71.064C191.319 70.904 191.435 70.66 191.435 70.332C191.435 70.044 191.319 69.816 191.087 69.648C190.863 69.472 190.507 69.344 190.019 69.264C189.211 69.144 188.643 68.924 188.315 68.604C187.995 68.276 187.835 67.864 187.835 67.368C187.835 66.824 188.011 66.384 188.363 66.048C188.723 65.704 189.235 65.532 189.899 65.532C190.651 65.532 191.219 65.688 191.603 66C191.995 66.304 192.223 66.772 192.287 67.404L191.375 67.632C191.351 67.216 191.219 66.908 190.979 66.708C190.747 66.508 190.403 66.408 189.947 66.408C189.595 66.408 189.323 66.488 189.131 66.648C188.947 66.8 188.855 67.012 188.855 67.284C188.855 67.564 188.959 67.788 189.167 67.956C189.375 68.116 189.739 68.244 190.259 68.34C191.027 68.476 191.583 68.708 191.927 69.036C192.279 69.364 192.455 69.784 192.455 70.296C192.455 70.848 192.247 71.3 191.831 71.652C191.415 72.004 190.835 72.18 190.091 72.18Z" fill="black"/>
<path d="M70.4299 58.7149C70.4299 67.3941 63.3941 74.4299 54.7149 74.4299C46.0358 74.4299 39 67.3941 39 58.7149C39 50.0358 46.0358 43 54.7149 43C63.3941 43 70.4299 50.0358 70.4299 58.7149Z" fill="#F3F3F3"/>
<path d="M55.6681 50.8248V52.2942C56.7876 52.4341 57.6844 52.8094 58.3587 53.42C59.0329 54.0307 59.4655 54.8067 59.6563 55.7481L57.3473 56.3969C57.2837 55.9516 57.1056 55.5509 56.813 55.1947C56.5331 54.8385 56.1515 54.5904 55.6681 54.4505V57.4274C57.1565 57.7708 58.2315 58.2352 58.893 58.8204C59.5545 59.3928 59.8853 60.1498 59.8853 61.0912C59.8853 62.1725 59.4973 63.0185 58.7212 63.6291C57.9452 64.2271 56.9275 64.5769 55.6681 64.6787V66.148H54.3323V64.6787C53.0983 64.5769 52.0933 64.208 51.3173 63.5719C50.554 62.9358 50.0705 62.0453 49.867 60.9004L52.0424 60.2897C52.2078 60.9385 52.4686 61.4474 52.8248 61.8163C53.181 62.1852 53.6835 62.427 54.3323 62.5414V59.431C53.0092 59.1511 52.0169 58.7122 51.3554 58.1143C50.7066 57.5164 50.3822 56.734 50.3822 55.7672C50.3822 54.6858 50.7321 53.8462 51.4318 53.2483C52.1314 52.6377 53.0983 52.3005 54.3323 52.2369V50.8248H55.6681ZM52.8629 55.7099C52.8629 56.0661 52.9711 56.346 53.1873 56.5496C53.4036 56.7531 53.7853 56.9376 54.3323 57.103V54.3169C53.8743 54.3678 53.5117 54.5141 53.2446 54.7558C52.9902 54.9975 52.8629 55.3156 52.8629 55.7099ZM55.6681 62.5796C56.2532 62.5287 56.6858 62.3824 56.9657 62.1407C57.2455 61.8863 57.3855 61.5619 57.3855 61.1675C57.3855 60.8622 57.2519 60.595 56.9847 60.366C56.7176 60.1243 56.2787 59.9144 55.6681 59.7363V62.5796Z" fill="#0B0B0B"/>
<rect x="753" y="161" width="135" height="52" rx="10" fill="white"/>
<path d="M799.864 177.836L799.84 173.684H802.816C803.8 173.684 804.552 173.892 805.072 174.308C805.6 174.716 805.864 175.336 805.864 176.168C805.864 177.04 805.6 177.688 805.072 178.112C804.552 178.536 803.76 178.748 802.696 178.748H800.944L800.968 182H799.84L799.864 177.836ZM802.816 177.788C804.096 177.788 804.736 177.248 804.736 176.168C804.736 175.672 804.568 175.296 804.232 175.04C803.896 174.776 803.424 174.644 802.816 174.644H800.956L800.944 177.788H802.816ZM806.847 178.964L806.823 175.688H807.879L807.843 176.684H807.867C807.987 176.364 808.207 176.092 808.527 175.868C808.855 175.644 809.251 175.532 809.715 175.532C809.891 175.532 810.047 175.548 810.183 175.58L810.171 176.576C809.979 176.52 809.807 176.492 809.655 176.492C809.079 176.492 808.635 176.684 808.323 177.068C808.011 177.452 807.855 178.02 807.855 178.772V178.952L807.879 182H806.823L806.847 178.964ZM813.491 182.18C812.891 182.18 812.367 182.044 811.919 181.772C811.479 181.5 811.139 181.116 810.899 180.62C810.667 180.116 810.551 179.524 810.551 178.844C810.551 178.172 810.667 177.588 810.899 177.092C811.139 176.588 811.479 176.204 811.919 175.94C812.367 175.668 812.891 175.532 813.491 175.532C814.091 175.532 814.615 175.668 815.063 175.94C815.511 176.204 815.855 176.588 816.095 177.092C816.335 177.588 816.455 178.172 816.455 178.844C816.455 179.524 816.335 180.116 816.095 180.62C815.855 181.116 815.511 181.5 815.063 181.772C814.615 182.044 814.091 182.18 813.491 182.18ZM811.607 178.844C811.607 179.62 811.775 180.224 812.111 180.656C812.447 181.088 812.907 181.304 813.491 181.304C814.083 181.304 814.547 181.088 814.883 180.656C815.227 180.224 815.399 179.62 815.399 178.844C815.399 178.084 815.227 177.488 814.883 177.056C814.547 176.624 814.083 176.408 813.491 176.408C812.907 176.408 812.447 176.624 812.111 177.056C811.775 177.48 811.607 178.076 811.607 178.844ZM818.002 176.504L816.778 176.528V175.688H817.942C817.926 175.536 817.918 175.396 817.918 175.268C817.918 174.66 818.086 174.188 818.422 173.852C818.758 173.516 819.202 173.348 819.754 173.348C820.178 173.348 820.598 173.44 821.014 173.624L820.81 174.392C820.45 174.288 820.138 174.236 819.874 174.236C819.538 174.236 819.294 174.324 819.142 174.5C818.998 174.668 818.926 174.924 818.926 175.268C818.926 175.396 818.934 175.536 818.95 175.688H820.81V176.528L819.01 176.504L819.034 182H817.978L818.002 176.504ZM821.636 178.844L821.612 175.688H822.668L822.644 178.844L822.668 182H821.612L821.636 178.844ZM821.492 174.284C821.492 173.852 821.708 173.636 822.14 173.636C822.572 173.636 822.788 173.852 822.788 174.284C822.788 174.724 822.572 174.944 822.14 174.944C821.708 174.944 821.492 174.724 821.492 174.284ZM826.277 182.18C825.701 182.18 825.277 182.072 825.005 181.856C824.733 181.632 824.565 181.36 824.501 181.04C824.437 180.712 824.405 180.284 824.405 179.756V176.504L823.445 176.528V175.688H824.405V173.66H825.461V175.688H827.405V176.528L825.461 176.504V179.9C825.461 180.404 825.521 180.768 825.641 180.992C825.769 181.208 826.017 181.316 826.385 181.316C826.737 181.316 827.061 181.264 827.357 181.16L827.549 181.94C827.133 182.1 826.709 182.18 826.277 182.18ZM828.409 178.844L828.385 175.688H829.441L829.417 178.844L829.441 182H828.385L828.409 178.844ZM828.265 174.284C828.265 173.852 828.481 173.636 828.913 173.636C829.345 173.636 829.561 173.852 829.561 174.284C829.561 174.724 829.345 174.944 828.913 174.944C828.481 174.944 828.265 174.724 828.265 174.284ZM831.023 178.952L830.999 175.688H832.055L832.031 176.648H832.055C832.223 176.328 832.483 176.064 832.835 175.856C833.195 175.64 833.615 175.532 834.095 175.532C834.807 175.532 835.343 175.752 835.703 176.192C836.071 176.624 836.255 177.3 836.255 178.22V178.952L836.279 182H835.223L835.247 178.952V178.232C835.247 177.624 835.115 177.172 834.851 176.876C834.595 176.572 834.239 176.42 833.783 176.42C833.463 176.42 833.167 176.508 832.895 176.684C832.631 176.852 832.419 177.092 832.259 177.404C832.107 177.716 832.031 178.076 832.031 178.484V178.952L832.055 182H830.999L831.023 178.952ZM840.219 184.076C839.691 184.076 839.231 183.984 838.839 183.8C838.447 183.624 838.147 183.388 837.939 183.092C837.731 182.804 837.627 182.496 837.627 182.168L838.599 181.892C838.599 182.3 838.743 182.624 839.031 182.864C839.319 183.112 839.715 183.236 840.219 183.236C840.707 183.236 841.079 183.132 841.335 182.924C841.591 182.724 841.763 182.456 841.851 182.12C841.939 181.792 841.983 181.384 841.983 180.896V180.584H841.959C841.807 180.872 841.563 181.132 841.227 181.364C840.891 181.588 840.471 181.7 839.967 181.7C839.151 181.7 838.519 181.428 838.071 180.884C837.623 180.332 837.399 179.576 837.399 178.616C837.399 178.048 837.495 177.532 837.687 177.068C837.879 176.596 838.167 176.224 838.551 175.952C838.935 175.672 839.399 175.532 839.943 175.532C840.455 175.532 840.879 175.644 841.215 175.868C841.551 176.092 841.799 176.348 841.959 176.636H841.983L841.971 175.688H843.051V180.632C843.051 181.824 842.823 182.696 842.367 183.248C841.911 183.8 841.195 184.076 840.219 184.076ZM838.455 178.616C838.455 179.296 838.607 179.836 838.911 180.236C839.215 180.636 839.639 180.836 840.183 180.836C840.679 180.836 841.103 180.664 841.455 180.32C841.815 179.976 841.995 179.408 841.995 178.616C841.995 178.264 841.931 177.92 841.803 177.584C841.683 177.24 841.487 176.956 841.215 176.732C840.943 176.508 840.599 176.396 840.183 176.396C839.663 176.396 839.243 176.6 838.923 177.008C838.611 177.408 838.455 177.944 838.455 178.616ZM848.037 176.504L846.813 176.528V175.688H847.977C847.961 175.536 847.953 175.396 847.953 175.268C847.953 174.66 848.121 174.188 848.457 173.852C848.793 173.516 849.237 173.348 849.789 173.348C850.213 173.348 850.633 173.44 851.049 173.624L850.845 174.392C850.485 174.288 850.173 174.236 849.909 174.236C849.573 174.236 849.329 174.324 849.177 174.5C849.033 174.668 848.961 174.924 848.961 175.268C848.961 175.396 848.969 175.536 848.985 175.688H850.845V176.528L849.045 176.504L849.069 182H848.013L848.037 176.504ZM851.671 178.964L851.647 175.688H852.703L852.667 176.684H852.691C852.811 176.364 853.031 176.092 853.351 175.868C853.679 175.644 854.075 175.532 854.539 175.532C854.715 175.532 854.871 175.548 855.007 175.58L854.995 176.576C854.803 176.52 854.631 176.492 854.479 176.492C853.903 176.492 853.459 176.684 853.147 177.068C852.835 177.452 852.679 178.02 852.679 178.772V178.952L852.703 182H851.647L851.671 178.964ZM858.316 182.18C857.716 182.18 857.192 182.044 856.744 181.772C856.304 181.5 855.964 181.116 855.724 180.62C855.492 180.116 855.376 179.524 855.376 178.844C855.376 178.172 855.492 177.588 855.724 177.092C855.964 176.588 856.304 176.204 856.744 175.94C857.192 175.668 857.716 175.532 858.316 175.532C858.916 175.532 859.44 175.668 859.888 175.94C860.336 176.204 860.68 176.588 860.92 177.092C861.16 177.588 861.28 178.172 861.28 178.844C861.28 179.524 861.16 180.116 860.92 180.62C860.68 181.116 860.336 181.5 859.888 181.772C859.44 182.044 858.916 182.18 858.316 182.18ZM856.432 178.844C856.432 179.62 856.6 180.224 856.936 180.656C857.272 181.088 857.732 181.304 858.316 181.304C858.908 181.304 859.372 181.088 859.708 180.656C860.052 180.224 860.224 179.62 860.224 178.844C860.224 178.084 860.052 177.488 859.708 177.056C859.372 176.624 858.908 176.408 858.316 176.408C857.732 176.408 857.272 176.624 856.936 177.056C856.6 177.48 856.432 178.076 856.432 178.844ZM862.441 178.952L862.417 175.688H863.461L863.437 176.648H863.461C863.629 176.328 863.881 176.064 864.217 175.856C864.561 175.64 864.949 175.532 865.381 175.532C865.789 175.532 866.137 175.648 866.425 175.88C866.721 176.104 866.933 176.444 867.061 176.9H867.085C867.285 176.484 867.565 176.152 867.925 175.904C868.285 175.656 868.693 175.532 869.149 175.532C869.717 175.532 870.165 175.744 870.493 176.168C870.829 176.584 870.997 177.212 870.997 178.052V178.952L871.021 182H869.965L869.989 178.952V178.064C869.989 177.512 869.885 177.1 869.677 176.828C869.469 176.556 869.189 176.42 868.837 176.42C868.557 176.42 868.293 176.508 868.045 176.684C867.797 176.852 867.597 177.096 867.445 177.416C867.293 177.728 867.217 178.084 867.217 178.484V178.952L867.241 182H866.185L866.209 178.952V178.064C866.209 177.52 866.105 177.112 865.897 176.84C865.689 176.56 865.413 176.42 865.069 176.42C864.789 176.42 864.521 176.508 864.265 176.684C864.017 176.852 863.817 177.096 863.665 177.416C863.513 177.728 863.437 178.084 863.437 178.484V178.952L863.461 182H862.417L862.441 178.952ZM799.864 195.836L799.84 191.684H800.968L800.932 195.296L803.056 195.32L805.18 195.296L805.156 191.684H806.284L806.248 195.836L806.284 200H805.156L805.18 196.28L803.056 196.256L800.932 196.28L800.968 200H799.84L799.864 195.836ZM808.657 202.04C808.513 202.04 808.349 202.024 808.165 201.992C807.981 201.968 807.825 201.936 807.697 201.896L807.877 201.08C808.157 201.136 808.393 201.164 808.585 201.164C808.841 201.164 809.049 201.076 809.209 200.9C809.377 200.732 809.537 200.44 809.689 200.024L807.181 193.688H808.273L810.169 198.572H810.193L811.909 193.688H812.977L810.613 200.204C810.341 200.948 810.033 201.44 809.689 201.68C809.353 201.92 809.009 202.04 808.657 202.04ZM813.843 197.312L813.819 193.688H814.911L814.887 194.624H814.911C815.055 194.336 815.299 194.084 815.643 193.868C815.987 193.644 816.407 193.532 816.903 193.532C817.727 193.532 818.359 193.816 818.799 194.384C819.247 194.952 819.471 195.768 819.471 196.832C819.471 197.904 819.247 198.732 818.799 199.316C818.359 199.892 817.727 200.18 816.903 200.18C816.407 200.18 815.991 200.068 815.655 199.844C815.319 199.612 815.067 199.344 814.899 199.04H814.875L814.911 201.92H813.819L813.843 197.312ZM814.875 196.856C814.875 197.744 815.051 198.376 815.403 198.752C815.763 199.128 816.179 199.316 816.651 199.316C817.219 199.316 817.655 199.104 817.959 198.68C818.263 198.248 818.415 197.632 818.415 196.832C818.415 196.04 818.263 195.436 817.959 195.02C817.655 194.604 817.219 194.396 816.651 194.396C816.147 194.396 815.723 194.604 815.379 195.02C815.043 195.436 814.875 196.048 814.875 196.856ZM823.148 200.18C822.548 200.18 822.024 200.044 821.576 199.772C821.136 199.5 820.796 199.116 820.556 198.62C820.316 198.116 820.196 197.528 820.196 196.856C820.196 195.832 820.448 195.024 820.952 194.432C821.456 193.832 822.156 193.532 823.052 193.532C824.012 193.532 824.7 193.872 825.116 194.552C825.532 195.232 825.74 196.092 825.74 197.132H821.264C821.304 197.812 821.492 198.344 821.828 198.728C822.164 199.112 822.604 199.304 823.148 199.304C823.588 199.304 823.948 199.168 824.228 198.896C824.516 198.624 824.704 198.24 824.792 197.744L825.704 197.984C825.608 198.6 825.34 199.12 824.9 199.544C824.46 199.968 823.876 200.18 823.148 200.18ZM824.684 196.292C824.676 195.732 824.528 195.28 824.24 194.936C823.952 194.584 823.56 194.408 823.064 194.408C822.576 194.408 822.176 194.568 821.864 194.888C821.552 195.2 821.36 195.668 821.288 196.292H824.684ZM831.507 200.18C830.851 200.18 830.347 200.016 829.995 199.688C829.643 199.352 829.467 198.916 829.467 198.38C829.467 197.908 829.587 197.524 829.827 197.228C830.067 196.932 830.447 196.712 830.967 196.568C831.495 196.424 832.191 196.352 833.055 196.352H833.607V196.184C833.607 195.6 833.491 195.152 833.259 194.84C833.027 194.528 832.643 194.372 832.107 194.372C831.715 194.372 831.395 194.46 831.147 194.636C830.907 194.804 830.735 195.016 830.631 195.272C830.527 195.52 830.479 195.776 830.487 196.04L829.575 195.812C829.575 195.38 829.679 194.992 829.887 194.648C830.095 194.304 830.391 194.032 830.775 193.832C831.159 193.632 831.603 193.532 832.107 193.532C833.763 193.532 834.591 194.34 834.591 195.956V198.752C834.591 198.968 834.627 199.124 834.699 199.22C834.779 199.308 834.919 199.352 835.119 199.352C835.247 199.352 835.371 199.328 835.491 199.28L835.647 199.976C835.375 200.072 835.111 200.12 834.855 200.12C834.527 200.12 834.271 200.024 834.087 199.832C833.903 199.64 833.811 199.364 833.811 199.004C833.811 198.876 833.819 198.756 833.835 198.644H833.811C833.595 199.124 833.295 199.5 832.911 199.772C832.527 200.044 832.059 200.18 831.507 200.18ZM830.511 198.368C830.511 198.656 830.611 198.888 830.811 199.064C831.019 199.232 831.299 199.316 831.651 199.316C831.979 199.316 832.291 199.228 832.587 199.052C832.891 198.876 833.135 198.632 833.319 198.32C833.511 198 833.607 197.636 833.607 197.228V197.108H833.319C832.647 197.108 832.107 197.144 831.699 197.216C831.299 197.288 830.999 197.416 830.799 197.6C830.607 197.784 830.511 198.04 830.511 198.368ZM836.39 196.952L836.366 193.688H837.422L837.398 194.648H837.422C837.59 194.328 837.85 194.064 838.202 193.856C838.562 193.64 838.982 193.532 839.462 193.532C840.174 193.532 840.71 193.752 841.07 194.192C841.438 194.624 841.622 195.3 841.622 196.22V196.952L841.646 200H840.59L840.614 196.952V196.232C840.614 195.624 840.482 195.172 840.218 194.876C839.962 194.572 839.606 194.42 839.15 194.42C838.83 194.42 838.534 194.508 838.262 194.684C837.998 194.852 837.786 195.092 837.626 195.404C837.474 195.716 837.398 196.076 837.398 196.484V196.952L837.422 200H836.366L836.39 196.952ZM845.334 200.18C844.51 200.18 843.874 199.892 843.426 199.316C842.986 198.74 842.766 197.92 842.766 196.856C842.766 195.792 842.986 194.972 843.426 194.396C843.874 193.82 844.51 193.532 845.334 193.532C845.83 193.532 846.246 193.644 846.582 193.868C846.926 194.092 847.178 194.352 847.338 194.648H847.362L847.326 191.672H848.418L848.394 196.376L848.418 200H847.326L847.35 199.064H847.326C847.182 199.352 846.938 199.612 846.594 199.844C846.25 200.068 845.83 200.18 845.334 200.18ZM843.822 196.856C843.822 197.648 843.974 198.256 844.278 198.68C844.582 199.104 845.018 199.316 845.586 199.316C846.058 199.316 846.47 199.132 846.822 198.764C847.182 198.388 847.362 197.744 847.362 196.832C847.362 196.024 847.19 195.416 846.846 195.008C846.51 194.6 846.09 194.396 845.586 194.396C845.018 194.396 844.582 194.608 844.278 195.032C843.974 195.456 843.822 196.064 843.822 196.856ZM853.126 195.836L853.102 191.684H858.346V192.668H854.206L854.194 195.332H858.094V196.292H854.194L854.23 200H853.102L853.126 195.836ZM861.691 200.18C861.091 200.18 860.567 200.044 860.119 199.772C859.679 199.5 859.339 199.116 859.099 198.62C858.859 198.116 858.739 197.528 858.739 196.856C858.739 195.832 858.991 195.024 859.495 194.432C859.999 193.832 860.699 193.532 861.595 193.532C862.555 193.532 863.243 193.872 863.659 194.552C864.075 195.232 864.283 196.092 864.283 197.132H859.807C859.847 197.812 860.035 198.344 860.371 198.728C860.707 199.112 861.147 199.304 861.691 199.304C862.131 199.304 862.491 199.168 862.771 198.896C863.059 198.624 863.247 198.24 863.335 197.744L864.247 197.984C864.151 198.6 863.883 199.12 863.443 199.544C863.003 199.968 862.419 200.18 861.691 200.18ZM863.227 196.292C863.219 195.732 863.071 195.28 862.783 194.936C862.495 194.584 862.103 194.408 861.607 194.408C861.119 194.408 860.719 194.568 860.407 194.888C860.095 195.2 859.903 195.668 859.831 196.292H863.227ZM867.108 200.18C866.452 200.18 865.948 200.016 865.596 199.688C865.244 199.352 865.068 198.916 865.068 198.38C865.068 197.908 865.188 197.524 865.428 197.228C865.668 196.932 866.048 196.712 866.568 196.568C867.096 196.424 867.792 196.352 868.656 196.352H869.208V196.184C869.208 195.6 869.092 195.152 868.86 194.84C868.628 194.528 868.244 194.372 867.708 194.372C867.316 194.372 866.996 194.46 866.748 194.636C866.508 194.804 866.336 195.016 866.232 195.272C866.128 195.52 866.08 195.776 866.088 196.04L865.176 195.812C865.176 195.38 865.28 194.992 865.488 194.648C865.696 194.304 865.992 194.032 866.376 193.832C866.76 193.632 867.204 193.532 867.708 193.532C869.364 193.532 870.192 194.34 870.192 195.956V198.752C870.192 198.968 870.228 199.124 870.3 199.22C870.38 199.308 870.52 199.352 870.72 199.352C870.848 199.352 870.972 199.328 871.092 199.28L871.248 199.976C870.976 200.072 870.712 200.12 870.456 200.12C870.128 200.12 869.872 200.024 869.688 199.832C869.504 199.64 869.412 199.364 869.412 199.004C869.412 198.876 869.42 198.756 869.436 198.644H869.412C869.196 199.124 868.896 199.5 868.512 199.772C868.128 200.044 867.66 200.18 867.108 200.18ZM866.112 198.368C866.112 198.656 866.212 198.888 866.412 199.064C866.62 199.232 866.9 199.316 867.252 199.316C867.58 199.316 867.892 199.228 868.188 199.052C868.492 198.876 868.736 198.632 868.92 198.32C869.112 198 869.208 197.636 869.208 197.228V197.108H868.92C868.248 197.108 867.708 197.144 867.3 197.216C866.9 197.288 866.6 197.416 866.4 197.6C866.208 197.784 866.112 198.04 866.112 198.368ZM871.992 196.964L871.968 193.688H873.024L872.988 194.684H873.012C873.132 194.364 873.352 194.092 873.672 193.868C874 193.644 874.396 193.532 874.86 193.532C875.036 193.532 875.192 193.548 875.328 193.58L875.316 194.576C875.124 194.52 874.952 194.492 874.8 194.492C874.224 194.492 873.78 194.684 873.468 195.068C873.156 195.452 873 196.02 873 196.772V196.952L873.024 200H871.968L871.992 196.964Z" fill="black"/>
<path d="M792.43 186.715C792.43 195.394 785.394 202.43 776.715 202.43C768.036 202.43 761 195.394 761 186.715C761 178.036 768.036 171 776.715 171C785.394 171 792.43 178.036 792.43 186.715Z" fill="#F3F3F3"/>
<path d="M777.668 178.825V180.294C778.788 180.434 779.684 180.809 780.359 181.42C781.033 182.031 781.465 182.807 781.656 183.748L779.347 184.397C779.284 183.952 779.106 183.551 778.813 183.195C778.533 182.839 778.151 182.59 777.668 182.45V185.427C779.156 185.771 780.231 186.235 780.893 186.82C781.555 187.393 781.885 188.15 781.885 189.091C781.885 190.173 781.497 191.019 780.721 191.629C779.945 192.227 778.927 192.577 777.668 192.679V194.148H776.332V192.679C775.098 192.577 774.093 192.208 773.317 191.572C772.554 190.936 772.071 190.045 771.867 188.9L774.042 188.29C774.208 188.939 774.469 189.447 774.825 189.816C775.181 190.185 775.683 190.427 776.332 190.541V187.431C775.009 187.151 774.017 186.712 773.355 186.114C772.707 185.516 772.382 184.734 772.382 183.767C772.382 182.686 772.732 181.846 773.432 181.248C774.131 180.638 775.098 180.301 776.332 180.237V178.825H777.668ZM774.863 183.71C774.863 184.066 774.971 184.346 775.187 184.55C775.404 184.753 775.785 184.938 776.332 185.103V182.317C775.874 182.368 775.512 182.514 775.245 182.756C774.99 182.998 774.863 183.316 774.863 183.71ZM777.668 190.58C778.253 190.529 778.686 190.382 778.966 190.141C779.246 189.886 779.385 189.562 779.385 189.168C779.385 188.862 779.252 188.595 778.985 188.366C778.718 188.124 778.279 187.914 777.668 187.736V190.58Z" fill="#0B0B0B"/>
<rect x="311" y="243" width="219" height="52" rx="10" fill="white"/>
<path d="M360.984 264.18C360.248 264.18 359.604 264.004 359.052 263.652C358.508 263.3 358.088 262.8 357.792 262.152C357.504 261.496 357.36 260.728 357.36 259.848C357.36 258.968 357.508 258.2 357.804 257.544C358.1 256.888 358.52 256.384 359.064 256.032C359.608 255.68 360.252 255.504 360.996 255.504C361.94 255.504 362.692 255.756 363.252 256.26C363.82 256.764 364.172 257.432 364.308 258.264L363.288 258.54C363.184 257.932 362.936 257.44 362.544 257.064C362.152 256.68 361.648 256.488 361.032 256.488C360.24 256.488 359.616 256.788 359.16 257.388C358.712 257.98 358.488 258.8 358.488 259.848C358.488 260.888 358.712 261.708 359.16 262.308C359.616 262.9 360.236 263.196 361.02 263.196C361.684 263.196 362.212 262.996 362.604 262.596C362.996 262.188 363.24 261.624 363.336 260.904L364.356 261.18C364.22 262.108 363.856 262.84 363.264 263.376C362.68 263.912 361.92 264.18 360.984 264.18ZM367.054 264.18C366.398 264.18 365.894 264.016 365.542 263.688C365.19 263.352 365.014 262.916 365.014 262.38C365.014 261.908 365.134 261.524 365.374 261.228C365.614 260.932 365.994 260.712 366.514 260.568C367.042 260.424 367.738 260.352 368.602 260.352H369.154V260.184C369.154 259.6 369.038 259.152 368.806 258.84C368.574 258.528 368.19 258.372 367.654 258.372C367.262 258.372 366.942 258.46 366.694 258.636C366.454 258.804 366.282 259.016 366.178 259.272C366.074 259.52 366.026 259.776 366.034 260.04L365.122 259.812C365.122 259.38 365.226 258.992 365.434 258.648C365.642 258.304 365.938 258.032 366.322 257.832C366.706 257.632 367.15 257.532 367.654 257.532C369.31 257.532 370.138 258.34 370.138 259.956V262.752C370.138 262.968 370.174 263.124 370.246 263.22C370.326 263.308 370.466 263.352 370.666 263.352C370.794 263.352 370.918 263.328 371.038 263.28L371.194 263.976C370.922 264.072 370.658 264.12 370.402 264.12C370.074 264.12 369.818 264.024 369.634 263.832C369.45 263.64 369.358 263.364 369.358 263.004C369.358 262.876 369.366 262.756 369.382 262.644H369.358C369.142 263.124 368.842 263.5 368.458 263.772C368.074 264.044 367.606 264.18 367.054 264.18ZM366.058 262.368C366.058 262.656 366.158 262.888 366.358 263.064C366.566 263.232 366.846 263.316 367.198 263.316C367.526 263.316 367.838 263.228 368.134 263.052C368.438 262.876 368.682 262.632 368.866 262.32C369.058 262 369.154 261.636 369.154 261.228V261.108H368.866C368.194 261.108 367.654 261.144 367.246 261.216C366.846 261.288 366.546 261.416 366.346 261.6C366.154 261.784 366.058 262.04 366.058 262.368ZM371.937 261.312L371.913 257.688H373.005L372.981 258.624H373.005C373.149 258.336 373.393 258.084 373.737 257.868C374.081 257.644 374.501 257.532 374.997 257.532C375.821 257.532 376.453 257.816 376.893 258.384C377.341 258.952 377.565 259.768 377.565 260.832C377.565 261.904 377.341 262.732 376.893 263.316C376.453 263.892 375.821 264.18 374.997 264.18C374.501 264.18 374.085 264.068 373.749 263.844C373.413 263.612 373.161 263.344 372.993 263.04H372.969L373.005 265.92H371.913L371.937 261.312ZM372.969 260.856C372.969 261.744 373.145 262.376 373.497 262.752C373.857 263.128 374.273 263.316 374.745 263.316C375.313 263.316 375.749 263.104 376.053 262.68C376.357 262.248 376.509 261.632 376.509 260.832C376.509 260.04 376.357 259.436 376.053 259.02C375.749 258.604 375.313 258.396 374.745 258.396C374.241 258.396 373.817 258.604 373.473 259.02C373.137 259.436 372.969 260.048 372.969 260.856ZM380.691 264.18C380.115 264.18 379.691 264.072 379.419 263.856C379.147 263.632 378.979 263.36 378.915 263.04C378.851 262.712 378.819 262.284 378.819 261.756V258.504L377.859 258.528V257.688H378.819V255.66H379.875V257.688H381.819V258.528L379.875 258.504V261.9C379.875 262.404 379.935 262.768 380.055 262.992C380.183 263.208 380.431 263.316 380.799 263.316C381.151 263.316 381.475 263.264 381.771 263.16L381.963 263.94C381.547 264.1 381.123 264.18 380.691 264.18ZM387.901 260.736L387.925 264H386.869L386.893 263.04H386.869C386.701 263.36 386.441 263.628 386.089 263.844C385.745 264.052 385.345 264.156 384.889 264.156C384.177 264.156 383.637 263.94 383.269 263.508C382.909 263.068 382.729 262.388 382.729 261.468V260.736L382.705 257.688H383.761L383.737 260.736V261.456C383.737 262.064 383.865 262.52 384.121 262.824C384.385 263.12 384.745 263.268 385.201 263.268C385.505 263.268 385.785 263.184 386.041 263.016C386.297 262.84 386.501 262.596 386.653 262.284C386.813 261.964 386.893 261.604 386.893 261.204V260.736L386.869 257.688H387.925L387.901 260.736ZM389.515 260.964L389.491 257.688H390.547L390.511 258.684H390.535C390.655 258.364 390.875 258.092 391.195 257.868C391.523 257.644 391.919 257.532 392.383 257.532C392.559 257.532 392.715 257.548 392.851 257.58L392.839 258.576C392.647 258.52 392.475 258.492 392.323 258.492C391.747 258.492 391.303 258.684 390.991 259.068C390.679 259.452 390.523 260.02 390.523 260.772V260.952L390.547 264H389.491L389.515 260.964ZM393.781 260.844L393.757 257.688H394.813L394.789 260.844L394.813 264H393.757L393.781 260.844ZM393.637 256.284C393.637 255.852 393.853 255.636 394.285 255.636C394.717 255.636 394.933 255.852 394.933 256.284C394.933 256.724 394.717 256.944 394.285 256.944C393.853 256.944 393.637 256.724 393.637 256.284ZM396.394 260.952L396.37 257.688H397.426L397.402 258.648H397.426C397.594 258.328 397.854 258.064 398.206 257.856C398.566 257.64 398.986 257.532 399.466 257.532C400.178 257.532 400.714 257.752 401.074 258.192C401.442 258.624 401.626 259.3 401.626 260.22V260.952L401.65 264H400.594L400.618 260.952V260.232C400.618 259.624 400.486 259.172 400.222 258.876C399.966 258.572 399.61 258.42 399.154 258.42C398.834 258.42 398.538 258.508 398.266 258.684C398.002 258.852 397.79 259.092 397.63 259.404C397.478 259.716 397.402 260.076 397.402 260.484V260.952L397.426 264H396.37L396.394 260.952ZM405.59 266.076C405.062 266.076 404.602 265.984 404.21 265.8C403.818 265.624 403.518 265.388 403.31 265.092C403.102 264.804 402.998 264.496 402.998 264.168L403.97 263.892C403.97 264.3 404.114 264.624 404.402 264.864C404.69 265.112 405.086 265.236 405.59 265.236C406.078 265.236 406.45 265.132 406.706 264.924C406.962 264.724 407.134 264.456 407.222 264.12C407.31 263.792 407.354 263.384 407.354 262.896V262.584H407.33C407.178 262.872 406.934 263.132 406.598 263.364C406.262 263.588 405.842 263.7 405.338 263.7C404.522 263.7 403.89 263.428 403.442 262.884C402.994 262.332 402.77 261.576 402.77 260.616C402.77 260.048 402.866 259.532 403.058 259.068C403.25 258.596 403.538 258.224 403.922 257.952C404.306 257.672 404.77 257.532 405.314 257.532C405.826 257.532 406.25 257.644 406.586 257.868C406.922 258.092 407.17 258.348 407.33 258.636H407.354L407.342 257.688H408.422V262.632C408.422 263.824 408.194 264.696 407.738 265.248C407.282 265.8 406.566 266.076 405.59 266.076ZM403.826 260.616C403.826 261.296 403.978 261.836 404.282 262.236C404.586 262.636 405.01 262.836 405.554 262.836C406.05 262.836 406.474 262.664 406.826 262.32C407.186 261.976 407.366 261.408 407.366 260.616C407.366 260.264 407.302 259.92 407.174 259.584C407.054 259.24 406.858 258.956 406.586 258.732C406.314 258.508 405.97 258.396 405.554 258.396C405.034 258.396 404.614 258.6 404.294 259.008C403.982 259.408 403.826 259.944 403.826 260.616ZM415.098 264.18C414.522 264.18 414.098 264.072 413.826 263.856C413.554 263.632 413.386 263.36 413.322 263.04C413.258 262.712 413.226 262.284 413.226 261.756V258.504L412.266 258.528V257.688H413.226V255.66H414.282V257.688H416.226V258.528L414.282 258.504V261.9C414.282 262.404 414.342 262.768 414.462 262.992C414.59 263.208 414.838 263.316 415.206 263.316C415.558 263.316 415.882 263.264 416.178 263.16L416.37 263.94C415.954 264.1 415.53 264.18 415.098 264.18ZM417.23 260.952L417.206 255.672H418.262L418.238 258.648H418.262C418.43 258.328 418.69 258.064 419.042 257.856C419.402 257.64 419.822 257.532 420.302 257.532C421.014 257.532 421.55 257.752 421.91 258.192C422.278 258.624 422.462 259.3 422.462 260.22V260.952L422.486 264H421.43L421.454 260.952V260.232C421.454 259.624 421.322 259.172 421.058 258.876C420.802 258.572 420.446 258.42 419.99 258.42C419.67 258.42 419.374 258.508 419.102 258.684C418.838 258.852 418.626 259.092 418.466 259.404C418.314 259.716 418.238 260.076 418.238 260.484V260.952L418.262 264H417.206L417.23 260.952ZM426.558 264.18C425.958 264.18 425.434 264.044 424.986 263.772C424.546 263.5 424.206 263.116 423.966 262.62C423.726 262.116 423.606 261.528 423.606 260.856C423.606 259.832 423.858 259.024 424.362 258.432C424.866 257.832 425.566 257.532 426.462 257.532C427.422 257.532 428.11 257.872 428.526 258.552C428.942 259.232 429.15 260.092 429.15 261.132H424.674C424.714 261.812 424.902 262.344 425.238 262.728C425.574 263.112 426.014 263.304 426.558 263.304C426.998 263.304 427.358 263.168 427.638 262.896C427.926 262.624 428.114 262.24 428.202 261.744L429.114 261.984C429.018 262.6 428.75 263.12 428.31 263.544C427.87 263.968 427.286 264.18 426.558 264.18ZM428.094 260.292C428.086 259.732 427.938 259.28 427.65 258.936C427.362 258.584 426.97 258.408 426.474 258.408C425.986 258.408 425.586 258.568 425.274 258.888C424.962 259.2 424.77 259.668 424.698 260.292H428.094ZM435.268 264.18C434.444 264.18 433.808 263.892 433.36 263.316C432.92 262.74 432.7 261.92 432.7 260.856C432.7 259.792 432.92 258.972 433.36 258.396C433.808 257.82 434.444 257.532 435.268 257.532C435.764 257.532 436.18 257.644 436.516 257.868C436.86 258.092 437.112 258.352 437.272 258.648H437.296L437.26 255.672H438.352L438.328 260.376L438.352 264H437.26L437.284 263.064H437.26C437.116 263.352 436.872 263.612 436.528 263.844C436.184 264.068 435.764 264.18 435.268 264.18ZM433.756 260.856C433.756 261.648 433.908 262.256 434.212 262.68C434.516 263.104 434.952 263.316 435.52 263.316C435.992 263.316 436.404 263.132 436.756 262.764C437.116 262.388 437.296 261.744 437.296 260.832C437.296 260.024 437.124 259.416 436.78 259.008C436.444 258.6 436.024 258.396 435.52 258.396C434.952 258.396 434.516 258.608 434.212 259.032C433.908 259.456 433.756 260.064 433.756 260.856ZM439.941 260.844L439.917 257.688H440.973L440.949 260.844L440.973 264H439.917L439.941 260.844ZM439.797 256.284C439.797 255.852 440.013 255.636 440.445 255.636C440.877 255.636 441.093 255.852 441.093 256.284C441.093 256.724 440.877 256.944 440.445 256.944C440.013 256.944 439.797 256.724 439.797 256.284ZM443.01 258.504L441.786 258.528V257.688H442.95C442.934 257.536 442.926 257.396 442.926 257.268C442.926 256.66 443.094 256.188 443.43 255.852C443.766 255.516 444.21 255.348 444.762 255.348C445.186 255.348 445.606 255.44 446.022 255.624L445.818 256.392C445.458 256.288 445.146 256.236 444.882 256.236C444.546 256.236 444.302 256.324 444.15 256.5C444.006 256.668 443.934 256.924 443.934 257.268C443.934 257.396 443.942 257.536 443.958 257.688H445.818V258.528L444.018 258.504L444.042 264H442.986L443.01 258.504ZM447.334 258.504L446.11 258.528V257.688H447.274C447.258 257.536 447.25 257.396 447.25 257.268C447.25 256.66 447.418 256.188 447.754 255.852C448.09 255.516 448.534 255.348 449.086 255.348C449.51 255.348 449.93 255.44 450.346 255.624L450.142 256.392C449.782 256.288 449.47 256.236 449.206 256.236C448.87 256.236 448.626 256.324 448.474 256.5C448.33 256.668 448.258 256.924 448.258 257.268C448.258 257.396 448.266 257.536 448.282 257.688H450.142V258.528L448.342 258.504L448.366 264H447.31L447.334 258.504ZM453.335 264.18C452.735 264.18 452.211 264.044 451.763 263.772C451.323 263.5 450.983 263.116 450.743 262.62C450.503 262.116 450.383 261.528 450.383 260.856C450.383 259.832 450.635 259.024 451.139 258.432C451.643 257.832 452.343 257.532 453.239 257.532C454.199 257.532 454.887 257.872 455.303 258.552C455.719 259.232 455.927 260.092 455.927 261.132H451.451C451.491 261.812 451.679 262.344 452.015 262.728C452.351 263.112 452.791 263.304 453.335 263.304C453.775 263.304 454.135 263.168 454.415 262.896C454.703 262.624 454.891 262.24 454.979 261.744L455.891 261.984C455.795 262.6 455.527 263.12 455.087 263.544C454.647 263.968 454.063 264.18 453.335 264.18ZM454.871 260.292C454.863 259.732 454.715 259.28 454.427 258.936C454.139 258.584 453.747 258.408 453.251 258.408C452.763 258.408 452.363 258.568 452.051 258.888C451.739 259.2 451.547 259.668 451.475 260.292H454.871ZM457.097 260.964L457.073 257.688H458.129L458.093 258.684H458.117C458.237 258.364 458.457 258.092 458.777 257.868C459.105 257.644 459.501 257.532 459.965 257.532C460.141 257.532 460.297 257.548 460.433 257.58L460.421 258.576C460.229 258.52 460.057 258.492 459.905 258.492C459.329 258.492 458.885 258.684 458.573 259.068C458.261 259.452 458.105 260.02 458.105 260.772V260.952L458.129 264H457.073L457.097 260.964ZM463.753 264.18C463.153 264.18 462.629 264.044 462.181 263.772C461.741 263.5 461.401 263.116 461.161 262.62C460.921 262.116 460.801 261.528 460.801 260.856C460.801 259.832 461.053 259.024 461.557 258.432C462.061 257.832 462.761 257.532 463.657 257.532C464.617 257.532 465.305 257.872 465.721 258.552C466.137 259.232 466.345 260.092 466.345 261.132H461.869C461.909 261.812 462.097 262.344 462.433 262.728C462.769 263.112 463.209 263.304 463.753 263.304C464.193 263.304 464.553 263.168 464.833 262.896C465.121 262.624 465.309 262.24 465.397 261.744L466.309 261.984C466.213 262.6 465.945 263.12 465.505 263.544C465.065 263.968 464.481 264.18 463.753 264.18ZM465.289 260.292C465.281 259.732 465.133 259.28 464.845 258.936C464.557 258.584 464.165 258.408 463.669 258.408C463.181 258.408 462.781 258.568 462.469 258.888C462.157 259.2 461.965 259.668 461.893 260.292H465.289ZM467.515 260.952L467.491 257.688H468.547L468.523 258.648H468.547C468.715 258.328 468.975 258.064 469.327 257.856C469.687 257.64 470.107 257.532 470.587 257.532C471.299 257.532 471.835 257.752 472.195 258.192C472.563 258.624 472.747 259.3 472.747 260.22V260.952L472.771 264H471.715L471.739 260.952V260.232C471.739 259.624 471.607 259.172 471.343 258.876C471.087 258.572 470.731 258.42 470.275 258.42C469.955 258.42 469.659 258.508 469.387 258.684C469.123 258.852 468.911 259.092 468.751 259.404C468.599 259.716 468.523 260.076 468.523 260.484V260.952L468.547 264H467.491L467.515 260.952ZM476.843 264.18C476.243 264.18 475.719 264.044 475.271 263.772C474.831 263.5 474.491 263.116 474.251 262.62C474.011 262.116 473.891 261.528 473.891 260.856C473.891 260.184 474.011 259.6 474.251 259.104C474.491 258.6 474.831 258.212 475.271 257.94C475.711 257.668 476.231 257.532 476.831 257.532C477.559 257.532 478.143 257.744 478.583 258.168C479.031 258.584 479.303 259.1 479.399 259.716L478.487 259.956C478.399 259.468 478.211 259.088 477.923 258.816C477.643 258.544 477.283 258.408 476.843 258.408C476.259 258.408 475.795 258.628 475.451 259.068C475.115 259.5 474.947 260.096 474.947 260.856C474.947 261.616 475.115 262.216 475.451 262.656C475.795 263.088 476.259 263.304 476.843 263.304C477.283 263.304 477.643 263.172 477.923 262.908C478.211 262.636 478.399 262.252 478.487 261.756L479.399 261.996C479.303 262.612 479.035 263.132 478.595 263.556C478.155 263.972 477.571 264.18 476.843 264.18ZM482.89 264.18C482.29 264.18 481.766 264.044 481.318 263.772C480.878 263.5 480.538 263.116 480.298 262.62C480.058 262.116 479.938 261.528 479.938 260.856C479.938 259.832 480.19 259.024 480.694 258.432C481.198 257.832 481.898 257.532 482.794 257.532C483.754 257.532 484.442 257.872 484.858 258.552C485.274 259.232 485.482 260.092 485.482 261.132H481.006C481.046 261.812 481.234 262.344 481.57 262.728C481.906 263.112 482.346 263.304 482.89 263.304C483.33 263.304 483.69 263.168 483.97 262.896C484.258 262.624 484.446 262.24 484.534 261.744L485.446 261.984C485.35 262.6 485.082 263.12 484.642 263.544C484.202 263.968 483.618 264.18 482.89 264.18ZM484.426 260.292C484.418 259.732 484.27 259.28 483.982 258.936C483.694 258.584 483.302 258.408 482.806 258.408C482.318 258.408 481.918 258.568 481.606 258.888C481.294 259.2 481.102 259.668 481.03 260.292H484.426ZM360.864 282.18C360.368 282.18 359.948 282.068 359.604 281.844C359.26 281.612 359.016 281.352 358.872 281.064H358.848L358.872 282H357.78L357.804 278.376L357.78 273.672H358.872L358.836 276.648H358.86C359.02 276.352 359.268 276.092 359.604 275.868C359.948 275.644 360.368 275.532 360.864 275.532C361.688 275.532 362.32 275.82 362.76 276.396C363.208 276.972 363.432 277.792 363.432 278.856C363.432 279.92 363.208 280.74 362.76 281.316C362.32 281.892 361.688 282.18 360.864 282.18ZM358.836 278.832C358.836 279.744 359.012 280.388 359.364 280.764C359.724 281.132 360.14 281.316 360.612 281.316C361.18 281.316 361.616 281.104 361.92 280.68C362.224 280.256 362.376 279.648 362.376 278.856C362.376 278.064 362.224 277.456 361.92 277.032C361.616 276.608 361.18 276.396 360.612 276.396C360.108 276.396 359.684 276.6 359.34 277.008C359.004 277.416 358.836 278.024 358.836 278.832ZM367.109 282.18C366.509 282.18 365.985 282.044 365.537 281.772C365.097 281.5 364.757 281.116 364.517 280.62C364.277 280.116 364.157 279.528 364.157 278.856C364.157 277.832 364.409 277.024 364.913 276.432C365.417 275.832 366.117 275.532 367.013 275.532C367.973 275.532 368.661 275.872 369.077 276.552C369.493 277.232 369.701 278.092 369.701 279.132H365.225C365.265 279.812 365.453 280.344 365.789 280.728C366.125 281.112 366.565 281.304 367.109 281.304C367.549 281.304 367.909 281.168 368.189 280.896C368.477 280.624 368.665 280.24 368.753 279.744L369.665 279.984C369.569 280.6 369.301 281.12 368.861 281.544C368.421 281.968 367.837 282.18 367.109 282.18ZM368.645 278.292C368.637 277.732 368.489 277.28 368.201 276.936C367.913 276.584 367.521 276.408 367.025 276.408C366.537 276.408 366.137 276.568 365.825 276.888C365.513 277.2 365.321 277.668 365.249 278.292H368.645ZM372.828 282.18C372.252 282.18 371.828 282.072 371.556 281.856C371.284 281.632 371.116 281.36 371.052 281.04C370.988 280.712 370.956 280.284 370.956 279.756V276.504L369.996 276.528V275.688H370.956V273.66H372.012V275.688H373.956V276.528L372.012 276.504V279.9C372.012 280.404 372.072 280.768 372.192 280.992C372.32 281.208 372.568 281.316 372.936 281.316C373.288 281.316 373.612 281.264 373.908 281.16L374.1 281.94C373.684 282.1 373.26 282.18 372.828 282.18ZM374.216 275.688H375.272L376.604 280.956H376.616L377.96 275.688H378.992L380.324 280.956H380.336L381.68 275.688H382.7L380.948 282H379.688L378.464 277.236H378.44L377.192 282H375.944L374.216 275.688ZM386 282.18C385.4 282.18 384.876 282.044 384.428 281.772C383.988 281.5 383.648 281.116 383.408 280.62C383.168 280.116 383.048 279.528 383.048 278.856C383.048 277.832 383.3 277.024 383.804 276.432C384.308 275.832 385.008 275.532 385.904 275.532C386.864 275.532 387.552 275.872 387.968 276.552C388.384 277.232 388.592 278.092 388.592 279.132H384.116C384.156 279.812 384.344 280.344 384.68 280.728C385.016 281.112 385.456 281.304 386 281.304C386.44 281.304 386.8 281.168 387.08 280.896C387.368 280.624 387.556 280.24 387.644 279.744L388.556 279.984C388.46 280.6 388.192 281.12 387.752 281.544C387.312 281.968 386.728 282.18 386 282.18ZM387.536 278.292C387.528 277.732 387.38 277.28 387.092 276.936C386.804 276.584 386.412 276.408 385.916 276.408C385.428 276.408 385.028 276.568 384.716 276.888C384.404 277.2 384.212 277.668 384.14 278.292H387.536ZM392.269 282.18C391.669 282.18 391.145 282.044 390.697 281.772C390.257 281.5 389.917 281.116 389.677 280.62C389.437 280.116 389.317 279.528 389.317 278.856C389.317 277.832 389.569 277.024 390.073 276.432C390.577 275.832 391.277 275.532 392.173 275.532C393.133 275.532 393.821 275.872 394.237 276.552C394.653 277.232 394.861 278.092 394.861 279.132H390.385C390.425 279.812 390.613 280.344 390.949 280.728C391.285 281.112 391.725 281.304 392.269 281.304C392.709 281.304 393.069 281.168 393.349 280.896C393.637 280.624 393.825 280.24 393.913 279.744L394.825 279.984C394.729 280.6 394.461 281.12 394.021 281.544C393.581 281.968 392.997 282.18 392.269 282.18ZM393.805 278.292C393.797 277.732 393.649 277.28 393.361 276.936C393.073 276.584 392.681 276.408 392.185 276.408C391.697 276.408 391.297 276.568 390.985 276.888C390.673 277.2 390.481 277.668 390.409 278.292H393.805ZM396.031 278.952L396.007 275.688H397.063L397.039 276.648H397.063C397.231 276.328 397.491 276.064 397.843 275.856C398.203 275.64 398.623 275.532 399.103 275.532C399.815 275.532 400.351 275.752 400.711 276.192C401.079 276.624 401.263 277.3 401.263 278.22V278.952L401.287 282H400.231L400.255 278.952V278.232C400.255 277.624 400.123 277.172 399.859 276.876C399.603 276.572 399.247 276.42 398.791 276.42C398.471 276.42 398.175 276.508 397.903 276.684C397.639 276.852 397.427 277.092 397.267 277.404C397.115 277.716 397.039 278.076 397.039 278.484V278.952L397.063 282H396.007L396.031 278.952ZM407.937 282.18C407.361 282.18 406.937 282.072 406.665 281.856C406.393 281.632 406.225 281.36 406.161 281.04C406.097 280.712 406.065 280.284 406.065 279.756V276.504L405.105 276.528V275.688H406.065V273.66H407.121V275.688H409.065V276.528L407.121 276.504V279.9C407.121 280.404 407.181 280.768 407.301 280.992C407.429 281.208 407.677 281.316 408.045 281.316C408.397 281.316 408.721 281.264 409.017 281.16L409.209 281.94C408.793 282.1 408.369 282.18 407.937 282.18ZM410.07 278.952L410.046 273.672H411.102L411.078 276.648H411.102C411.27 276.328 411.53 276.064 411.882 275.856C412.242 275.64 412.662 275.532 413.142 275.532C413.854 275.532 414.39 275.752 414.75 276.192C415.118 276.624 415.302 277.3 415.302 278.22V278.952L415.326 282H414.27L414.294 278.952V278.232C414.294 277.624 414.162 277.172 413.898 276.876C413.642 276.572 413.286 276.42 412.83 276.42C412.51 276.42 412.214 276.508 411.942 276.684C411.678 276.852 411.466 277.092 411.306 277.404C411.154 277.716 411.078 278.076 411.078 278.484V278.952L411.102 282H410.046L410.07 278.952ZM419.398 282.18C418.798 282.18 418.274 282.044 417.826 281.772C417.386 281.5 417.046 281.116 416.806 280.62C416.566 280.116 416.446 279.528 416.446 278.856C416.446 277.832 416.698 277.024 417.202 276.432C417.706 275.832 418.406 275.532 419.302 275.532C420.262 275.532 420.95 275.872 421.366 276.552C421.782 277.232 421.99 278.092 421.99 279.132H417.514C417.554 279.812 417.742 280.344 418.078 280.728C418.414 281.112 418.854 281.304 419.398 281.304C419.838 281.304 420.198 281.168 420.478 280.896C420.766 280.624 420.954 280.24 421.042 279.744L421.954 279.984C421.858 280.6 421.59 281.12 421.15 281.544C420.71 281.968 420.126 282.18 419.398 282.18ZM420.934 278.292C420.926 277.732 420.778 277.28 420.49 276.936C420.202 276.584 419.81 276.408 419.314 276.408C418.826 276.408 418.426 276.568 418.114 276.888C417.802 277.2 417.61 277.668 417.538 278.292H420.934ZM429.161 282.18C428.665 282.18 428.245 282.068 427.901 281.844C427.557 281.612 427.313 281.352 427.169 281.064H427.145L427.169 282H426.077L426.101 278.376L426.077 273.672H427.169L427.133 276.648H427.157C427.317 276.352 427.565 276.092 427.901 275.868C428.245 275.644 428.665 275.532 429.161 275.532C429.985 275.532 430.617 275.82 431.057 276.396C431.505 276.972 431.729 277.792 431.729 278.856C431.729 279.92 431.505 280.74 431.057 281.316C430.617 281.892 429.985 282.18 429.161 282.18ZM427.133 278.832C427.133 279.744 427.309 280.388 427.661 280.764C428.021 281.132 428.437 281.316 428.909 281.316C429.477 281.316 429.913 281.104 430.217 280.68C430.521 280.256 430.673 279.648 430.673 278.856C430.673 278.064 430.521 277.456 430.217 277.032C429.913 276.608 429.477 276.396 428.909 276.396C428.405 276.396 427.981 276.6 427.637 277.008C427.301 277.416 427.133 278.024 427.133 278.832ZM432.898 278.844L432.874 275.688H433.93L433.906 278.844L433.93 282H432.874L432.898 278.844ZM432.754 274.284C432.754 273.852 432.97 273.636 433.402 273.636C433.834 273.636 434.05 273.852 434.05 274.284C434.05 274.724 433.834 274.944 433.402 274.944C432.97 274.944 432.754 274.724 432.754 274.284ZM437.635 282.18C436.811 282.18 436.175 281.892 435.727 281.316C435.287 280.74 435.067 279.92 435.067 278.856C435.067 277.792 435.287 276.972 435.727 276.396C436.175 275.82 436.811 275.532 437.635 275.532C438.131 275.532 438.547 275.644 438.883 275.868C439.227 276.092 439.479 276.352 439.639 276.648H439.663L439.627 273.672H440.719L440.695 278.376L440.719 282H439.627L439.651 281.064H439.627C439.483 281.352 439.239 281.612 438.895 281.844C438.551 282.068 438.131 282.18 437.635 282.18ZM436.123 278.856C436.123 279.648 436.275 280.256 436.579 280.68C436.883 281.104 437.319 281.316 437.887 281.316C438.359 281.316 438.771 281.132 439.123 280.764C439.483 280.388 439.663 279.744 439.663 278.832C439.663 278.024 439.491 277.416 439.147 277.008C438.811 276.6 438.391 276.396 437.887 276.396C437.319 276.396 436.883 276.608 436.579 277.032C436.275 277.456 436.123 278.064 436.123 278.856ZM447.023 282.18C446.367 282.18 445.863 282.016 445.511 281.688C445.159 281.352 444.983 280.916 444.983 280.38C444.983 279.908 445.103 279.524 445.343 279.228C445.583 278.932 445.963 278.712 446.483 278.568C447.011 278.424 447.707 278.352 448.571 278.352H449.123V278.184C449.123 277.6 449.007 277.152 448.775 276.84C448.543 276.528 448.159 276.372 447.623 276.372C447.231 276.372 446.911 276.46 446.663 276.636C446.423 276.804 446.251 277.016 446.146 277.272C446.043 277.52 445.995 277.776 446.003 278.04L445.091 277.812C445.091 277.38 445.195 276.992 445.403 276.648C445.611 276.304 445.907 276.032 446.291 275.832C446.675 275.632 447.119 275.532 447.623 275.532C449.279 275.532 450.107 276.34 450.107 277.956V280.752C450.107 280.968 450.143 281.124 450.215 281.22C450.295 281.308 450.435 281.352 450.635 281.352C450.763 281.352 450.887 281.328 451.007 281.28L451.163 281.976C450.891 282.072 450.627 282.12 450.371 282.12C450.043 282.12 449.787 282.024 449.603 281.832C449.419 281.64 449.327 281.364 449.327 281.004C449.327 280.876 449.335 280.756 449.351 280.644H449.327C449.111 281.124 448.811 281.5 448.427 281.772C448.043 282.044 447.575 282.18 447.023 282.18ZM446.027 280.368C446.027 280.656 446.127 280.888 446.326 281.064C446.535 281.232 446.815 281.316 447.167 281.316C447.495 281.316 447.807 281.228 448.103 281.052C448.407 280.876 448.651 280.632 448.835 280.32C449.027 280 449.123 279.636 449.123 279.228V279.108H448.835C448.163 279.108 447.623 279.144 447.215 279.216C446.815 279.288 446.515 279.416 446.315 279.6C446.123 279.784 446.027 280.04 446.027 280.368ZM451.906 278.952L451.882 275.688H452.938L452.914 276.648H452.938C453.106 276.328 453.366 276.064 453.718 275.856C454.078 275.64 454.498 275.532 454.978 275.532C455.69 275.532 456.226 275.752 456.586 276.192C456.954 276.624 457.138 277.3 457.138 278.22V278.952L457.162 282H456.106L456.13 278.952V278.232C456.13 277.624 455.998 277.172 455.734 276.876C455.478 276.572 455.122 276.42 454.666 276.42C454.346 276.42 454.05 276.508 453.778 276.684C453.514 276.852 453.302 277.092 453.142 277.404C452.99 277.716 452.914 278.076 452.914 278.484V278.952L452.938 282H451.882L451.906 278.952ZM460.85 282.18C460.026 282.18 459.39 281.892 458.942 281.316C458.502 280.74 458.282 279.92 458.282 278.856C458.282 277.792 458.502 276.972 458.942 276.396C459.39 275.82 460.026 275.532 460.85 275.532C461.346 275.532 461.762 275.644 462.098 275.868C462.442 276.092 462.694 276.352 462.854 276.648H462.878L462.842 273.672H463.934L463.91 278.376L463.934 282H462.842L462.866 281.064H462.842C462.698 281.352 462.454 281.612 462.11 281.844C461.766 282.068 461.346 282.18 460.85 282.18ZM459.338 278.856C459.338 279.648 459.49 280.256 459.794 280.68C460.098 281.104 460.534 281.316 461.102 281.316C461.574 281.316 461.986 281.132 462.338 280.764C462.698 280.388 462.878 279.744 462.878 278.832C462.878 278.024 462.706 277.416 462.362 277.008C462.026 276.6 461.606 276.396 461.102 276.396C460.534 276.396 460.098 276.608 459.794 277.032C459.49 277.456 459.338 278.064 459.338 278.856ZM470.237 282.18C469.581 282.18 469.077 282.016 468.725 281.688C468.373 281.352 468.197 280.916 468.197 280.38C468.197 279.908 468.317 279.524 468.557 279.228C468.797 278.932 469.177 278.712 469.697 278.568C470.225 278.424 470.921 278.352 471.785 278.352H472.337V278.184C472.337 277.6 472.221 277.152 471.989 276.84C471.757 276.528 471.373 276.372 470.837 276.372C470.445 276.372 470.125 276.46 469.877 276.636C469.637 276.804 469.465 277.016 469.361 277.272C469.257 277.52 469.209 277.776 469.217 278.04L468.305 277.812C468.305 277.38 468.409 276.992 468.617 276.648C468.825 276.304 469.121 276.032 469.505 275.832C469.889 275.632 470.333 275.532 470.837 275.532C472.493 275.532 473.321 276.34 473.321 277.956V280.752C473.321 280.968 473.357 281.124 473.429 281.22C473.509 281.308 473.649 281.352 473.849 281.352C473.977 281.352 474.101 281.328 474.221 281.28L474.377 281.976C474.105 282.072 473.841 282.12 473.585 282.12C473.257 282.12 473.001 282.024 472.817 281.832C472.633 281.64 472.541 281.364 472.541 281.004C472.541 280.876 472.549 280.756 472.565 280.644H472.541C472.325 281.124 472.025 281.5 471.641 281.772C471.257 282.044 470.789 282.18 470.237 282.18ZM469.241 280.368C469.241 280.656 469.341 280.888 469.541 281.064C469.749 281.232 470.029 281.316 470.381 281.316C470.709 281.316 471.021 281.228 471.317 281.052C471.621 280.876 471.865 280.632 472.049 280.32C472.241 280 472.337 279.636 472.337 279.228V279.108H472.049C471.377 279.108 470.837 279.144 470.429 279.216C470.029 279.288 469.729 279.416 469.529 279.6C469.337 279.784 469.241 280.04 469.241 280.368ZM477.052 282.18C476.292 282.18 475.688 282.016 475.24 281.688C474.8 281.352 474.552 280.848 474.496 280.176L475.42 279.948C475.404 280.356 475.54 280.684 475.828 280.932C476.116 281.18 476.536 281.304 477.088 281.304C477.504 281.304 477.824 281.224 478.048 281.064C478.28 280.904 478.396 280.66 478.396 280.332C478.396 280.044 478.28 279.816 478.048 279.648C477.824 279.472 477.468 279.344 476.98 279.264C476.172 279.144 475.604 278.924 475.276 278.604C474.956 278.276 474.796 277.864 474.796 277.368C474.796 276.824 474.972 276.384 475.324 276.048C475.684 275.704 476.196 275.532 476.86 275.532C477.612 275.532 478.18 275.688 478.564 276C478.956 276.304 479.184 276.772 479.248 277.404L478.336 277.632C478.312 277.216 478.18 276.908 477.94 276.708C477.708 276.508 477.364 276.408 476.908 276.408C476.556 276.408 476.284 276.488 476.092 276.648C475.908 276.8 475.816 277.012 475.816 277.284C475.816 277.564 475.92 277.788 476.128 277.956C476.336 278.116 476.7 278.244 477.22 278.34C477.988 278.476 478.544 278.708 478.888 279.036C479.24 279.364 479.416 279.784 479.416 280.296C479.416 280.848 479.208 281.3 478.792 281.652C478.376 282.004 477.796 282.18 477.052 282.18ZM480.452 277.776L480.428 273.672H481.484L481.46 277.776V278.58L484.1 275.688H485.36L483.176 278.004L485.732 282H484.52L482.468 278.76L481.472 279.828L481.484 282H480.428L480.452 277.776ZM489.652 279.312L489.628 275.688H490.72L490.696 276.624H490.72C490.864 276.336 491.108 276.084 491.452 275.868C491.796 275.644 492.216 275.532 492.712 275.532C493.536 275.532 494.168 275.816 494.608 276.384C495.056 276.952 495.28 277.768 495.28 278.832C495.28 279.904 495.056 280.732 494.608 281.316C494.168 281.892 493.536 282.18 492.712 282.18C492.216 282.18 491.8 282.068 491.464 281.844C491.128 281.612 490.876 281.344 490.708 281.04H490.684L490.72 283.92H489.628L489.652 279.312ZM490.684 278.856C490.684 279.744 490.86 280.376 491.212 280.752C491.572 281.128 491.988 281.316 492.46 281.316C493.028 281.316 493.464 281.104 493.768 280.68C494.072 280.248 494.224 279.632 494.224 278.832C494.224 278.04 494.072 277.436 493.768 277.02C493.464 276.604 493.028 276.396 492.46 276.396C491.956 276.396 491.532 276.604 491.188 277.02C490.852 277.436 490.684 278.048 490.684 278.856ZM496.449 278.964L496.425 275.688H497.481L497.445 276.684H497.469C497.589 276.364 497.809 276.092 498.129 275.868C498.457 275.644 498.853 275.532 499.317 275.532C499.493 275.532 499.649 275.548 499.785 275.58L499.773 276.576C499.581 276.52 499.409 276.492 499.257 276.492C498.681 276.492 498.237 276.684 497.925 277.068C497.613 277.452 497.457 278.02 497.457 278.772V278.952L497.481 282H496.425L496.449 278.964ZM500.714 278.844L500.69 275.688H501.746L501.722 278.844L501.746 282H500.69L500.714 278.844ZM500.57 274.284C500.57 273.852 500.786 273.636 501.218 273.636C501.65 273.636 501.866 273.852 501.866 274.284C501.866 274.724 501.65 274.944 501.218 274.944C500.786 274.944 500.57 274.724 500.57 274.284ZM505.835 282.18C505.235 282.18 504.711 282.044 504.263 281.772C503.823 281.5 503.483 281.116 503.243 280.62C503.003 280.116 502.883 279.528 502.883 278.856C502.883 278.184 503.003 277.6 503.243 277.104C503.483 276.6 503.823 276.212 504.263 275.94C504.703 275.668 505.223 275.532 505.823 275.532C506.551 275.532 507.135 275.744 507.575 276.168C508.023 276.584 508.295 277.1 508.391 277.716L507.479 277.956C507.391 277.468 507.203 277.088 506.915 276.816C506.635 276.544 506.275 276.408 505.835 276.408C505.251 276.408 504.787 276.628 504.443 277.068C504.107 277.5 503.939 278.096 503.939 278.856C503.939 279.616 504.107 280.216 504.443 280.656C504.787 281.088 505.251 281.304 505.835 281.304C506.275 281.304 506.635 281.172 506.915 280.908C507.203 280.636 507.391 280.252 507.479 279.756L508.391 279.996C508.295 280.612 508.027 281.132 507.587 281.556C507.147 281.972 506.563 282.18 505.835 282.18ZM511.882 282.18C511.282 282.18 510.758 282.044 510.31 281.772C509.87 281.5 509.53 281.116 509.29 280.62C509.05 280.116 508.93 279.528 508.93 278.856C508.93 277.832 509.182 277.024 509.686 276.432C510.19 275.832 510.89 275.532 511.786 275.532C512.746 275.532 513.434 275.872 513.85 276.552C514.266 277.232 514.474 278.092 514.474 279.132H509.998C510.038 279.812 510.226 280.344 510.562 280.728C510.898 281.112 511.338 281.304 511.882 281.304C512.322 281.304 512.682 281.168 512.962 280.896C513.25 280.624 513.438 280.24 513.526 279.744L514.438 279.984C514.342 280.6 514.074 281.12 513.634 281.544C513.194 281.968 512.61 282.18 511.882 282.18ZM513.418 278.292C513.41 277.732 513.262 277.28 512.974 276.936C512.686 276.584 512.294 276.408 511.798 276.408C511.31 276.408 510.91 276.568 510.598 276.888C510.286 277.2 510.094 277.668 510.022 278.292H513.418ZM517.576 282.18C516.816 282.18 516.212 282.016 515.764 281.688C515.324 281.352 515.076 280.848 515.02 280.176L515.944 279.948C515.928 280.356 516.064 280.684 516.352 280.932C516.64 281.18 517.06 281.304 517.612 281.304C518.028 281.304 518.348 281.224 518.572 281.064C518.804 280.904 518.92 280.66 518.92 280.332C518.92 280.044 518.804 279.816 518.572 279.648C518.348 279.472 517.992 279.344 517.504 279.264C516.696 279.144 516.128 278.924 515.8 278.604C515.48 278.276 515.32 277.864 515.32 277.368C515.32 276.824 515.496 276.384 515.848 276.048C516.208 275.704 516.72 275.532 517.384 275.532C518.136 275.532 518.704 275.688 519.088 276C519.48 276.304 519.708 276.772 519.772 277.404L518.86 277.632C518.836 277.216 518.704 276.908 518.464 276.708C518.232 276.508 517.888 276.408 517.432 276.408C517.08 276.408 516.808 276.488 516.616 276.648C516.432 276.8 516.34 277.012 516.34 277.284C516.34 277.564 516.444 277.788 516.652 277.956C516.86 278.116 517.224 278.244 517.744 278.34C518.512 278.476 519.068 278.708 519.412 279.036C519.764 279.364 519.94 279.784 519.94 280.296C519.94 280.848 519.732 281.3 519.316 281.652C518.9 282.004 518.32 282.18 517.576 282.18Z" fill="black"/>
<path d="M350.43 268.715C350.43 277.394 343.394 284.43 334.715 284.43C326.036 284.43 319 277.394 319 268.715C319 260.036 326.036 253 334.715 253C343.394 253 350.43 260.036 350.43 268.715Z" fill="#F3F3F3"/>
<path d="M335.668 260.825V262.294C336.788 262.434 337.684 262.809 338.359 263.42C339.033 264.031 339.465 264.807 339.656 265.748L337.347 266.397C337.284 265.952 337.106 265.551 336.813 265.195C336.533 264.839 336.151 264.59 335.668 264.45V267.427C337.156 267.771 338.231 268.235 338.893 268.82C339.555 269.393 339.885 270.15 339.885 271.091C339.885 272.173 339.497 273.019 338.721 273.629C337.945 274.227 336.927 274.577 335.668 274.679V276.148H334.332V274.679C333.098 274.577 332.093 274.208 331.317 273.572C330.554 272.936 330.071 272.045 329.867 270.9L332.042 270.29C332.208 270.939 332.469 271.447 332.825 271.816C333.181 272.185 333.683 272.427 334.332 272.541V269.431C333.009 269.151 332.017 268.712 331.355 268.114C330.707 267.516 330.382 266.734 330.382 265.767C330.382 264.686 330.732 263.846 331.432 263.248C332.131 262.638 333.098 262.301 334.332 262.237V260.825H335.668ZM332.863 265.71C332.863 266.066 332.971 266.346 333.187 266.55C333.404 266.753 333.785 266.938 334.332 267.103V264.317C333.874 264.368 333.512 264.514 333.245 264.756C332.99 264.998 332.863 265.316 332.863 265.71ZM335.668 272.58C336.253 272.529 336.686 272.382 336.966 272.141C337.246 271.886 337.385 271.562 337.385 271.168C337.385 270.862 337.252 270.595 336.985 270.366C336.718 270.124 336.279 269.914 335.668 269.736V272.58Z" fill="#0B0B0B"/>
<defs>
<linearGradient id="paint0_linear_3_85" x1="356.519" y1="129.48" x2="870.042" y2="129.48" gradientUnits="userSpaceOnUse">
<stop stop-color="white" stop-opacity="0.09"/>
<stop offset="0.21875" stop-color="white" stop-opacity="0.05"/>
<stop offset="1" stop-color="white" stop-opacity="0.03"/>
</linearGradient>
<linearGradient id="paint1_linear_3_85" x1="356.519" y1="196.945" x2="870.042" y2="196.945" gradientUnits="userSpaceOnUse">
<stop stop-color="white" stop-opacity="0.09"/>
<stop offset="0.21875" stop-color="white" stop-opacity="0.05"/>
<stop offset="1" stop-color="white" stop-opacity="0.03"/>
</linearGradient>
<linearGradient id="paint2_linear_3_85" x1="356.519" y1="264.41" x2="870.042" y2="264.41" gradientUnits="userSpaceOnUse">
<stop stop-color="white" stop-opacity="0.09"/>
<stop offset="0.21875" stop-color="white" stop-opacity="0.05"/>
<stop offset="1" stop-color="white" stop-opacity="0.03"/>
</linearGradient>
<linearGradient id="paint3_linear_3_85" x1="356.519" y1="399.34" x2="870.042" y2="399.34" gradientUnits="userSpaceOnUse">
<stop stop-color="white" stop-opacity="0.09"/>
<stop offset="0.21875" stop-color="white" stop-opacity="0.05"/>
<stop offset="1" stop-color="white" stop-opacity="0.03"/>
</linearGradient>
<linearGradient id="paint4_linear_3_85" x1="356.519" y1="331.875" x2="870.042" y2="331.875" gradientUnits="userSpaceOnUse">
<stop stop-color="white" stop-opacity="0.09"/>
<stop offset="0.21875" stop-color="white" stop-opacity="0.05"/>
<stop offset="1" stop-color="white" stop-opacity="0.03"/>
</linearGradient>
<linearGradient id="paint5_linear_3_85" x1="356.519" y1="466.805" x2="870.042" y2="466.805" gradientUnits="userSpaceOnUse">
<stop stop-color="white" stop-opacity="0.09"/>
<stop offset="0.21875" stop-color="white" stop-opacity="0.05"/>
<stop offset="1" stop-color="white" stop-opacity="0.03"/>
</linearGradient>
<linearGradient id="paint6_linear_3_85" x1="-25.1347" y1="137.561" x2="-25.1347" y2="334.774" gradientUnits="userSpaceOnUse">
<stop stop-color="white" stop-opacity="0.09"/>
<stop offset="0.21875" stop-color="white" stop-opacity="0.05"/>
<stop offset="1" stop-color="white" stop-opacity="0.03"/>
</linearGradient>
<linearGradient id="paint7_linear_3_85" x1="107.746" y1="137.561" x2="107.746" y2="334.774" gradientUnits="userSpaceOnUse">
<stop stop-color="white" stop-opacity="0.09"/>
<stop offset="0.21875" stop-color="white" stop-opacity="0.05"/>
<stop offset="1" stop-color="white" stop-opacity="0.03"/>
</linearGradient>
<linearGradient id="paint8_linear_3_85" x1="240.625" y1="137.561" x2="240.625" y2="334.774" gradientUnits="userSpaceOnUse">
<stop stop-color="white" stop-opacity="0.09"/>
<stop offset="0.21875" stop-color="white" stop-opacity="0.05"/>
<stop offset="1" stop-color="white" stop-opacity="0.03"/>
</linearGradient>
<linearGradient id="paint9_linear_3_85" x1="373.506" y1="137.561" x2="373.506" y2="334.774" gradientUnits="userSpaceOnUse">
<stop stop-color="white" stop-opacity="0.09"/>
<stop offset="0.21875" stop-color="white" stop-opacity="0.05"/>
<stop offset="1" stop-color="white" stop-opacity="0.03"/>
</linearGradient>
<linearGradient id="paint10_linear_3_85" x1="506.389" y1="137.561" x2="506.389" y2="334.774" gradientUnits="userSpaceOnUse">
<stop stop-color="white" stop-opacity="0.09"/>
<stop offset="0.21875" stop-color="white" stop-opacity="0.05"/>
<stop offset="1" stop-color="white" stop-opacity="0.03"/>
</linearGradient>
<linearGradient id="paint11_linear_3_85" x1="639.266" y1="137.561" x2="639.266" y2="334.774" gradientUnits="userSpaceOnUse">
<stop stop-color="white" stop-opacity="0.09"/>
<stop offset="0.21875" stop-color="white" stop-opacity="0.05"/>
<stop offset="1" stop-color="white" stop-opacity="0.03"/>
</linearGradient>
<linearGradient id="paint12_linear_3_85" x1="772.146" y1="137.561" x2="772.146" y2="334.774" gradientUnits="userSpaceOnUse">
<stop stop-color="white" stop-opacity="0.09"/>
<stop offset="0.21875" stop-color="white" stop-opacity="0.05"/>
<stop offset="1" stop-color="white" stop-opacity="0.03"/>
</linearGradient>
<linearGradient id="paint13_linear_3_85" x1="231.398" y1="148.677" x2="343.601" y2="18.0802" gradientUnits="userSpaceOnUse">
<stop stop-color="#00C2FF"/>
<stop offset="0.5" stop-color="#79E1F8"/>
<stop offset="1" stop-color="#94FDFD"/>
</linearGradient>
<linearGradient id="paint14_linear_3_85" x1="470" y1="249" x2="470" y2="372" gradientUnits="userSpaceOnUse">
<stop stop-color="#191919" stop-opacity="0"/>
<stop offset="1" stop-color="#191919"/>
</linearGradient>
</defs>
</svg>
