<svg width="69" height="63" viewBox="0 0 69 63" fill="none" xmlns="http://www.w3.org/2000/svg">
<g filter="url(#filter0_d_63_908)">
<path d="M31.812 16.7506C31.8122 14.7402 32.5045 12.7912 33.7726 11.2312C35.0408 9.67122 36.8073 8.5954 38.7753 8.18464C40.7433 7.77387 42.7927 8.05319 44.579 8.97565C46.3653 9.89811 47.7795 11.4075 48.5839 13.2499L56.312 13.25L49.2546 20.3074C48.795 27.4058 45.6512 34.0632 40.4615 38.9279C35.2718 43.7926 28.4252 46.4999 21.312 46.5C14.312 46.5 12.562 43.875 12.562 43.875C12.562 43.875 19.562 41.25 23.062 36C23.062 36 9.06197 29 12.562 9.75001C12.562 9.75001 21.312 18.5 31.809 20.25L31.812 16.7506Z" stroke="white" stroke-width="2" stroke-linecap="round" stroke-linejoin="round" shape-rendering="crispEdges"/>
</g>
<defs>
<filter id="filter0_d_63_908" x="0.000244141" y="0" width="68.3118" height="62.5" filterUnits="userSpaceOnUse" color-interpolation-filters="sRGB">
<feFlood flood-opacity="0" result="BackgroundImageFix"/>
<feColorMatrix in="SourceAlpha" type="matrix" values="0 0 0 0 0 0 0 0 0 0 0 0 0 0 0 0 0 0 127 0" result="hardAlpha"/>
<feOffset dy="4"/>
<feGaussianBlur stdDeviation="5.5"/>
<feComposite in2="hardAlpha" operator="out"/>
<feColorMatrix type="matrix" values="0 0 0 0 0.985833 0 0 0 0 0.291667 0 0 0 0 1 0 0 0 0.31 0"/>
<feBlend mode="normal" in2="BackgroundImageFix" result="effect1_dropShadow_63_908"/>
<feBlend mode="normal" in="SourceGraphic" in2="effect1_dropShadow_63_908" result="shape"/>
</filter>
</defs>
</svg>
